<?xml version="1.0" encoding="iso-8859-1"?>
<!-- Generator: Adobe Illustrator 19.0.0, SVG Export Plug-In . SVG Version: 6.00 Build 0)  -->
<svg version="1.1" id="Layer_1" xmlns="http://www.w3.org/2000/svg" xmlns:xlink="http://www.w3.org/1999/xlink" x="0px" y="0px"
	 viewBox="0 0 511.999 511.999" style="enable-background:new 0 0 511.999 511.999;" xml:space="preserve">
<rect x="8.12" y="242.681" style="fill:#4780D1;" width="221.596" height="221.596"/>
<rect x="39.747" y="274.305" style="fill:#F2F2F2;" width="158.36" height="158.36"/>
<polygon style="fill:#4079BF;" points="501.986,101.021 476.026,126.982 420.392,71.359 420.392,71.348 446.352,45.387 "/>
<polygon style="fill:#4780D1;" points="492.047,91.082 466.086,117.042 430.333,81.299 430.333,81.287 456.293,55.327 "/>
<polygon style="fill:#DD3636;" points="488.083,139.039 330.466,296.668 330.454,296.657 250.717,216.92 408.346,59.302 
	420.392,71.348 420.392,71.359 476.026,126.982 "/>
<polygon style="fill:#F73C3C;" points="472.673,123.629 315.056,281.258 315.044,281.247 266.128,232.331 423.758,74.713 
	435.803,86.759 435.803,86.771 460.616,111.571 "/>
<path style="fill:#E6E6E6;" d="M330.466,296.668l-15.493,15.481c-19.728,19.717-46.188,30.324-73.227,30.324
	c-10.642,0-21.376-1.636-31.821-5.013c-11.953-36.996-2.182-77.567,25.31-105.059l15.481-15.481l79.737,79.737L330.466,296.668z"/>
<path style="fill:#CCCCCC;" d="M330.466,296.668l-15.493,15.481c-19.728,19.717-64.018,39.532-105.048,25.31
	c-11.953-36.996-2.182-77.567,25.31-105.059l15.481-15.481l79.737,79.737L330.466,296.668z"/>
<path style="fill:#E6E6E6;" d="M330.454,296.657l-16.319-16.319l-15.49,15.483c-19.726,19.719-59.004,44.547-88.719,41.638
	c-1.93-26.973,14.149-61.237,41.641-88.729l15.481-15.481L330.454,296.657"/>
<path d="M502.586,141.815l-13.664-13.664l19.807-19.807c1.632-1.632,2.548-3.846,2.548-6.154s-0.917-4.522-2.548-6.154
	l-55.632-55.632c-3.4-3.399-8.91-3.399-12.309,0L420.983,60.21l-5.898-5.898c-3.4-3.399-8.91-3.399-12.309,0L229.668,227.417
	C201,256.085,190.156,297.298,200.704,336.12l-12.112,12.111c-3.4,3.399-3.4,8.91-0.001,12.309c1.7,1.7,3.927,2.55,6.155,2.55
	c2.227,0,4.455-0.849,6.154-2.55l12.111-12.111c9.771,2.655,19.692,3.968,29.529,3.968c29.243,0,57.723-11.481,79.177-32.934
	l46.894-46.894c-0.912,7.462-0.174,15.186,2.439,22.591c1.261,3.575,4.62,5.809,8.207,5.809c0.961,0,1.939-0.16,2.897-0.498
	c4.533-1.6,6.911-6.572,5.31-11.105c-5.092-14.425,0.671-30.711,13.703-38.724l95.528-58.742
	c8.429-5.183,13.925-13.79,15.079-23.616C512.932,158.46,509.582,148.812,502.586,141.815z M446.943,58.868l43.323,43.323
	l-13.653,13.651L433.29,72.519L446.943,58.868z M408.929,72.775l67.429,67.429L331.045,285.518l-67.429-67.429L408.929,72.775z
	 M217.507,331.627c-8.937-32.816,0.236-67.666,24.471-91.9l9.328-9.328l67.429,67.429l-9.329,9.329
	C285.172,331.391,250.32,340.564,217.507,331.627z M494.488,166.253c-0.529,4.503-3.047,8.446-6.91,10.82l-60.948,37.477
	l62.037-62.036l1.61,1.61C493.482,157.33,495.017,161.75,494.488,166.253z"/>
<path d="M230.304,363.79c-4.808,0-8.704,3.897-8.704,8.704v84.245H17.407V252.544h174.569c4.808,0,8.704-3.897,8.704-8.704
	s-3.896-8.704-8.704-8.704H8.704c-4.808,0-8.704,3.897-8.704,8.704v221.6c0,4.807,3.896,8.704,8.704,8.704h221.6
	c4.808,0,8.704-3.897,8.704-8.704v-92.947C239.008,367.687,235.112,363.79,230.304,363.79z"/>
<path d="M186.462,275.464c0-4.807-3.896-8.704-8.704-8.704H40.327c-4.808,0-8.704,3.897-8.704,8.704v158.355
	c0,4.807,3.896,8.704,8.704,8.704h158.353c4.808,0,8.704-3.897,8.704-8.704v-51.545c0-4.807-3.896-8.704-8.704-8.704
	c-4.808,0-8.704,3.897-8.704,8.704v42.842H49.031V284.168h128.727C182.565,284.168,186.462,280.271,186.462,275.464z"/>
<path d="M161.494,300.7l-52.176,86.518l-25.38-46.052c-2.32-4.209-7.61-5.742-11.823-3.422c-4.21,2.32-5.741,7.614-3.421,11.823
	l32.663,59.267c1.502,2.725,4.343,4.44,7.453,4.502c0.058,0.001,0.115,0.001,0.171,0.001c3.045,0,5.876-1.593,7.453-4.209
	l59.969-99.44c2.482-4.116,1.157-9.466-2.959-11.948C169.326,295.26,163.978,296.582,161.494,300.7z"/>
<g>
</g>
<g>
</g>
<g>
</g>
<g>
</g>
<g>
</g>
<g>
</g>
<g>
</g>
<g>
</g>
<g>
</g>
<g>
</g>
<g>
</g>
<g>
</g>
<g>
</g>
<g>
</g>
<g>
</g>
</svg>
