<?xml version="1.0" encoding="utf-8"?>
<svg id="master-artboard" viewBox="0 0 23.239410400390625 22.253536224365234" version="1.1" xmlns="http://www.w3.org/2000/svg" x="0px" y="0px" width="23.239410400390625px" height="22.253536224365234px" enable-background="new 0 0 1400 980"><rect id="ee-background" x="0" y="0" width="23.239410400390625" height="22.253536224365234" style="fill: white; fill-opacity: 0; pointer-events: none;"/>
















<path fill="#F04B23" d="M341.1,607.7c-15.9,0-31.9,0-47.8,0c0-15.9,0-31.9,0-47.8c0-13.5-21-13.5-21,0c0,15.9,0,31.9,0,47.8&#10;&#9;&#9;c-15.9,0-31.9,0-47.8,0c-13.5,0-13.5,21,0,21c15.9,0,31.9,0,47.8,0c0,15.9,0,31.9,0,47.8c0,13.5,21,13.5,21,0c0-15.9,0-31.9,0-47.8&#10;&#9;&#9;c15.9,0,31.9,0,47.8,0C354.7,628.7,354.7,607.7,341.1,607.7z" transform="matrix(0.11684972325743695, 0, 0, 0.11684972325743695, -21.341561555665876, -60.482945804249795)"/><path fill="#FCCBAE" d="M275.9,567.1c0.1-1.5,0.3-2.7,1.2-3.9c0.7-1,1-2.4,1.3-3.5c0.6-2.3-2.7-3.8-3.9-1.6&#10;&#9;&#9;&#9;c-0.8,1.5-1.1,3.1-0.9,4.7c0.3,1.5,0.9,3.1,1.4,4.5C275.2,567.7,275.9,567.6,275.9,567.1L275.9,567.1z" transform="matrix(0.11684972325743695, 0, 0, 0.11684972325743695, -21.341561555665876, -60.482945804249795)"/><path fill="#FCCBAE" d="M274.7,572.5c-1,5.7-1.6,12.4-0.3,18c0.4,1.5,2.7,1.5,3,0c1.2-5.7,0.4-12.4-0.8-18&#10;&#9;&#9;&#9;C276.5,571.5,274.9,571.5,274.7,572.5L274.7,572.5z" transform="matrix(0.11684972325743695, 0, 0, 0.11684972325743695, -21.341561555665876, -60.482945804249795)"/><path fill="#FCCBAE" d="M219.2,617.2C218.9,617.4,219,617.4,219.2,617.2c0.2-0.2,0.3-0.4,0.4-0.6c0.2-0.4,0.4-0.8,0.6-1.2&#10;&#9;&#9;&#9;c0.4-0.8,1.2-1.1,1.8-1.7c1.1-1.1,0.3-2.9-1.2-3c-3.1-0.1-5.4,5-2.8,6.8C218.4,617.8,219,617.6,219.2,617.2L219.2,617.2z" transform="matrix(0.11684972325743695, 0, 0, 0.11684972325743695, -21.341561555665876, -60.482945804249795)"/><path fill="#FCCBAE" d="M224.5,612c5.8,1.7,12.9,1.3,18.9,0.8c2.2-0.2,2.2-3.2,0-3.4c-6-0.5-13.1-0.9-18.9,0.8&#10;&#9;&#9;&#9;C223.6,610.4,223.6,611.8,224.5,612L224.5,612z" transform="matrix(0.11684972325743695, 0, 0, 0.11684972325743695, -21.341561555665876, -60.482945804249795)"/></svg>