<?xml version="1.0" encoding="utf-8"?>
<svg id="master-artboard" viewBox="0 0 29.589950561523438 39.022132873535156" version="1.1" xmlns="http://www.w3.org/2000/svg" x="0px" y="0px" width="29.589950561523438px" height="39.022132873535156px" enable-background="new 0 0 1400 980"><rect id="ee-background" x="0" y="0" width="29.589950561523438" height="39.022132873535156" style="fill: white; fill-opacity: 0; pointer-events: none;"/>








<path class="st5" d="M150.8,155.4c-1.6,0-3,1.3-3,2.9c0,1.6,1.3,2.9,3,2.9c1.6,0,2.9-1.3,2.9-2.9&#10;&#9;&#9;C153.7,156.7,152.4,155.4,150.8,155.4L150.8,155.4z M174.6,155.4c-1.6,0-3,1.3-3,2.9c0,1.6,1.3,2.9,3,2.9c1.6,0,2.9-1.3,2.9-2.9&#10;&#9;&#9;C177.5,156.7,176.2,155.4,174.6,155.4L174.6,155.4z M150.8,147.7c-1.6,0-3,1.3-3,2.9c0,1.6,1.3,2.9,3,2.9c1.6,0,2.9-1.3,2.9-2.9&#10;&#9;&#9;C153.7,149,152.4,147.7,150.8,147.7L150.8,147.7z M158.7,147.7c-1.6,0-3,1.3-3,2.9c0,1.6,1.3,2.9,3,2.9c1.6,0,2.9-1.3,2.9-2.9&#10;&#9;&#9;C161.6,149,160.3,147.7,158.7,147.7L158.7,147.7z M166.6,147.7c-1.6,0-3,1.3-3,2.9c0,1.6,1.3,2.9,3,2.9c1.6,0,2.9-1.3,2.9-2.9&#10;&#9;&#9;C169.6,149,168.2,147.7,166.6,147.7L166.6,147.7z M174.6,147.7c-1.6,0-3,1.3-3,2.9c0,1.6,1.3,2.9,3,2.9c1.6,0,2.9-1.3,2.9-2.9&#10;&#9;&#9;C177.5,149,176.2,147.7,174.6,147.7L174.6,147.7z M150.8,140c-1.6,0-3,1.3-3,2.9c0,1.6,1.3,2.9,3,2.9c1.6,0,2.9-1.3,2.9-2.9&#10;&#9;&#9;C153.7,141.3,152.4,140,150.8,140L150.8,140z M158.7,140c-1.6,0-3,1.3-3,2.9c0,1.6,1.3,2.9,3,2.9c1.6,0,2.9-1.3,2.9-2.9&#10;&#9;&#9;C161.6,141.3,160.3,140,158.7,140L158.7,140z M166.6,140c-1.6,0-3,1.3-3,2.9c0,1.6,1.3,2.9,3,2.9c1.6,0,2.9-1.3,2.9-2.9&#10;&#9;&#9;C169.6,141.3,168.2,140,166.6,140L166.6,140z M174.6,140c-1.6,0-3,1.3-3,2.9c0,1.6,1.3,2.9,3,2.9c1.6,0,2.9-1.3,2.9-2.9&#10;&#9;&#9;C177.5,141.3,176.2,140,174.6,140L174.6,140z M150.8,132.3c-1.6,0-3,1.3-3,2.9c0,1.6,1.3,2.9,3,2.9c1.6,0,2.9-1.3,2.9-2.9&#10;&#9;&#9;C153.7,133.6,152.4,132.3,150.8,132.3L150.8,132.3z M158.7,132.3c-1.6,0-3,1.3-3,2.9c0,1.6,1.3,2.9,3,2.9c1.6,0,2.9-1.3,2.9-2.9&#10;&#9;&#9;C161.6,133.6,160.3,132.3,158.7,132.3L158.7,132.3z M166.6,132.3c-1.6,0-3,1.3-3,2.9c0,1.6,1.3,2.9,3,2.9c1.6,0,2.9-1.3,2.9-2.9&#10;&#9;&#9;C169.6,133.6,168.2,132.3,166.6,132.3L166.6,132.3z M174.6,132.3c-1.6,0-3,1.3-3,2.9c0,1.6,1.3,2.9,3,2.9c1.6,0,2.9-1.3,2.9-2.9&#10;&#9;&#9;C177.5,133.6,176.2,132.3,174.6,132.3L174.6,132.3z M162.5,118.8c-1.6,0-2.9,1.3-2.9,2.9c0,1.6,1.3,2.9,2.9,2.9c1.6,0,3-1.3,3-2.9&#10;&#9;&#9;C165.4,120.1,164.1,118.8,162.5,118.8L162.5,118.8z M155.3,126c-1.6,0-2.9,1.3-2.9,2.9c0,1.6,1.3,2.9,2.9,2.9&#10;&#9;&#9;c1.6,0,2.9-1.3,2.9-2.9C158.3,127.3,156.9,126,155.3,126L155.3,126z M162.5,126c-1.6,0-2.9,1.3-2.9,2.9c0,1.6,1.3,2.9,2.9,2.9&#10;&#9;&#9;c1.6,0,3-1.3,3-2.9C165.4,127.3,164.1,126,162.5,126L162.5,126z M169.6,126c-1.6,0-2.9,1.3-2.9,2.9c0,1.6,1.3,2.9,2.9,2.9&#10;&#9;&#9;c1.6,0,2.9-1.3,2.9-2.9C172.6,127.3,171.3,126,169.6,126L169.6,126z M171.6,113.9c-3.2,0-5.7,2.6-5.7,5.7c0,3.2,2.6,5.7,5.7,5.7&#10;&#9;&#9;c3.2,0,5.7-2.6,5.7-5.7C177.3,116.4,174.7,113.9,171.6,113.9L171.6,113.9z M178.2,123.8c2.3,0,4.1,1.9,4.1,4.1&#10;&#9;&#9;c0,2.3-1.9,4.1-4.1,4.1c-2.3,0-4.1-1.9-4.1-4.1C174,125.6,175.9,123.8,178.2,123.8L178.2,123.8z M182.6,131c-1.4,0-2.6,1.1-2.6,2.6&#10;&#9;&#9;c0,1.4,1.1,2.6,2.6,2.6c1.4,0,2.6-1.1,2.6-2.6C185.2,132.2,184.1,131,182.6,131L182.6,131z M162.5,101c4,0,7.3,3.3,7.3,7.3&#10;&#9;&#9;c0,4-3.3,7.3-7.3,7.3s-7.3-3.3-7.3-7.3C155.2,104.3,158.4,101,162.5,101L162.5,101z M162.5,104.8l-2,2.9l-2,2.9h4.1h4.1l-2-2.9&#10;&#9;&#9;L162.5,104.8L162.5,104.8z M153.4,113.9c-3.2,0-5.7,2.6-5.7,5.7c0,3.2,2.6,5.7,5.7,5.7s5.7-2.6,5.7-5.7&#10;&#9;&#9;C159.1,116.4,156.6,113.9,153.4,113.9L153.4,113.9z M146.8,123.8c2.3,0,4.1,1.9,4.1,4.1c0,2.3-1.9,4.1-4.1,4.1&#10;&#9;&#9;c-2.3,0-4.1-1.9-4.1-4.1C142.7,125.6,144.5,123.8,146.8,123.8L146.8,123.8z M139.8,133.6c0,1.4,1.1,2.6,2.6,2.6&#10;&#9;&#9;c1.4,0,2.6-1.1,2.6-2.6c0-1.4-1.1-2.6-2.6-2.6C140.9,131,139.8,132.2,139.8,133.6z" style="fill-rule: evenodd; clip-rule: evenodd; fill: rgb(77, 122, 181);" transform="matrix(0.588777285765514, 0, 0, 0.588777285765514, -81.27047329521099, -58.04240117176516)"/></svg>