<?xml version="1.0" encoding="utf-8"?>
<svg id="master-artboard" viewBox="0 0 132.92340087890625 22.532611846923828" version="1.1" xmlns="http://www.w3.org/2000/svg" x="0px" y="0px" enable-background="new 0 0 1400 980" width="132.92340087890625px" height="22.532611846923828px"><rect id="ee-background" x="0" y="0" width="132.92340087890625" height="22.532611846923828" style="fill: white; fill-opacity: 0; pointer-events: none;"/>













<path fill="#444242" d="M54.5,879.4c4.3-10.6,12-21.2,23.3-31.8c1.1-1.1,2.5-1.7,4.3-1.7c1.8,0,3.3,0.5,4.7,1.6c1.3,1,2,2.4,2,4&#10;&#9;c0,1.6-0.6,3.1-1.9,4.3c-9.8,9.3-16.5,18.5-20.1,27.5c-0.7,1.6-1.9,2.7-3.5,3.4c-1.6,0.6-3.3,0.7-5,0.1c-1.7-0.6-2.9-1.6-3.6-3&#10;&#9;C54,882.3,53.9,880.8,54.5,879.4z M94.9,831.4c8.7-8.2,16.2-14.4,22.5-18.6c1.4-1,3-1.3,4.7-1.1c1.7,0.2,3.1,1,4.1,2.3&#10;&#9;c1.1,1.3,1.5,2.7,1.2,4.2c-0.3,1.5-1.1,2.8-2.5,3.7c-5.5,3.9-12.5,9.7-20.9,17.6c-1.3,1.1-2.7,1.7-4.4,1.7c-1.7,0-3.2-0.6-4.6-1.7&#10;&#9;c-1.3-1.1-2-2.5-2-4C93,834.1,93.6,832.7,94.9,831.4z M136.1,800.1c12.9-8.5,21-14,24.4-16.4c1.4-1,3-1.4,4.8-1.2&#10;&#9;c1.8,0.2,3.2,0.9,4.3,2.2c1.1,1.3,1.5,2.7,1.3,4.3c-0.2,1.6-1,2.9-2.4,3.9c-3.6,2.6-11.9,8-24.9,16.4c-1.4,1-3,1.3-4.8,1.1&#10;&#9;c-1.8-0.2-3.2-1-4.1-2.3c-1-1.3-1.3-2.7-1.1-4.3C133.8,802.1,134.7,800.9,136.1,800.1z M179,772.6c9.3-6.3,16.4-10.8,21.4-13.5&#10;&#9;c1.4-0.8,3-1,4.8-0.6c1.8,0.4,3.1,1.3,4,2.7c0.9,1.4,1.1,2.9,0.7,4.5c-0.4,1.6-1.5,2.8-3.1,3.6c-4.8,2.6-11.6,6.8-20.3,12.5&#10;&#9;c-1.4,1-3,1.3-4.7,1.1c-1.7-0.2-3.1-1-4.2-2.3c-1.1-1.3-1.5-2.7-1.2-4.2C176.7,774.8,177.5,773.5,179,772.6z M221.3,747.7&#10;&#9;c3.9-1.6,11-5.1,21.2-10.4c1.6-0.8,3.3-1,5-0.6c1.7,0.4,3,1.3,3.9,2.8c0.9,1.4,1.1,2.9,0.7,4.5c-0.4,1.5-1.5,2.7-3.1,3.5&#10;&#9;c-10.5,5.5-17.9,9.1-22.2,10.8c-1.6,0.6-3.3,0.7-5,0.1c-1.7-0.6-2.9-1.6-3.6-3c-0.7-1.4-0.8-2.9-0.1-4.5&#10;&#9;C218.5,749.5,219.7,748.4,221.3,747.7z M278.6,697.8c0.7,0.2,6.7,0.5,17.9,1c4.5,0.3,7.9,0.6,10.4,1c4.3,0.5,7.4,1.3,9.4,2.4&#10;&#9;c5,3.2,7.2,7.1,6.7,11.6l-0.8,1.9c0,0.2,0,0.3-0.1,0.5c-0.1,0.2-0.2,0.3-0.4,0.5l-1.1,1.4l-3.5,4.6l-10.7,14&#10;&#9;c-10.7,14-16.7,22.3-17.9,24.8c-0.7,1.4-1.9,2.5-3.6,3c-1.7,0.6-3.3,0.5-5-0.1c-1.6-0.6-2.7-1.7-3.3-3.3c-0.6-1.5-0.6-3,0.1-4.5&#10;&#9;c1.8-3.5,8.1-12.5,19-26.8l1.3-1.7c-0.2,0.2-0.4,0.2-0.5,0.2c-3.4,1-7.9,2.5-13.7,4.6l-14.5,5.5c-1.6,0.5-3.2,0.4-4.8-0.2&#10;&#9;c-1.6-0.6-2.7-1.7-3.3-3.3c-0.6-1.5-0.6-3,0.1-4.5c0.7-1.4,2-2.5,3.7-3.1c2.1-0.6,6.7-2.3,13.7-5.1c6.1-2.2,11.1-3.9,15-5.1&#10;&#9;c1.8-0.5,3.4-0.3,5,0.5c1.5,0.8,2.5,1.9,3.1,3.4c0.2,0.6,0.3,1.3,0.3,1.9l5.4-7l3.5-4.6h0.3c-0.4-0.5-0.8-0.4-1.3,0.2l-1.3-0.5&#10;&#9;c-0.9,0-1.6-0.1-2.1-0.2c-2.3-0.3-5.5-0.6-9.6-0.7c-11.8-0.5-18.2-0.8-19.3-1c-1.8-0.3-3.2-1.1-4.1-2.4c-1-1.3-1.3-2.7-1.1-4.3&#10;&#9;c0.3-1.6,1.1-2.9,2.5-3.7C275.2,698,276.8,697.7,278.6,697.8z" transform="matrix(0.2683330178260803, 0.17328245937824252, -0.17328245937824252, 0.2683330178260803, 157.04055207528432, -233.96945719656762)"/></svg>