<?xml version="1.0" encoding="utf-8"?>
<svg id="master-artboard" viewBox="0 0 31.340938568115234 38.96043395996094" version="1.1" xmlns="http://www.w3.org/2000/svg" x="0px" y="0px" width="31.340938568115234px" height="38.96043395996094px" enable-background="new 0 0 1400 980"><rect id="ee-background" x="0" y="0" width="31.340938568115234" height="38.96043395996094" style="fill: white; fill-opacity: 0; pointer-events: none;"/>

<path class="st4" d="M150.8,215.8c-1.6,0-3-1.3-3-2.9c0-1.6,1.3-2.9,3-2.9c1.6,0,2.9,1.3,2.9,2.9&#10;&#9;&#9;C153.7,214.5,152.4,215.8,150.8,215.8L150.8,215.8z M174.6,215.8c-1.6,0-3-1.3-3-2.9c0-1.6,1.3-2.9,3-2.9c1.6,0,2.9,1.3,2.9,2.9&#10;&#9;&#9;C177.5,214.5,176.2,215.8,174.6,215.8L174.6,215.8z M150.8,223.5c-1.6,0-3-1.3-3-2.9c0-1.6,1.3-2.9,3-2.9c1.6,0,2.9,1.3,2.9,2.9&#10;&#9;&#9;C153.7,222.2,152.4,223.5,150.8,223.5L150.8,223.5z M158.7,223.5c-1.6,0-3-1.3-3-2.9c0-1.6,1.3-2.9,3-2.9c1.6,0,2.9,1.3,2.9,2.9&#10;&#9;&#9;C161.6,222.2,160.3,223.5,158.7,223.5L158.7,223.5z M166.6,223.5c-1.6,0-3-1.3-3-2.9c0-1.6,1.3-2.9,3-2.9c1.6,0,2.9,1.3,2.9,2.9&#10;&#9;&#9;C169.6,222.2,168.2,223.5,166.6,223.5L166.6,223.5z M174.6,223.5c-1.6,0-3-1.3-3-2.9c0-1.6,1.3-2.9,3-2.9c1.6,0,2.9,1.3,2.9,2.9&#10;&#9;&#9;C177.5,222.2,176.2,223.5,174.6,223.5L174.6,223.5z M150.8,231.2c-1.6,0-3-1.3-3-2.9c0-1.6,1.3-2.9,3-2.9c1.6,0,2.9,1.3,2.9,2.9&#10;&#9;&#9;C153.7,229.9,152.4,231.2,150.8,231.2L150.8,231.2z M158.7,231.2c-1.6,0-3-1.3-3-2.9c0-1.6,1.3-2.9,3-2.9c1.6,0,2.9,1.3,2.9,2.9&#10;&#9;&#9;C161.6,229.9,160.3,231.2,158.7,231.2L158.7,231.2z M166.6,231.2c-1.6,0-3-1.3-3-2.9c0-1.6,1.3-2.9,3-2.9c1.6,0,2.9,1.3,2.9,2.9&#10;&#9;&#9;C169.6,229.9,168.2,231.2,166.6,231.2L166.6,231.2z M174.6,231.2c-1.6,0-3-1.3-3-2.9c0-1.6,1.3-2.9,3-2.9c1.6,0,2.9,1.3,2.9,2.9&#10;&#9;&#9;C177.5,229.9,176.2,231.2,174.6,231.2L174.6,231.2z M150.8,239c-1.6,0-3-1.3-3-2.9c0-1.6,1.3-2.9,3-2.9c1.6,0,2.9,1.3,2.9,2.9&#10;&#9;&#9;C153.7,237.6,152.4,239,150.8,239L150.8,239z M158.7,239c-1.6,0-3-1.3-3-2.9c0-1.6,1.3-2.9,3-2.9c1.6,0,2.9,1.3,2.9,2.9&#10;&#9;&#9;C161.6,237.6,160.3,239,158.7,239L158.7,239z M166.6,239c-1.6,0-3-1.3-3-2.9c0-1.6,1.3-2.9,3-2.9c1.6,0,2.9,1.3,2.9,2.9&#10;&#9;&#9;C169.6,237.6,168.2,239,166.6,239L166.6,239z M174.6,239c-1.6,0-3-1.3-3-2.9c0-1.6,1.3-2.9,3-2.9c1.6,0,2.9,1.3,2.9,2.9&#10;&#9;&#9;C177.5,237.6,176.2,239,174.6,239L174.6,239z M162.5,252.5c-1.6,0-2.9-1.3-2.9-2.9s1.3-2.9,2.9-2.9c1.6,0,3,1.3,3,2.9&#10;&#9;&#9;S164.1,252.5,162.5,252.5L162.5,252.5z M155.3,245.3c-1.6,0-2.9-1.3-2.9-2.9c0-1.6,1.3-2.9,2.9-2.9c1.6,0,2.9,1.3,2.9,2.9&#10;&#9;&#9;C158.3,243.9,156.9,245.3,155.3,245.3L155.3,245.3z M162.5,245.3c-1.6,0-2.9-1.3-2.9-2.9c0-1.6,1.3-2.9,2.9-2.9c1.6,0,3,1.3,3,2.9&#10;&#9;&#9;C165.4,243.9,164.1,245.3,162.5,245.3L162.5,245.3z M169.6,245.3c-1.6,0-2.9-1.3-2.9-2.9c0-1.6,1.3-2.9,2.9-2.9&#10;&#9;&#9;c1.6,0,2.9,1.3,2.9,2.9C172.6,243.9,171.3,245.3,169.6,245.3L169.6,245.3z M171.6,257.4c-3.2,0-5.7-2.6-5.7-5.7&#10;&#9;&#9;c0-3.2,2.6-5.7,5.7-5.7c3.2,0,5.7,2.6,5.7,5.7C177.3,254.8,174.7,257.4,171.6,257.4L171.6,257.4z M178.2,247.5&#10;&#9;&#9;c2.3,0,4.1-1.9,4.1-4.1c0-2.3-1.9-4.1-4.1-4.1c-2.3,0-4.1,1.9-4.1,4.1C174,245.6,175.9,247.5,178.2,247.5L178.2,247.5z&#10;&#9;&#9; M182.6,240.2c-1.4,0-2.6-1.1-2.6-2.6c0-1.4,1.1-2.6,2.6-2.6c1.4,0,2.6,1.1,2.6,2.6C185.2,239.1,184.1,240.2,182.6,240.2&#10;&#9;&#9;L182.6,240.2z M162.5,270.2c4,0,7.3-3.3,7.3-7.3c0-4-3.3-7.3-7.3-7.3s-7.3,3.3-7.3,7.3C155.2,266.9,158.4,270.2,162.5,270.2&#10;&#9;&#9;L162.5,270.2z M162.5,266.4l-2-2.9l-2-2.9h4.1h4.1l-2,2.9L162.5,266.4L162.5,266.4z M153.4,257.4c-3.2,0-5.7-2.6-5.7-5.7&#10;&#9;&#9;c0-3.2,2.6-5.7,5.7-5.7s5.7,2.6,5.7,5.7C159.1,254.8,156.6,257.4,153.4,257.4L153.4,257.4z M146.8,247.5c2.3,0,4.1-1.9,4.1-4.1&#10;&#9;&#9;c0-2.3-1.9-4.1-4.1-4.1c-2.3,0-4.1,1.9-4.1,4.1C142.7,245.6,144.5,247.5,146.8,247.5L146.8,247.5z M139.8,237.7&#10;&#9;&#9;c0-1.4,1.1-2.6,2.6-2.6c1.4,0,2.6,1.1,2.6,2.6c0,1.4-1.1,2.6-2.6,2.6C140.9,240.2,139.8,239.1,139.8,237.7z" style="fill-rule: evenodd; clip-rule: evenodd; fill: rgb(95, 197, 230);" transform="matrix(0.5387658173705354, 0, 0, 0.5387658173705354, -71.59767641356021, -108.14206583064046)"/></svg>