<?xml version="1.0" encoding="utf-8"?>
<svg id="master-artboard" viewBox="0 0 52.88222885131836 34.809112548828125" version="1.1" xmlns="http://www.w3.org/2000/svg" x="0px" y="0px" style="enable-background:new 0 0 1400 980;" width="52.88222885131836px" height="34.809112548828125px" xmlns:xlink="http://www.w3.org/1999/xlink"><rect id="ee-background" x="0" y="0" width="52.88222885131836" height="34.809112548828125" style="fill: white; fill-opacity: 0; pointer-events: none;"/>

<defs style="opacity: 0.2;">
			<path d="M 219.199997 93.199997 H 258.099998 V 263.599991 H 219.199997 V 93.199997 Z" id="SVGID_3_" class="st28" style="opacity: 0.2;"/>
		</defs><clipPath id="SVGID_4_" style="opacity: 0.2;">
			<use style="overflow:visible;" xlink:href="#SVGID_3_"/>
		</clipPath>
<g transform="matrix(0.28211015462875366, 0, 0, 0.28211015462875366, -3.563078284263611, -1.8658075332641602)"><g transform="matrix(1, 0, 0, 1, 0, 0)"><g class="st0" transform="matrix(0.6520299315452576, 0, 0, 0.6520299315452576, -468.50299072265625, -75.51947784423828)" style="opacity: 0.3;">
		<defs>
			<path d="M 735.200012 228.800003 H 1024.100006 V 267.700005 H 735.200012 V 228.800003 Z" id="SVGID_5_" class="st0" style="opacity: 0.3;"/>
		</defs>
		<clipPath id="SVGID_6_">
			<use style="overflow:visible;" xlink:href="#SVGID_5_"/>
		</clipPath>
		<g class="st32" style="clip-path: url('#SVGID_6_');">
			<g>
				<g>
					<g>
						<path class="st2" d="M1024.1,267.7c0,0-64.7,33.8-144.5,33.8c-79.8,0-144.5-33.8-144.5-33.8S799.8,234,879.6,234&#10;&#9;&#9;&#9;&#9;&#9;&#9;&#9;C959.4,234,1024.1,267.7,1024.1,267.7z" style="opacity: 0;"/>
						<path class="st3" d="M879.6,300.4c-38.7,0-73.7-8.1-99.2-16.3c-12.7-4.1-23.1-8.1-30.2-11.2c-3.6-1.5-6.4-2.8-8.3-3.7&#10;&#9;&#9;&#9;&#9;&#9;&#9;&#9;c-1.9-0.9-3-1.4-3-1.4c0.1,0,1.1-0.5,3-1.4c1.9-0.9,4.7-2.2,8.3-3.7c7.2-3.1,17.5-7.1,30.2-11.2c25.5-8.1,60.5-16.3,99.2-16.3&#10;&#9;&#9;&#9;&#9;&#9;&#9;&#9;c38.7,0,73.7,8.1,99.2,16.3c12.7,4.1,23.1,8.1,30.2,11.2c3.6,1.5,6.4,2.8,8.3,3.7c1.9,0.9,3,1.4,3,1.4c-0.1,0-1.1,0.5-3,1.4&#10;&#9;&#9;&#9;&#9;&#9;&#9;&#9;c-1.9,0.9-4.7,2.2-8.3,3.7c-7.2,3.1-17.5,7.1-30.2,11.2C953.3,292.2,918.3,300.4,879.6,300.4z" style="opacity: 0.038461;"/>
						<path class="st4" d="M879.6,299.2c-37.5,0-71.5-7.8-96.2-15.7c-12.4-3.9-22.5-7.8-29.5-10.8c-7.1-3-11.1-4.9-11.4-5&#10;&#9;&#9;&#9;&#9;&#9;&#9;&#9;c0.3,0,4.3-2,11.4-5c7.1-3,17.1-6.9,29.5-10.8c24.8-7.8,58.7-15.7,96.2-15.7c37.5,0,71.5,7.8,96.2,15.7&#10;&#9;&#9;&#9;&#9;&#9;&#9;&#9;c12.4,3.9,22.5,7.9,29.5,10.8c7.1,3,11.1,5,11.4,5c-0.3,0-4.3,2-11.4,5c-7.1,3-17.1,6.9-29.5,10.8&#10;&#9;&#9;&#9;&#9;&#9;&#9;&#9;C951.1,291.4,917.1,299.2,879.6,299.2z" style="opacity: 0.076923;"/>
						<path class="st5" d="M879.6,298.1c-36.3,0-69.2-7.5-93.3-15c-24.1-7.5-39.3-15.1-40.2-15.3c0.9-0.1,16.1-7.7,40.2-15.3&#10;&#9;&#9;&#9;&#9;&#9;&#9;&#9;c24.1-7.5,57-15.1,93.3-15.1c36.3,0,69.2,7.5,93.3,15.1c24.1,7.5,39.3,15.1,40.2,15.3c-0.9,0.1-16.1,7.7-40.2,15.3&#10;&#9;&#9;&#9;&#9;&#9;&#9;&#9;C948.8,290.5,915.9,298.1,879.6,298.1z" style="opacity: 0.1154;"/>
						<path class="st6" d="M879.6,296.9c-35.1,0-66.9-7.2-90.3-14.5c-23.4-7.2-38.3-14.5-39.5-14.7c1.2-0.2,16.1-7.5,39.5-14.7&#10;&#9;&#9;&#9;&#9;&#9;&#9;&#9;c23.4-7.2,55.2-14.4,90.3-14.4c35.1,0,66.9,7.2,90.3,14.4c23.4,7.2,38.3,14.5,39.5,14.7c-1.2,0.2-16.1,7.5-39.5,14.7&#10;&#9;&#9;&#9;&#9;&#9;&#9;&#9;C946.5,289.7,914.7,296.9,879.6,296.9z" style="opacity: 0.1538;"/>
						<path class="st7" d="M879.6,295.8c-67.7,0-123.2-27.6-126.1-28c2.9-0.5,58.4-28,126.1-28c67.7,0,123.2,27.6,126.1,28&#10;&#9;&#9;&#9;&#9;&#9;&#9;&#9;C1002.7,268.2,947.3,295.8,879.6,295.8z" style="opacity: 0.1923;"/>
						<path class="st8" d="M879.6,294.6c-65.3,0-118.9-26.3-122.4-26.9c3.5-0.6,57.1-26.9,122.4-26.9s118.9,26.3,122.4,26.9&#10;&#9;&#9;&#9;&#9;&#9;&#9;&#9;C998.5,268.3,944.9,294.6,879.6,294.6z" style="opacity: 0.2308;"/>
						<path class="st9" d="M879.6,293.5c-62.9,0-114.6-25.1-118.7-25.7c4.1-0.7,55.8-25.8,118.7-25.8c62.9,0,114.6,25.1,118.7,25.8&#10;&#9;&#9;&#9;&#9;&#9;&#9;&#9;C994.2,268.4,942.5,293.5,879.6,293.5z" style="opacity: 0.2692;"/>
						<path class="st10" d="M879.6,292.4c-60.5,0-110.4-23.9-115.1-24.6c4.7-0.8,54.6-24.6,115.1-24.6c60.5,0,110.4,23.8,115.1,24.6&#10;&#9;&#9;&#9;&#9;&#9;&#9;&#9;C989.9,268.5,940.1,292.4,879.6,292.4z" style="opacity: 0.3077;"/>
						<path class="st11" d="M879.6,291.2c-58.1,0-106.1-22.6-111.4-23.5c5.3-0.9,53.3-23.5,111.4-23.5c58.1,0,106.1,22.6,111.4,23.5&#10;&#9;&#9;&#9;&#9;&#9;&#9;&#9;C985.7,268.6,937.7,291.2,879.6,291.2z" style="opacity: 0.3462;"/>
						<path class="st12" d="M879.6,290.1c-55.7,0-101.8-21.4-107.7-22.3c5.9-1,52-22.3,107.7-22.3c55.7,0,101.8,21.4,107.7,22.3&#10;&#9;&#9;&#9;&#9;&#9;&#9;&#9;C981.4,268.7,935.3,290.1,879.6,290.1z" style="opacity: 0.3846;"/>
						<path class="st13" d="M879.6,288.9c-53.3,0-97.6-20.1-104-21.2c6.5-1,50.8-21.2,104-21.2c53.3,0,97.6,20.1,104,21.2&#10;&#9;&#9;&#9;&#9;&#9;&#9;&#9;C977.1,268.8,932.9,288.9,879.6,288.9z" style="opacity: 0.4231;"/>
						<path class="st14" d="M879.6,287.8c-50.9,0-93.3-18.9-100.4-20c7.1-1.1,49.5-20,100.4-20c50.9,0,93.3,18.9,100.4,20&#10;&#9;&#9;&#9;&#9;&#9;&#9;&#9;C972.9,268.9,930.5,287.8,879.6,287.8z" style="opacity: 0.4615;"/>
						<path class="st15" d="M879.6,286.6c-48.5,0-89-17.7-96.7-18.9c7.6-1.2,48.2-18.9,96.7-18.9c48.5,0,89,17.7,96.7,18.9&#10;&#9;&#9;&#9;&#9;&#9;&#9;&#9;C968.6,269,928,286.6,879.6,286.6z" style="opacity: 0.5;"/>
						<path class="st16" d="M879.6,285.5c-46,0-84.8-16.4-93-17.8c8.2-1.3,47-17.8,93-17.8c46,0,84.8,16.4,93,17.8&#10;&#9;&#9;&#9;&#9;&#9;&#9;&#9;C964.4,269.1,925.6,285.5,879.6,285.5z" style="opacity: 0.5385;"/>
						<path class="st17" d="M879.6,284.3c-43.6,0-80.5-15.2-89.3-16.6c8.8-1.4,45.7-16.6,89.3-16.6c43.6,0,80.5,15.2,89.3,16.6&#10;&#9;&#9;&#9;&#9;&#9;&#9;&#9;C960.1,269.2,923.2,284.3,879.6,284.3z" style="opacity: 0.5769;"/>
						<path class="st18" d="M879.6,283.2c-41.2,0-76.2-14-85.7-15.5c9.4-1.5,44.4-15.5,85.7-15.5c41.2,0,76.2,14,85.7,15.5&#10;&#9;&#9;&#9;&#9;&#9;&#9;&#9;C955.8,269.3,920.8,283.2,879.6,283.2z" style="opacity: 0.6154;"/>
						<path class="st19" d="M879.6,282.1c-38.8,0-72-12.7-82-14.3c10-1.6,43.2-14.3,82-14.3c38.8,0,72,12.7,82,14.3&#10;&#9;&#9;&#9;&#9;&#9;&#9;&#9;C951.6,269.3,918.4,282.1,879.6,282.1z" style="opacity: 0.6538;"/>
						<path class="st20" d="M879.6,280.9c-36.4,0-67.7-11.5-78.3-13.2c10.6-1.7,41.9-13.2,78.3-13.2s67.7,11.5,78.3,13.2&#10;&#9;&#9;&#9;&#9;&#9;&#9;&#9;C947.3,269.5,916,280.9,879.6,280.9z" style="opacity: 0.6923;"/>
						<path class="st21" d="M879.6,279.8c-34,0-63.5-10.3-74.6-12.1c11.2-1.8,40.6-12.1,74.6-12.1c34,0,63.5,10.3,74.6,12.1&#10;&#9;&#9;&#9;&#9;&#9;&#9;&#9;C943,269.5,913.6,279.8,879.6,279.8z" style="opacity: 0.7308;"/>
						<path class="st22" d="M879.6,278.6c-31.6,0-59.2-9-71-10.9c11.8-1.9,39.4-10.9,71-10.9c31.6,0,59.2,9,71,10.9&#10;&#9;&#9;&#9;&#9;&#9;&#9;&#9;C938.8,269.6,911.2,278.6,879.6,278.6z" style="opacity: 0.7692;"/>
						<path class="st23" d="M879.6,277.5c-29.2,0-54.9-7.8-67.3-9.7c12.4-2,38.1-9.8,67.3-9.8c29.2,0,54.9,7.8,67.3,9.8&#10;&#9;&#9;&#9;&#9;&#9;&#9;&#9;C934.5,269.7,908.8,277.5,879.6,277.5z" style="opacity: 0.8077;"/>
						<path class="st24" d="M879.6,276.4c-26.8,0-50.7-6.5-63.6-8.6c12.9-2.1,36.8-8.6,63.6-8.6s50.7,6.5,63.6,8.6&#10;&#9;&#9;&#9;&#9;&#9;&#9;&#9;C930.2,269.8,906.4,276.4,879.6,276.4z" style="opacity: 0.8462;"/>
						<path class="st25" d="M879.6,275.2c-24.4,0-46.4-5.3-59.9-7.5c13.5-2.2,35.6-7.5,59.9-7.5s46.4,5.3,59.9,7.5&#10;&#9;&#9;&#9;&#9;&#9;&#9;&#9;C926,269.9,903.9,275.2,879.6,275.2z" style="opacity: 0.8846;"/>
						<path class="st26" d="M879.6,274.1c-21.9,0-42.1-4-56.2-6.3c14.1-2.3,34.3-6.3,56.2-6.3c21.9,0,42.1,4.1,56.2,6.3&#10;&#9;&#9;&#9;&#9;&#9;&#9;&#9;C921.7,270,901.5,274.1,879.6,274.1z" style="opacity: 0.9231;"/>
						<path class="st27" d="M879.6,272.9c-19.5,0-37.9-2.8-52.6-5.2c14.7-2.4,33-5.2,52.6-5.2c19.5,0,37.9,2.8,52.6,5.2&#10;&#9;&#9;&#9;&#9;&#9;&#9;&#9;C917.5,270.1,899.1,272.9,879.6,272.9z" style="opacity: 0.9615;"/>
						<path d="M879.6,271.8c-17.1,0-33.6-1.6-48.9-4c15.3-2.5,31.8-4.1,48.9-4.1c17.1,0,33.6,1.6,48.9,4.1&#10;&#9;&#9;&#9;&#9;&#9;&#9;&#9;C913.2,270.2,896.7,271.8,879.6,271.8z"/>
					</g>
				</g>
			</g>
		</g>
	</g><g transform="matrix(0.6520299315452576, 0, 0, 0.6520299315452576, -468.50299072265625, -75.51947784423828)" style="clip-path: url('#SVGID_8_'); opacity: 0.2;">
				<g>
					<g>
						<path class="st2" d="M979.3,278.7c0,0-38.1,33.8-85.2,33.8c-47,0-85.2-33.8-85.2-33.8s38.1-33.8,85.2-33.8&#10;&#9;&#9;&#9;&#9;&#9;&#9;&#9;C941.2,245,979.3,278.7,979.3,278.7z" style="opacity: 0;"/>
						<path class="st3" d="M894.1,311.3c-22.8,0-43.5-8.1-58.5-16.3c-7.5-4.1-13.6-8.1-17.8-11.2c-2.1-1.5-3.8-2.8-4.9-3.7&#10;&#9;&#9;&#9;&#9;&#9;&#9;&#9;c-0.6-0.5-1-0.8-1.3-1c-0.3-0.2-0.5-0.4-0.5-0.4c0,0,0.2-0.1,0.5-0.4c0.3-0.2,0.7-0.6,1.3-1c1.1-0.9,2.8-2.2,4.9-3.7&#10;&#9;&#9;&#9;&#9;&#9;&#9;&#9;c4.2-3.1,10.3-7.1,17.8-11.2c15-8.1,35.7-16.3,58.5-16.3c22.8,0,43.5,8.1,58.5,16.3c7.5,4.1,13.6,8.1,17.8,11.2&#10;&#9;&#9;&#9;&#9;&#9;&#9;&#9;c2.1,1.5,3.8,2.8,4.9,3.7c0.6,0.5,1,0.8,1.3,1c0.3,0.2,0.5,0.4,0.5,0.4c0,0-0.2,0.1-0.5,0.4c-0.3,0.2-0.7,0.6-1.3,1&#10;&#9;&#9;&#9;&#9;&#9;&#9;&#9;c-1.1,0.9-2.8,2.2-4.9,3.7c-4.2,3.1-10.3,7.1-17.8,11.2C937.6,303.2,916.9,311.3,894.1,311.3z" style="opacity: 0.038461;"/>
						<path class="st4" d="M894.1,310.2c-22.1,0-42.1-7.8-56.7-15.7c-7.3-3.9-13.2-7.8-17.4-10.8c-4.2-3-6.5-4.9-6.7-5&#10;&#9;&#9;&#9;&#9;&#9;&#9;&#9;c0.2,0,2.6-2,6.7-5c4.2-3,10.1-6.9,17.4-10.8c14.6-7.8,34.6-15.7,56.7-15.7c22.1,0,42.1,7.8,56.7,15.7&#10;&#9;&#9;&#9;&#9;&#9;&#9;&#9;c7.3,3.9,13.2,7.9,17.4,10.8c4.2,3,6.5,5,6.7,5c-0.2,0-2.6,2-6.7,5c-4.2,3-10.1,6.9-17.4,10.8&#10;&#9;&#9;&#9;&#9;&#9;&#9;&#9;C936.3,302.3,916.2,310.2,894.1,310.2z" style="opacity: 0.076923;"/>
						<path class="st5" d="M894.1,309c-21.4,0-40.8-7.5-55-15c-7.1-3.8-12.9-7.6-17-10.4c-4.1-2.9-6.5-4.8-6.7-4.9&#10;&#9;&#9;&#9;&#9;&#9;&#9;&#9;c0.3-0.1,2.6-2,6.7-4.9c4.1-2.9,9.9-6.6,17-10.4c14.2-7.5,33.6-15.1,55-15.1c21.4,0,40.8,7.5,55,15.1&#10;&#9;&#9;&#9;&#9;&#9;&#9;&#9;c7.1,3.8,12.9,7.6,17,10.4c4.1,2.9,6.5,4.8,6.7,4.9c-0.3,0.1-2.6,2-6.7,4.9c-4.1,2.9-9.9,6.6-17,10.4&#10;&#9;&#9;&#9;&#9;&#9;&#9;&#9;C934.9,301.5,915.5,309,894.1,309z" style="opacity: 0.1154;"/>
						<path class="st6" d="M894.1,307.9c-20.7,0-39.5-7.2-53.2-14.5c-13.8-7.2-22.6-14.5-23.3-14.7c0.7-0.2,9.5-7.5,23.3-14.7&#10;&#9;&#9;&#9;&#9;&#9;&#9;&#9;c13.8-7.2,32.6-14.4,53.2-14.4c20.7,0,39.5,7.2,53.3,14.4c13.8,7.2,22.6,14.5,23.3,14.7c-0.7,0.2-9.5,7.5-23.3,14.7&#10;&#9;&#9;&#9;&#9;&#9;&#9;&#9;C933.6,300.7,914.8,307.9,894.1,307.9z" style="opacity: 0.1538;"/>
						<path class="st7" d="M894.1,306.7c-39.9,0-72.6-27.6-74.4-28c1.7-0.5,34.4-28,74.4-28c39.9,0,72.6,27.6,74.4,28&#10;&#9;&#9;&#9;&#9;&#9;&#9;&#9;C966.7,279.2,934.1,306.7,894.1,306.7z" style="opacity: 0.1923;"/>
						<path class="st8" d="M894.1,305.6c-38.5,0-70.1-26.3-72.2-26.9c2.1-0.6,33.7-26.9,72.2-26.9c38.5,0,70.1,26.3,72.2,26.9&#10;&#9;&#9;&#9;&#9;&#9;&#9;&#9;C964.2,279.3,932.6,305.6,894.1,305.6z" style="opacity: 0.2308;"/>
						<path class="st9" d="M894.1,304.5c-37.1,0-67.6-25.1-70-25.7c2.4-0.7,32.9-25.8,70-25.8c37.1,0,67.6,25.1,70,25.8&#10;&#9;&#9;&#9;&#9;&#9;&#9;&#9;C961.7,279.4,931.2,304.5,894.1,304.5z" style="opacity: 0.2692;"/>
						<path class="st10" d="M894.1,303.3c-35.7,0-65.1-23.9-67.8-24.6c2.8-0.8,32.2-24.6,67.8-24.6c35.7,0,65.1,23.8,67.8,24.6&#10;&#9;&#9;&#9;&#9;&#9;&#9;&#9;C959.2,279.5,929.8,303.3,894.1,303.3z" style="opacity: 0.3077;"/>
						<path class="st11" d="M894.1,302.2c-34.3,0-62.6-22.6-65.7-23.5c3.1-0.9,31.4-23.5,65.7-23.5c34.3,0,62.6,22.6,65.7,23.5&#10;&#9;&#9;&#9;&#9;&#9;&#9;&#9;C956.7,279.6,928.4,302.2,894.1,302.2z" style="opacity: 0.3462;"/>
						<path class="st12" d="M894.1,301c-32.8,0-60-21.4-63.5-22.3c3.5-1,30.7-22.3,63.5-22.3c32.8,0,60,21.4,63.5,22.3&#10;&#9;&#9;&#9;&#9;&#9;&#9;&#9;C954.2,279.7,926.9,301,894.1,301z" style="opacity: 0.3846;"/>
						<path class="st13" d="M894.1,299.9c-31.4,0-57.5-20.1-61.3-21.2c3.8-1,29.9-21.2,61.3-21.2s57.5,20.1,61.3,21.2&#10;&#9;&#9;&#9;&#9;&#9;&#9;&#9;C951.6,279.7,925.5,299.9,894.1,299.9z" style="opacity: 0.4231;"/>
						<path class="st14" d="M894.1,298.7c-30,0-55-18.9-59.2-20c4.2-1.1,29.2-20,59.2-20c30,0,55,18.9,59.2,20&#10;&#9;&#9;&#9;&#9;&#9;&#9;&#9;C949.1,279.8,924.1,298.7,894.1,298.7z" style="opacity: 0.4615;"/>
						<path class="st15" d="M894.1,297.6c-28.6,0-52.5-17.7-57-18.9c4.5-1.2,28.4-18.9,57-18.9c28.6,0,52.5,17.7,57,18.9&#10;&#9;&#9;&#9;&#9;&#9;&#9;&#9;C946.6,279.9,922.7,297.6,894.1,297.6z" style="opacity: 0.5;"/>
						<path class="st16" d="M894.1,296.5c-27.2,0-50-16.4-54.8-17.8c4.9-1.3,27.7-17.8,54.8-17.8c27.2,0,50,16.4,54.8,17.8&#10;&#9;&#9;&#9;&#9;&#9;&#9;&#9;C944.1,280,921.3,296.5,894.1,296.5z" style="opacity: 0.5385;"/>
						<path class="st17" d="M894.1,295.3c-25.7,0-47.5-15.2-52.7-16.6c5.2-1.4,26.9-16.6,52.7-16.6c25.7,0,47.5,15.2,52.7,16.6&#10;&#9;&#9;&#9;&#9;&#9;&#9;&#9;C941.6,280.1,919.8,295.3,894.1,295.3z" style="opacity: 0.5769;"/>
						<path class="st18" d="M894.1,294.2c-24.3,0-45-14-50.5-15.5c5.6-1.5,26.2-15.5,50.5-15.5c24.3,0,45,14,50.5,15.5&#10;&#9;&#9;&#9;&#9;&#9;&#9;&#9;C939.1,280.2,918.4,294.2,894.1,294.2z" style="opacity: 0.6154;"/>
						<path class="st19" d="M894.1,293c-22.9,0-42.4-12.7-48.3-14.3c5.9-1.6,25.5-14.3,48.3-14.3c22.9,0,42.4,12.7,48.3,14.3&#10;&#9;&#9;&#9;&#9;&#9;&#9;&#9;C936.6,280.3,917,293,894.1,293z" style="opacity: 0.6538;"/>
						<path class="st20" d="M894.1,291.9c-21.5,0-39.9-11.5-46.2-13.2c6.2-1.7,24.7-13.2,46.2-13.2c21.5,0,39.9,11.5,46.2,13.2&#10;&#9;&#9;&#9;&#9;&#9;&#9;&#9;C934,280.4,915.6,291.9,894.1,291.9z" style="opacity: 0.6923;"/>
						<path class="st21" d="M894.1,290.8c-20,0-37.4-10.3-44-12.1c6.6-1.8,24-12.1,44-12.1c20,0,37.4,10.3,44,12.1&#10;&#9;&#9;&#9;&#9;&#9;&#9;&#9;C931.5,280.5,914.2,290.8,894.1,290.8z" style="opacity: 0.7308;"/>
						<path class="st22" d="M894.1,289.6c-18.6,0-34.9-9-41.8-10.9c6.9-1.9,23.2-10.9,41.8-10.9c18.6,0,34.9,9,41.8,10.9&#10;&#9;&#9;&#9;&#9;&#9;&#9;&#9;C929,280.6,912.7,289.6,894.1,289.6z" style="opacity: 0.7692;"/>
						<path class="st23" d="M894.1,288.5c-17.2,0-32.4-7.8-39.7-9.7c7.3-2,22.5-9.8,39.7-9.8c17.2,0,32.4,7.8,39.7,9.8&#10;&#9;&#9;&#9;&#9;&#9;&#9;&#9;C926.5,280.7,911.3,288.5,894.1,288.5z" style="opacity: 0.8077;"/>
						<path class="st24" d="M894.1,287.3c-15.8,0-29.9-6.5-37.5-8.6c7.6-2.1,21.7-8.6,37.5-8.6c15.8,0,29.9,6.5,37.5,8.6&#10;&#9;&#9;&#9;&#9;&#9;&#9;&#9;C924,280.8,909.9,287.3,894.1,287.3z" style="opacity: 0.8462;"/>
						<path class="st25" d="M894.1,286.2c-14.4,0-27.4-5.3-35.3-7.5c8-2.2,21-7.5,35.3-7.5c14.4,0,27.4,5.3,35.3,7.5&#10;&#9;&#9;&#9;&#9;&#9;&#9;&#9;C921.5,280.9,908.5,286.2,894.1,286.2z" style="opacity: 0.8846;"/>
						<path class="st26" d="M894.1,285c-12.9,0-24.8-4-33.2-6.3c8.3-2.3,20.2-6.3,33.2-6.3c12.9,0,24.8,4.1,33.2,6.3&#10;&#9;&#9;&#9;&#9;&#9;&#9;&#9;C919,281,907.1,285,894.1,285z" style="opacity: 0.9231;"/>
						<path class="st27" d="M894.1,283.9c-11.5,0-22.3-2.8-31-5.2c8.7-2.4,19.5-5.2,31-5.2c11.5,0,22.3,2.8,31,5.2&#10;&#9;&#9;&#9;&#9;&#9;&#9;&#9;C916.4,281.1,905.6,283.9,894.1,283.9z" style="opacity: 0.9615;"/>
						<path d="M894.1,282.8c-10.1,0-19.8-1.6-28.8-4c9-2.5,18.7-4.1,28.8-4.1c10.1,0,19.8,1.6,28.8,4.1&#10;&#9;&#9;&#9;&#9;&#9;&#9;&#9;C913.9,281.2,904.2,282.8,894.1,282.8z"/>
					</g>
				</g>
			</g><path class="st30" d="M949.5,154.5v110.5H815.9V133.9h113.3C940.4,133.9,949.5,143.2,949.5,154.5z" style="fill: rgb(235, 236, 237); stroke: rgb(177, 177, 176); stroke-width: 4.0501; stroke-miterlimit: 10;" transform="matrix(0.6520299315452576, 0, 0, 0.6520299315452576, -468.50299072265625, -75.51947784423828)"/><path d="M 868.4000244140625 152.6999969482422 L 912.5999755859375 196.39999389648438 L 868.4000244140625 240.39999389648438 L 854.2000122070312 225.8000030517578 L 883.4000244140625 196.60000610351562 L 854.2000122070312 167.39999389648438 Z" class="st31" style="fill: rgb(51, 51, 51);" transform="matrix(-0.6520300507545471, 0, 0, -0.6520300507545471, 683.5036010742188, 180.79347229003906)"/><path class="st37" d="M498.8,273.9c0,0,15.5-41.9,107.3-43.6c0,0,87.8,0.4,108.7,43.6c0,0-20.3-31.1-108-31.7&#10;&#9;&#9;C606.8,242.2,525.8,238.8,498.8,273.9z" style="display: none; opacity: 0.6; fill: rgb(166, 168, 170);" transform="matrix(1, 0, 0, 1, 0, 0)"/></g></g><defs style="opacity: 0.2;">
			<path d="M 809 278.700012 H 979.399994 V 317.600014 H 809 V 278.700012 Z" id="SVGID_7_" class="st28" style="opacity: 0.2;"/>
		</defs><clipPath id="SVGID_8_" style="opacity: 0.2;">
			<use style="overflow:visible;" xlink:href="#SVGID_7_"/>
		</clipPath>
<linearGradient id="SVGID_9_" gradientUnits="userSpaceOnUse" x1="606.6707" y1="105.8013" x2="606.6707" y2="271.5396">
		<stop offset="0" style="stop-color:#FFFFFF"/>
		<stop offset="0.3003" style="stop-color:#F9F9FA"/>
		<stop offset="0.6923" style="stop-color:#E9E9EB"/>
		<stop offset="1" style="stop-color:#D7D8DA"/>
	</linearGradient><linearGradient id="SVGID_10_" gradientUnits="userSpaceOnUse" x1="605.9961" y1="115.2515" x2="605.9961" y2="262.0894">
		<stop offset="0" style="stop-color:#ABACB1"/>
		<stop offset="0.2824" style="stop-color:#CECED1"/>
		<stop offset="0.5627" style="stop-color:#E9E9EA"/>
		<stop offset="0.8106" style="stop-color:#F9F9FA"/>
		<stop offset="1" style="stop-color:#FFFFFF"/>
	</linearGradient><linearGradient id="SVGID_11_" gradientUnits="userSpaceOnUse" x1="605.9956" y1="124.7022" x2="605.9956" y2="264.7891">
		<stop offset="0" style="stop-color:#FFFFFF"/>
		<stop offset="0.3003" style="stop-color:#F9F9FA"/>
		<stop offset="0.6923" style="stop-color:#E9E9EB"/>
		<stop offset="1" style="stop-color:#D7D8DA"/>
	</linearGradient><linearGradient id="SVGID_12_" gradientUnits="userSpaceOnUse" x1="608.4431" y1="248.9462" x2="608.4431" y2="280.6323">
		<stop offset="0" style="stop-color:#A6A8AA"/>
		<stop offset="1.644576e-02" style="stop-color:#A8AAAC"/>
		<stop offset="0.3079" style="stop-color:#CECFD0"/>
		<stop offset="0.5782" style="stop-color:#E9E9EA"/>
		<stop offset="0.8173" style="stop-color:#F9F9F9"/>
		<stop offset="1" style="stop-color:#FFFFFF"/>
	</linearGradient>
<linearGradient id="SVGID_13_" gradientUnits="userSpaceOnUse" x1="1164.4233" y1="247.0028" x2="1164.4233" y2="278.689">
		<stop offset="0" style="stop-color:#A6A8AA"/>
		<stop offset="1.644576e-02" style="stop-color:#A8AAAC"/>
		<stop offset="0.3079" style="stop-color:#CECFD0"/>
		<stop offset="0.5782" style="stop-color:#E9E9EA"/>
		<stop offset="0.8173" style="stop-color:#F9F9F9"/>
		<stop offset="1" style="stop-color:#FFFFFF"/>
	</linearGradient>
<defs style="opacity: 0.3;">
			<path d="M 28.9 450.100006 H 836.999975 V 511.800007 H 28.9 V 450.100006 Z" id="SVGID_14_" class="st0" style="opacity: 0.3;"/>
		</defs><clipPath id="SVGID_15_" style="opacity: 0.3;">
			<use style="overflow:visible;" xlink:href="#SVGID_14_"/>
		</clipPath><defs style="opacity: 0.2;">
			<path d="M 171.199997 405.899994 H 684.900009 V 444.799995 H 171.199997 V 405.899994 Z" id="SVGID_16_" class="st28" style="opacity: 0.2;"/>
		</defs><clipPath id="SVGID_17_" style="opacity: 0.2;">
			<use style="overflow:visible;" xlink:href="#SVGID_16_"/>
		</clipPath><linearGradient id="SVGID_18_" gradientUnits="userSpaceOnUse" x1="373.5601" y1="454.1411" x2="373.5601" y2="564.5376">
		<stop offset="0" style="stop-color:#D7D8DA"/>
		<stop offset="3.640485e-02" style="stop-color:#DADBDD"/>
		<stop offset="0.3641" style="stop-color:#EEEFF0"/>
		<stop offset="0.6876" style="stop-color:#FBFBFB"/>
		<stop offset="1" style="stop-color:#FFFFFF"/>
	</linearGradient>
<defs style="opacity: 0.2;">
			<path d="M 849.799988 324.299988 H 888.699989 V 658.699982 H 849.799988 V 324.299988 Z" id="SVGID_21_" class="st28" style="opacity: 0.2;"/>
		</defs><clipPath id="SVGID_22_" style="opacity: 0.2;">
			<use style="overflow:visible;" xlink:href="#SVGID_21_"/>
		</clipPath><linearGradient id="SVGID_23_" gradientUnits="userSpaceOnUse" x1="1047.1162" y1="509.3394" x2="1047.1162" y2="565.6143">
			<stop offset="0" style="stop-color:#231F20"/>
			<stop offset="0.2035" style="stop-color:#272324"/>
			<stop offset="0.4144" style="stop-color:#332F31"/>
			<stop offset="0.6286" style="stop-color:#464445"/>
			<stop offset="0.8439" style="stop-color:#626062"/>
			<stop offset="1" style="stop-color:#7A7A7C"/>
		</linearGradient>
<linearGradient id="SVGID_24_" gradientUnits="userSpaceOnUse" x1="1072.4482" y1="688.9155" x2="1072.4482" y2="867.9683">
		<stop offset="0" style="stop-color:#ACAEB1"/>
		<stop offset="2.150923e-02" style="stop-color:#C0C2C4"/>
		<stop offset="5.186729e-02" style="stop-color:#D6D7D9"/>
		<stop offset="8.126594e-02" style="stop-color:#E3E4E6"/>
		<stop offset="0.1084" style="stop-color:#E7E8EA"/>
		<stop offset="1" style="stop-color:#FEFEFE"/>
	</linearGradient><linearGradient id="SVGID_25_" gradientUnits="userSpaceOnUse" x1="1153.8359" y1="713.7769" x2="1153.8359" y2="847.1714">
		<stop offset="0" style="stop-color:#ACAEB1"/>
		<stop offset="3.813009e-02" style="stop-color:#C0C2C4"/>
		<stop offset="9.194677e-02" style="stop-color:#D6D7D9"/>
		<stop offset="0.1441" style="stop-color:#E3E4E6"/>
		<stop offset="0.1921" style="stop-color:#E7E8EA"/>
		<stop offset="1" style="stop-color:#FEFEFE"/>
	</linearGradient><linearGradient id="SVGID_26_" gradientUnits="userSpaceOnUse" x1="1153.8364" y1="721.8765" x2="1153.8364" y2="839.0718">
		<stop offset="0" style="stop-color:#ACAEB1"/>
		<stop offset="3.813009e-02" style="stop-color:#C0C2C4"/>
		<stop offset="9.194677e-02" style="stop-color:#D6D7D9"/>
		<stop offset="0.1441" style="stop-color:#E3E4E6"/>
		<stop offset="0.1921" style="stop-color:#E7E8EA"/>
		<stop offset="1" style="stop-color:#FEFEFE"/>
	</linearGradient><linearGradient id="SVGID_27_" gradientUnits="userSpaceOnUse" x1="1153.8359" y1="713.7769" x2="1153.8359" y2="847.1714">
		<stop offset="0" style="stop-color:#FFFFFF"/>
		<stop offset="0.3046" style="stop-color:#FBFBFB"/>
		<stop offset="0.6201" style="stop-color:#EEEFF0"/>
		<stop offset="0.9397" style="stop-color:#DADBDC"/>
		<stop offset="1" style="stop-color:#D5D6D8"/>
	</linearGradient><linearGradient id="SVGID_28_" gradientUnits="userSpaceOnUse" x1="1096.9565" y1="723.5944" x2="1210.7162" y2="837.3539">
		<stop offset="0" style="stop-color:#D3D7D9"/>
		<stop offset="1" style="stop-color:#FFFFFF"/>
	</linearGradient><linearGradient id="SVGID_29_" gradientUnits="userSpaceOnUse" x1="1096.002" y1="722.6397" x2="1211.6708" y2="838.3086">
		<stop offset="0" style="stop-color:#FFFFFF"/>
		<stop offset="0.3475" style="stop-color:#E9EBEC"/>
		<stop offset="0.717" style="stop-color:#D9DCDE"/>
		<stop offset="1" style="stop-color:#D3D7D9"/>
	</linearGradient><linearGradient id="SVGID_30_" gradientUnits="userSpaceOnUse" x1="989.626" y1="713.0952" x2="989.626" y2="846.4898">
		<stop offset="0" style="stop-color:#ACAEB1"/>
		<stop offset="3.813009e-02" style="stop-color:#C0C2C4"/>
		<stop offset="9.194677e-02" style="stop-color:#D6D7D9"/>
		<stop offset="0.1441" style="stop-color:#E3E4E6"/>
		<stop offset="0.1921" style="stop-color:#E7E8EA"/>
		<stop offset="1" style="stop-color:#FEFEFE"/>
	</linearGradient><linearGradient id="SVGID_31_" gradientUnits="userSpaceOnUse" x1="989.626" y1="721.1948" x2="989.626" y2="838.3902">
		<stop offset="0" style="stop-color:#ACAEB1"/>
		<stop offset="3.813009e-02" style="stop-color:#C0C2C4"/>
		<stop offset="9.194677e-02" style="stop-color:#D6D7D9"/>
		<stop offset="0.1441" style="stop-color:#E3E4E6"/>
		<stop offset="0.1921" style="stop-color:#E7E8EA"/>
		<stop offset="1" style="stop-color:#FEFEFE"/>
	</linearGradient><linearGradient id="SVGID_32_" gradientUnits="userSpaceOnUse" x1="989.626" y1="713.0952" x2="989.626" y2="846.4898">
				<stop offset="0" style="stop-color:#FFFFFF"/>
				<stop offset="0.3046" style="stop-color:#FBFBFB"/>
				<stop offset="0.6201" style="stop-color:#EEEFF0"/>
				<stop offset="0.9397" style="stop-color:#DADBDC"/>
				<stop offset="1" style="stop-color:#D5D6D8"/>
			</linearGradient><linearGradient id="SVGID_33_" gradientUnits="userSpaceOnUse" x1="932.7464" y1="722.9129" x2="1046.5055" y2="836.6721">
		<stop offset="0" style="stop-color:#D3D7D9"/>
		<stop offset="1" style="stop-color:#FFFFFF"/>
	</linearGradient><linearGradient id="SVGID_34_" gradientUnits="userSpaceOnUse" x1="931.7917" y1="721.9583" x2="1047.4602" y2="837.6267">
		<stop offset="0" style="stop-color:#FFFFFF"/>
		<stop offset="0.3475" style="stop-color:#E9EBEC"/>
		<stop offset="0.717" style="stop-color:#D9DCDE"/>
		<stop offset="1" style="stop-color:#D3D7D9"/>
	</linearGradient>
<defs style="opacity: 0.3;">
			<path d="M 35.200001 767.200012 H 843.299976 V 828.900013 H 35.200001 V 767.200012 Z" id="SVGID_35_" class="st0" style="opacity: 0.3;"/>
		</defs><clipPath id="SVGID_36_" style="opacity: 0.3;">
			<use style="overflow:visible;" xlink:href="#SVGID_35_"/>
		</clipPath><linearGradient id="SVGID_37_" gradientUnits="userSpaceOnUse" x1="439.2942" y1="298.3364" x2="439.2942" y2="400.9556" gradientTransform="matrix(1 0 0 -1 0 1127.9258)">
		<stop offset="0" style="stop-color:#ABACB1"/>
		<stop offset="5.086845e-02" style="stop-color:#B8B8BD"/>
		<stop offset="0.1793" style="stop-color:#D2D2D5"/>
		<stop offset="0.3212" style="stop-color:#E6E6E8"/>
		<stop offset="0.4817" style="stop-color:#F4F4F5"/>
		<stop offset="0.6763" style="stop-color:#FCFDFD"/>
		<stop offset="1" style="stop-color:#FFFFFF"/>
	</linearGradient><defs style="opacity: 0.2;">
			<path d="M 177.5 834.200012 H 691.200012 V 897.700012 H 177.5 V 834.200012 Z" id="SVGID_38_" class="st28" style="opacity: 0.2;"/>
		</defs><clipPath id="SVGID_39_" style="opacity: 0.2;">
			<use style="overflow:visible;" xlink:href="#SVGID_38_"/>
		</clipPath><linearGradient id="SVGID_40_" gradientUnits="userSpaceOnUse" x1="408.6093" y1="708.8472" x2="408.6093" y2="798.0856">
		<stop offset="0" style="stop-color:#D7D8DA"/>
		<stop offset="3.640485e-02" style="stop-color:#DADBDD"/>
		<stop offset="0.3641" style="stop-color:#EEEFF0"/>
		<stop offset="0.6876" style="stop-color:#FBFBFB"/>
		<stop offset="1" style="stop-color:#FFFFFF"/>
	</linearGradient>
</svg>