<?xml version="1.0" encoding="utf-8"?>
<svg id="master-artboard" viewBox="0 0 181.26766967773438 183.87326049804688" version="1.1" xmlns="http://www.w3.org/2000/svg" x="0px" y="0px" width="181.26766967773438px" height="183.87326049804688px" enable-background="new 0 0 1400 980"><rect id="ee-background" x="0" y="0" width="181.26766967773438" height="183.87326049804688" style="fill: white; fill-opacity: 0; pointer-events: none;"/>
<g transform="matrix(1, 0, 0, 1, -772.18310546875, -253.591552734375)">
		<path fill="#363636" d="M888.3,371.5l-3.2-0.8c-5.5-1.3-10.8-3.4-15.7-6c0.3,1.7,0.4,3.4,0.4,5.1c0,18-14.6,32.6-32.6,32.6&#10;&#9;&#9;&#9;c-18,0-32.6-14.6-32.6-32.6c0-18,14.6-32.6,32.6-32.6c1.5,0,3,0.1,4.5,0.3c-3.1-5.5-5.4-11.3-6.8-17.4l-0.5-2.1&#10;&#9;&#9;&#9;c-7.1-1.2-12.6-6.9-13.4-14.1c-6.6,1.6-12.9,4.2-18.6,7.7c5.1,6.4,4.6,15.7-1.3,21.6c-6,6-15.4,6.4-21.8,1.2&#10;&#9;&#9;&#9;c-3.5,5.7-6.2,12-7.9,18.7c8.3,0.8,14.7,7.8,14.7,16.2c0,8.6-6.6,15.6-15,16.3c1.6,6.8,4.3,13.2,7.8,19c6.4-5.6,16.1-5.3,22.2,0.8&#10;&#9;&#9;&#9;c6.1,6.1,6.4,16,0.7,22.4c5.9,3.6,12.3,6.3,19.1,8c0.5-8.6,7.6-15.4,16.3-15.4c8.7,0,15.8,6.8,16.3,15.4c6.8-1.7,13.3-4.4,19.1-8&#10;&#9;&#9;&#9;c-5.7-6.4-5.5-16.2,0.7-22.4c6.1-6.1,15.8-6.3,22.2-0.8c3.5-5.8,6.1-12.2,7.8-19C895.5,384.9,889.4,379,888.3,371.5z"/>
	</g><path fill="#363636" d="M939.8,306.1c0-6.8,5.2-12.3,11.7-12.9c-1.3-5.3-3.5-10.3-6.3-14.9c-5.1,4.1-12.6,3.8-17.4-0.9&#10;&#9;&#9;&#9;c-4.7-4.7-5.1-12.1-1-17.2c-4.5-2.7-9.5-4.8-14.8-6.1c-0.8,6.4-6.3,11.4-12.9,11.4s-12.1-5-12.9-11.4c-5.3,1.3-10.3,3.4-14.8,6.1&#10;&#9;&#9;&#9;c4,5.1,3.7,12.5-1,17.2c-4.8,4.8-12.3,5.1-17.4,0.9c-2.8,4.6-4.9,9.6-6.3,14.9c6.6,0.6,11.7,6.2,11.7,12.9c0,6.8-5.3,12.4-12,13&#10;&#9;&#9;&#9;c1.3,5.4,3.4,10.5,6.2,15.2c5.1-4.4,12.8-4.2,17.7,0.6c4.9,4.9,5.1,12.7,0.5,17.8c4.6,2.9,9.8,5,15.2,6.4c0.4-6.8,6-12.3,13-12.3&#10;&#9;&#9;&#9;c6.9,0,12.6,5.4,13,12.3c5.5-1.3,10.6-3.5,15.2-6.4c-4.5-5.1-4.4-12.9,0.5-17.8c4.8-4.8,12.6-5.1,17.7-0.6&#10;&#9;&#9;&#9;c2.8-4.6,4.9-9.7,6.2-15.2C945,318.5,939.8,312.9,939.8,306.1z M899.1,332.5c-14.4,0-26-11.6-26-26c0-14.4,11.6-26,26-26&#10;&#9;&#9;&#9;c14.4,0,26,11.6,26,26C925.1,320.9,913.5,332.5,899.1,332.5z" transform="matrix(1, 0, 0, 1, -772.18310546875, -253.591552734375)"/>







</svg>