<?xml version="1.0" encoding="utf-8"?>
<svg id="master-artboard" viewBox="0 0 84.74674987792969 96.52737426757812" version="1.1" xmlns="http://www.w3.org/2000/svg" x="0px" y="0px" enable-background="new 0 0 1400 980" width="84.74674987792969px" height="96.52737426757812px"><rect id="ee-background" x="0" y="0" width="84.74674987792969" height="96.52737426757812" style="fill: white; fill-opacity: 0; pointer-events: none;"/>

<title>Phone Illustration</title><title>Phone Illustration</title><g transform="matrix(0.3056590648534374, 0, 0, 0.3056590648534374, -134.54082083255977, -160.41960977820273)">
			<path d="M 597.999989 617 A 18.700001 18.700001 0 0 1 579.299988 635.700001 A 18.700001 18.700001 0 0 1 560.599987 617 A 18.700001 18.700001 0 0 1 579.299988 598.299999 A 18.700001 18.700001 0 0 1 597.999989 617 Z" class="st1" style="fill: rgb(230, 231, 232);"/>
			<path d="M 598.900012 692.200012 A 11.7 11.7 0 0 1 587.200012 703.900012 A 11.7 11.7 0 0 1 575.500012 692.200012 A 11.7 11.7 0 0 1 587.200012 680.500012 A 11.7 11.7 0 0 1 598.900012 692.200012 Z" class="st1" style="fill: rgb(230, 231, 232);"/>
			<path d="M 547.699975 674.700012 A 7.6 7.6 0 0 1 540.099976 682.300012 A 7.6 7.6 0 0 1 532.499976 674.700012 A 7.6 7.6 0 0 1 540.099976 667.100012 A 7.6 7.6 0 0 1 547.699975 674.700012 Z" class="st1" style="fill: rgb(230, 231, 232);"/>
			<path class="st1" d="M645.2,773.6c17.3-23,61.3-48.4,61.4-118.8c0-63.8-54.1-114.1-135.9-110.1c-46.7,2.3-92.7,25-104,56.4&#10;&#9;&#9;&#9;&#9;c-11.3,31.4,6.4,54.8,6.4,70.1c0,15.3-11.1,30.9-14.5,36.7c-4,6.9,7.2,14.4,15.7,16.5c4.8,1.2,4.4,9.6,4,12.5&#10;&#9;&#9;&#9;&#9;c-0.4,2.8,0.8,8.7,5.6,9.6c4.8,0.9-2.8,11.4,3.6,12.6c6.4,1.2,8.9,15.3,8.1,26.2c-0.8,10.9,8.9,21.4,29.4,13.7&#10;&#9;&#9;&#9;&#9;c20.6-7.7,47.2-12.1,50.6,0.8c3.4,12.9-12.3,39.5-13.5,45.1h90.3C652.4,844.9,627.9,796.6,645.2,773.6z M555.5,683.5l-2.1-0.7&#10;&#9;&#9;&#9;&#9;c-1,1.6-2.2,3-3.7,4.1l1,2l-6,2.9l-1-2c-1.8,0.4-3.7,0.6-5.5,0.3l-0.7,2.1l-6.2-2.2l0.7-2.1c-1.6-1-3-2.2-4.1-3.7l-2,1l-2.9-6&#10;&#9;&#9;&#9;&#9;l2-1c-0.4-1.8-0.6-3.7-0.3-5.5l-2.1-0.7l2.2-6.2l2.1,0.7c1-1.6,2.2-3,3.7-4.1l-1-2l6-2.9l1,2c1.8-0.4,3.7-0.6,5.5-0.3l0.7-2.1&#10;&#9;&#9;&#9;&#9;l6.2,2.2l-0.7,2.1c1.6,1,3,2.2,4.1,3.7l2-1l2.9,6l-2,1c0.4,1.8,0.6,3.7,0.3,5.5l2.1,0.7L555.5,683.5z M554.5,653.3l-11.6-11.6&#10;&#9;&#9;&#9;&#9;l3.8-3.8c-2.5-3.8-4.3-8.1-5.3-12.7h-5.4v-16.4h5.4c1-4.6,2.8-8.9,5.3-12.7l-3.8-3.8l11.6-11.6l3.8,3.8c3.8-2.5,8.1-4.3,12.7-5.3&#10;&#9;&#9;&#9;&#9;v-5.4h16.4v5.4c4.6,1,8.9,2.8,12.7,5.3l3.8-3.8l11.6,11.6l-3.8,3.8c2.5,3.8,4.3,8.1,5.3,12.7h5.4v16.4h-5.4&#10;&#9;&#9;&#9;&#9;c-1,4.6-2.8,8.9-5.3,12.7l3.8,3.8l-11.6,11.6l-3.8-3.8c-3.8,2.5-8.1,4.3-12.7,5.3v5.4h-16.4v-5.4c-4.6-1-8.9-2.8-12.7-5.3&#10;&#9;&#9;&#9;&#9;L554.5,653.3z M610.9,705.9l-3.2-1.1c-1.5,2.5-3.5,4.6-5.7,6.4l1.5,3.1l-9.2,4.5l-1.5-3.1c-2.8,0.7-5.7,0.9-8.6,0.5l-1.1,3.2&#10;&#9;&#9;&#9;&#9;l-9.7-3.4l1.1-3.2c-2.5-1.5-4.6-3.5-6.4-5.7l-3.1,1.5l-4.5-9.2l3.1-1.5c-0.7-2.8-0.9-5.7-0.5-8.6l-3.2-1.1l3.4-9.7l3.2,1.1&#10;&#9;&#9;&#9;&#9;c1.5-2.5,3.5-4.7,5.7-6.4l-1.5-3.1l9.2-4.5l1.5,3.1c2.8-0.7,5.7-0.9,8.6-0.5l1.1-3.2l9.7,3.4l-1.1,3.2c2.5,1.5,4.6,3.5,6.4,5.7&#10;&#9;&#9;&#9;&#9;l3.1-1.5l4.5,9.2l-3.1,1.5c0.7,2.8,0.9,5.7,0.5,8.6l3.2,1.1L610.9,705.9z M637.5,679.3l-6,2.9l-1-2c-1.8,0.4-3.7,0.6-5.5,0.3&#10;&#9;&#9;&#9;&#9;l-0.7,2.1l-6.2-2.2l0.7-2.1c-1.6-1-3-2.2-4.1-3.7l-2,1l-2.9-6l2-1c-0.4-1.8-0.6-3.7-0.3-5.5l-2.1-0.7l2.2-6.2l2.1,0.7&#10;&#9;&#9;&#9;&#9;c1-1.6,2.2-3,3.7-4.1l-1-2l6-2.9l1,2c1.8-0.4,3.7-0.6,5.5-0.3l0.7-2.1l6.2,2.2l-0.7,2.1c1.6,1,3,2.2,4.1,3.7l2-1l2.9,6l-2,1&#10;&#9;&#9;&#9;&#9;c0.4,1.8,0.6,3.7,0.3,5.5l2.1,0.7l-2.2,6.2l-2.1-0.7c-1,1.6-2.2,3-3.7,4.1L637.5,679.3z" style="fill: rgb(230, 231, 232);"/>
			<path d="M 634.500024 665.099976 A 7.6 7.6 0 0 1 626.900024 672.699975 A 7.6 7.6 0 0 1 619.300025 665.099976 A 7.6 7.6 0 0 1 626.900024 657.499976 A 7.6 7.6 0 0 1 634.500024 665.099976 Z" class="st1" style="fill: rgb(230, 231, 232);"/>
		</g><g transform="matrix(0.3056590648534374, 0, 0, 0.3056590648534374, -134.54082083255977, -160.41960977820273)">
			<path d="M 583.299976 603.599976 A 18.700001 18.700001 0 0 1 564.599976 622.299976 A 18.700001 18.700001 0 0 1 545.899975 603.599976 A 18.700001 18.700001 0 0 1 564.599976 584.899975 A 18.700001 18.700001 0 0 1 583.299976 603.599976 Z" class="st2" style="fill: rgb(242, 101, 34);"/>
			<path d="M 584.2 678.900024 A 11.7 11.7 0 0 1 572.5 690.600024 A 11.7 11.7 0 0 1 560.8 678.900024 A 11.7 11.7 0 0 1 572.5 667.200025 A 11.7 11.7 0 0 1 584.2 678.900024 Z" class="st2" style="fill: rgb(242, 101, 34);"/>
			<path d="M 533.1 661.299988 A 7.6 7.6 0 0 1 525.5 668.899988 A 7.6 7.6 0 0 1 517.9 661.299988 A 7.6 7.6 0 0 1 525.5 653.699988 A 7.6 7.6 0 0 1 533.1 661.299988 Z" class="st2" style="fill: rgb(242, 101, 34);"/>
			<path class="st2" d="M630.5,760.3c17.3-23,61.3-48.4,61.4-118.8c0-63.8-54.1-114.1-135.9-110.1c-46.7,2.3-92.7,25-104,56.4&#10;&#9;&#9;&#9;&#9;c-11.3,31.4,6.4,54.8,6.4,70.1c0,15.3-11.1,30.9-14.5,36.7c-4,6.9,7.2,14.4,15.7,16.5c4.8,1.2,4.4,9.6,4,12.5&#10;&#9;&#9;&#9;&#9;c-0.4,2.8,0.8,8.7,5.6,9.6c4.8,0.9-2.8,11.4,3.6,12.6c6.4,1.2,8.9,15.3,8.1,26.2c-0.8,10.9,8.9,21.4,29.4,13.7&#10;&#9;&#9;&#9;&#9;c20.6-7.7,47.2-12.1,50.6,0.8c3.4,12.9-12.3,39.5-13.5,45.1h90.3C637.8,831.6,613.2,783.2,630.5,760.3z M540.8,670.2l-2.1-0.7&#10;&#9;&#9;&#9;&#9;c-1,1.6-2.2,3-3.7,4.1l1,2l-6,2.9l-1-2c-1.8,0.4-3.7,0.6-5.5,0.3l-0.7,2.1l-6.2-2.2l0.7-2.1c-1.6-1-3-2.2-4.1-3.7l-2,1l-2.9-6&#10;&#9;&#9;&#9;&#9;l2-1c-0.4-1.8-0.6-3.7-0.3-5.5l-2.1-0.7l2.2-6.2l2.1,0.7c1-1.6,2.2-3,3.7-4.1l-1-2l6-2.9l1,2c1.8-0.4,3.7-0.6,5.5-0.3l0.7-2.1&#10;&#9;&#9;&#9;&#9;l6.2,2.2l-0.7,2.1c1.6,1,3,2.2,4.1,3.7l2-1l2.9,6l-2,1c0.4,1.8,0.6,3.7,0.3,5.5l2.1,0.7L540.8,670.2z M539.9,640l-11.6-11.6&#10;&#9;&#9;&#9;&#9;l3.8-3.8c-2.5-3.8-4.3-8.1-5.3-12.7h-5.4v-16.4h5.4c1-4.6,2.8-8.9,5.3-12.7l-3.8-3.8l11.6-11.6l3.8,3.8c3.8-2.5,8.1-4.3,12.7-5.3&#10;&#9;&#9;&#9;&#9;v-5.4h16.4v5.4c4.6,1,8.9,2.8,12.7,5.3l3.8-3.8l11.6,11.6l-3.8,3.8c2.5,3.8,4.3,8.1,5.3,12.7h5.4v16.4h-5.4&#10;&#9;&#9;&#9;&#9;c-1,4.6-2.8,8.9-5.3,12.7l3.8,3.8L589.4,640l-3.8-3.8c-3.8,2.5-8.1,4.3-12.7,5.3v5.4h-16.4v-5.4c-4.6-1-8.9-2.8-12.7-5.3&#10;&#9;&#9;&#9;&#9;L539.9,640z M596.3,692.6l-3.2-1.1c-1.5,2.5-3.5,4.7-5.7,6.4l1.5,3.1l-9.2,4.5l-1.5-3.1c-2.8,0.7-5.7,0.9-8.6,0.5l-1.1,3.2&#10;&#9;&#9;&#9;&#9;l-9.7-3.4l1.1-3.2c-2.5-1.5-4.6-3.5-6.4-5.7l-3.1,1.5L546,686l3.1-1.5c-0.7-2.8-0.9-5.7-0.5-8.6l-3.2-1.1l3.4-9.7l3.2,1.1&#10;&#9;&#9;&#9;&#9;c1.5-2.5,3.5-4.6,5.7-6.4l-1.5-3.1l9.2-4.5l1.5,3.1c2.8-0.7,5.7-0.9,8.6-0.5l1.1-3.2l9.7,3.4l-1.1,3.2c2.5,1.5,4.6,3.5,6.4,5.7&#10;&#9;&#9;&#9;&#9;l3.1-1.5l4.5,9.2l-3.1,1.5c0.7,2.8,0.9,5.7,0.5,8.6l3.2,1.1L596.3,692.6z M622.8,666l-6,2.9l-1-2c-1.8,0.4-3.7,0.6-5.5,0.3&#10;&#9;&#9;&#9;&#9;l-0.7,2.1l-6.2-2.2l0.7-2.1c-1.6-1-3-2.2-4.1-3.7l-2,1l-2.9-6l2-1c-0.4-1.8-0.6-3.7-0.3-5.5l-2.1-0.7l2.2-6.2l2.1,0.7&#10;&#9;&#9;&#9;&#9;c1-1.6,2.2-3,3.7-4.1l-1-2l6-2.9l1,2c1.8-0.4,3.7-0.6,5.5-0.3l0.7-2.1l6.2,2.2l-0.7,2.1c1.6,1,3,2.2,4.1,3.7l2-1l2.9,6l-2,1&#10;&#9;&#9;&#9;&#9;c0.4,1.8,0.6,3.7,0.3,5.5l2.1,0.7l-2.2,6.2l-2.1-0.7c-1,1.6-2.2,3-3.7,4.1L622.8,666z" style="fill: rgb(242, 101, 34);"/>
			<path d="M 619.800012 651.799988 A 7.6 7.6 0 0 1 612.200012 659.399988 A 7.6 7.6 0 0 1 604.600012 651.799988 A 7.6 7.6 0 0 1 612.200012 644.199988 A 7.6 7.6 0 0 1 619.800012 651.799988 Z" class="st2" style="fill: rgb(242, 101, 34);"/>
		</g></svg>