<?xml version="1.0" encoding="utf-8"?>
<svg id="master-artboard" viewBox="0 0 71.3324203491211 67.97005462646484" version="1.1" xmlns="http://www.w3.org/2000/svg" x="0px" y="0px" style="enable-background:new 0 0 1400 980;" width="71.3324203491211px" height="67.97005462646484px"><rect id="ee-background" x="0" y="0" width="71.3324203491211" height="67.97005462646484" style="fill: white; fill-opacity: 0; pointer-events: none;"/>



<path class="st1" d="M360.2,700.1h-47c-26.1,0-47.5-21.4-47.5-47.5v-47c0-26.1,21.4-47.5,47.5-47.5h47c26.1,0,47.5,21.4,47.5,47.5&#10;&#9;&#9;v47C407.7,678.7,386.3,700.1,360.2,700.1z" style="fill: rgb(65, 64, 66);" transform="matrix(0.3469913106569102, 0, 0, 0.3469913106569102, -81.57665321653263, -183.0368844866228)"/><path class="st5" d="M407.7,676.2v-49.8l-54.9-26L342.3,611l-21.8-10.6l8.1,38.5l-22.6,8.3l20.6,52.7h57.3&#10;&#9;&#9;C397,700.1,407.7,689.3,407.7,676.2z" style="fill: rgb(51, 51, 52);" transform="matrix(0.3469913106569102, 0, 0, 0.3469913106569102, -81.57665321653263, -183.0368844866228)"/><path d="M 367.29998779296875 615 L 352.8999938964844 600.5 L 336.70001220703125 616.7000122070312 L 320.5 600.5 L 306 615 L 322.20001220703125 631.0999755859375 L 306 647.2999877929688 L 320.5 661.7999877929688 L 336.70001220703125 645.5999755859375 L 352.8999938964844 661.7999877929688 L 367.29998779296875 647.2999877929688 L 351.20001220703125 631.0999755859375 Z" class="st4" style="fill: rgb(255, 255, 255);" transform="matrix(0.3469913106569102, 0, 0, 0.3469913106569102, -81.57665321653263, -183.0368844866228)"/></svg>