<?xml version="1.0" encoding="utf-8"?>
<svg id="master-artboard" viewBox="0 0 81.90142822265625 168.30990600585938" version="1.0" xmlns="http://www.w3.org/2000/svg" x="0px" y="0px" width="81.90142822265625px" height="168.30990600585938px" enable-background="new 0 0 1400 980"><rect id="ee-background" x="0" y="0" width="81.90142822265625" height="168.30990600585938" style="fill: white; fill-opacity: 0; pointer-events: none;"/>


<g transform="matrix(1, 0, 0, 1, -211.9014140260856, -135.28168473882687)">
			<path fill-rule="evenodd" clip-rule="evenodd" fill="#AFBED6" d="M237.3,174.3c-0.3-4.9,1.5-9,4.3-12.8c3-4,7.2-6.3,11.9-7.6&#10;&#9;&#9;&#9;&#9;c3-0.8,6-1.5,9.1-1.4c4,0.1,8.1,0.1,12.1,0.2c1.2,0.8,2.3,0.8,3.5,0c2.1,0,4.2-0.1,6.3,0c0.3,0,0.6,0.4,0.8,0.7&#10;&#9;&#9;&#9;&#9;c0.2,0.3,0.2,0.7,0.2,1.1c0,6.5,0,13.1,0,19.6c0,0.4,0,0.8-0.2,1.1c-0.2,0.3-0.5,0.7-0.8,0.7c-3.3,0.2-6.5,0.4-9.8-0.1&#10;&#9;&#9;&#9;&#9;c-2-1.6-3.9-3.6-5.8,0.1c-0.1,0.1-0.3,0.3-0.4,0.3c-1.8,0.6-3,1.9-4.2,3.3c-1.8-0.3-2.6-1.7-3.6-3c-2.5-4.9-6.1-5-10.5-2.6&#10;&#9;&#9;&#9;&#9;c-2.9,1.5-5.7,3.1-8.8,4.2C237.8,179.2,235.9,178.4,237.3,174.3z"/>
			<path fill-rule="evenodd" clip-rule="evenodd" fill="#A4B9D4" d="M264,245.6c0.1,0.8,0.2,1.5,0.2,2.3c0,12.6,0,25.2,0,37.8&#10;&#9;&#9;&#9;&#9;c0,1,0,1.9-0.1,2.9c0,0.7-0.6,1.2-1.6,1.2c-0.6,0-1.1-0.1-1.7-0.2c-1-2.7,0.8-5.2,0.5-7.8c1.4-6.6-2.9-5-6.5-4.5&#10;&#9;&#9;&#9;&#9;c-0.4-0.3-0.8-0.8-1-1.2c-0.8-4-2.8-4.5-6.5-3.1c-6,2.3-8.4,1.3-10.4-3.4c0-6.7,0-13.3,0-20c0.3-4.1,3.6-2.7,5.7-2.9&#10;&#9;&#9;&#9;&#9;c2.5-0.2,4.1-0.6,6.1-2.7c4.3-4.4,9.5-1.9,14.2,0.4C263.2,244.9,263.6,245.2,264,245.6z"/>
			<path fill-rule="evenodd" clip-rule="evenodd" fill="#9FB7D3" d="M283.9,213c0,1.5,0.1,3.1,0,4.6c-0.2,2.5-0.4,2.6-3.4,2.4&#10;&#9;&#9;&#9;&#9;c-0.6-0.5-1.5-0.6-2-1.1c-3.4-3.1-6.9-3.9-11.1-1.1c-1.7,1.1-4.1,0.8-6.3,0.6c-3.1-0.3-5.2-1.5-3.6-5.3c-2.5,0.3-4.2,1.9-6.4,1.8&#10;&#9;&#9;&#9;&#9;c-2.6-0.2-5.2,0.3-7.7-0.9c-0.5-0.2-1.1-0.4-1.6-0.6c-0.8-0.4-1.5-0.9-2.1-1.5c-0.4-0.4-0.7-0.9-0.9-1.4c-0.5-3,1.1-4.5,3.9-4.3&#10;&#9;&#9;&#9;&#9;c4.2,0.3,6.4-1.9,7.7-5.5c0-0.6,0.2-1.1,0.3-1.6c1.7-3.7,5.1-3.9,8.5-4.4c1.1-0.1,2.2,0.1,3.2,0.8c0.6,0.5,1,1.2,1.8,1.6&#10;&#9;&#9;&#9;&#9;c1,0.6,2.2,0.6,3.3,0.6c4.4,0,8.8,0,13.2,0c1.1,0,2.3,0,3.4,0.2c0.4,0.1,1,0.7,1,1.1c0,4,0.1,8.1-1.2,11.9&#10;&#9;&#9;&#9;&#9;C283.7,211.4,280.9,212.1,283.9,213z"/>
			<path fill-rule="evenodd" clip-rule="evenodd" fill="#ACBCD5" d="M251.4,213c2.2-0.3,4-1.3,5.7-2.7c0.6-0.5,1.3-0.9,1.9-1.3&#10;&#9;&#9;&#9;&#9;c0.4-0.2,1.3,0.3,1.4,0.7c0.7,2.3,0.1,4.1-1.7,5.7c-0.3,0.3-0.1,0.8,0.3,0.9c2.9,0.3,5.8,0.5,8.6-0.4c1.6-0.5,2.8-1.1,3-3&#10;&#9;&#9;&#9;&#9;c0-0.4,0.8-0.8,1.3-0.9c1-0.2,2,0,2.7,0.7c2,2.4,3.9,4.8,5.8,7.2c-3.6,0.1-7.3,0.3-10.9,0.3c-5.6,0-5.4-0.1-5.4,5.3&#10;&#9;&#9;&#9;&#9;c0,5.4,0,10.7,0,16.1c0,1.3-0.1,2.7-0.2,4c-0.3,0-0.6,0-0.9,0c-1.9-1.7-2.4-4-2.6-6.4c0.5-2.5,0.4-5-0.3-7.4&#10;&#9;&#9;&#9;&#9;c-0.4-1.6,0.7-4-2.3-4.5c-2.9-0.5-2.7,2.1-3.9,3.3c-1.7,0.9-3.3,0.5-5,0.1c-1.9-1.1-3.9-0.8-6-0.4c-2.5,0.5-4.9,0.1-6.1-2.7&#10;&#9;&#9;&#9;&#9;c-0.3-8,1.2-7.3-7.5-7.1c-1,0-1.9,0.1-2.9,0c-1.4-0.1-3.3,0.5-3.6-1.7c-0.3-2.1,0.8-3.2,2.6-3.9c2.8-1.1,5.5-2.7,8.6-2.9&#10;&#9;&#9;&#9;&#9;c3.6,0.5,4.8,5.4,8.9,4.7c1.1,0.2,2.2,0.2,3.1-0.8c0.2-0.4,0.5-0.8,0.8-1.1c0.3-0.3,0.7-0.6,1.1-0.8&#10;&#9;&#9;&#9;&#9;C249.1,213.5,250.5,213.8,251.4,213z"/>
			<path fill-rule="evenodd" clip-rule="evenodd" fill="#A5BAD5" d="M259.5,195.5c-0.6,0.7-1.4,1.2-2.4,1.1&#10;&#9;&#9;&#9;&#9;c-2.7-0.1-4.5,1.2-5.9,3.6c-0.8,0.4-1.9,0.5-3,0.3c1.1,0.4,2.1,0,3-0.3c0.6,0.5,1.1,1.1,1.5,1.7c0.3,0.5,0.1,1.3-0.4,1.5&#10;&#9;&#9;&#9;&#9;c-1.3,0.4-2.4,1.3-3.5,2c-1.3,0.8-1.3,1.7-0.7,2.9c0.2,0.4-0.2,0.9-0.6,0.7c-1.4-0.5-2.8-1.2-4.3-1.7c-1.7-0.6-2.9,0.3-3.3,2.1&#10;&#9;&#9;&#9;&#9;c-0.1,0.4-0.1,0.8-0.1,1.1c-1,0.6-2.2,0.5-3.3,0.9c-2.7,0.3-5.4,0.2-8-0.1c-2.2-0.3-4-1.8-2.3-3.9c1.9-2.3,3.7-4.5,4.7-7.5&#10;&#9;&#9;&#9;&#9;c0.8-2.3,4-0.8,5.3-2.6l-0.2,0.2c2.5-1.6,0-4.4,1.6-6.2c4.9-1.6,9.7-3.7,14.6-5.4c2.7-4.7,8.2-3.6,12.1-5.6c0,5.5,0,10.9,0,16.4&#10;&#9;&#9;&#9;&#9;c-1.2,1-1.2,1-2.3-0.1c0.7-0.9,0.3-1.8-0.4-2.3C260.4,193.6,260.1,194.9,259.5,195.5z"/>
			<path fill-rule="evenodd" clip-rule="evenodd" fill="#9FB7D3" d="M236.1,197.5c-0.4,0.4-0.7,1-1.1,1.2c-0.8,0.5-1.8,0.8-2.5,1.3&#10;&#9;&#9;&#9;&#9;c-1.1,0.8-1.8,2-0.4,3.4c0.4,0.4,0.7,0.9,0.9,1.4c0.1,0.3-0.1,0.8-0.3,1c-0.8,0.6-1.7,1.1-2.7,0.9c-1.7-0.2-2.4,0.9-3.2,2&#10;&#9;&#9;&#9;&#9;c-0.1,0.1-0.1,0.4,0,0.5c0.2,0.3,0.5,0.7,0.8,0.7c0.5,0,1.1-0.3,1.6-0.4c0.5-0.1,1.2-0.6,1.6-0.4c1.9,1.2,4.1,0.8,6.2,1.2&#10;&#9;&#9;&#9;&#9;c0.2,0,0.4,0.1,0.5,0.2c0.4,0.4,0.5,0.9,0.3,1.4c-0.7,1-1.5,1.5-2.6,0.9c-1.7,0-2.5,1.9-4,2.1c-2.5,0.3-4.4,2.4-7,2.5&#10;&#9;&#9;&#9;&#9;c-0.1,0-0.3,0.3-0.3,0.5c0.1,0.4,0.1,0.8,0.4,1c0.4,0.3,1,0.7,1.5,0.7c2.3,0,4.6,0,7-0.1c0.4,0,0.8-0.1,1.1-0.2&#10;&#9;&#9;&#9;&#9;c2.1-0.2,3.4,0.9,3.6,2.9c0.1,1.9,0.2,3.9,0.3,5.8c1.2,1.4,1.7,3.3,2.7,4.9c1.5,1.4,3.5,2.3,4.4,4.3c0.2,0.5,0.3,1,0.3,1.6&#10;&#9;&#9;&#9;&#9;c-0.3,1.4-1.2,2.3-2.5,2.8c-0.5,0.1-1,0.2-1.5,0.2c-0.7,0.1-1.2,0.5-1.5,1.2c-0.5,1.6-0.4,3.5-2,4.7c-0.3,7.8-0.4,15.7,0,23.5&#10;&#9;&#9;&#9;&#9;c0.9,1.9,2.1,3.7,1.8,6c-0.6,4,1.9,8.6-2.1,12.1c-0.2-0.3-0.6-0.6-0.7-0.9c-0.1-1.2-0.1-2.3-0.1-3.5c0-19,0-38,0-57&#10;&#9;&#9;&#9;&#9;c0-2.1-0.1-4.3-0.2-6.4c0-0.3-0.4-0.7-0.8-0.8c-0.7-0.2-1.5-0.2-2.3-0.2c-2.9,0-5.8,0-8.7,0c-1.5,0-2.3-0.7-2.3-2&#10;&#9;&#9;&#9;&#9;c0-6.4,0-12.8,0-19.2c0-1.4,0.6-2,2.2-2C228.4,197.4,232.2,197.5,236.1,197.5z"/>
			<path fill-rule="evenodd" clip-rule="evenodd" fill="#BBC4D8" d="M237.4,289.5c0.1-4.1,0.2-8.1,0.3-12.2c1.9-0.8,3.8-0.8,5.8-2.5&#10;&#9;&#9;&#9;&#9;c3.4-2.8,7.8-1.7,11.4,1.1c0,0.4,0,0.8,0,1.1c0.2,5.9,5.7,2.7,8.1,4.7c0,0.9-0.1,1.8,0.1,2.7c0.3,2.2-0.6,3.9-2.3,5.2&#10;&#9;&#9;&#9;&#9;c-1.9,0.1-3.8,0.2-5.7,0.2c-5,0-9.9,0-14.9,0C239.2,289.9,238.2,289.9,237.4,289.5z"/>
			<path fill-rule="evenodd" clip-rule="evenodd" fill="#9AB5D3" d="M237.7,191.9c0.1,0.9,0.2,1.8,0.2,2.8c0,1.4-0.6,2.5-2,3&#10;&#9;&#9;&#9;&#9;c0.6-1.2,0.7-2.6,0.7-3.9c0-5.2,0-10.4,0-15.6c0-1.3-0.1-2.7,0.7-3.9c0.1,0.8,0.2,1.5,0.4,2.3c0.1,0.3,0.6,0.6,0.9,0.6&#10;&#9;&#9;&#9;&#9;c0.7-0.1,1.5-0.4,2.2-0.7c3.6-1.8,7.2-3.6,10.8-5.4c1-0.5,2.1-0.8,3.3-1c1.6-0.2,3,0.1,4.2,1.4c1,1.1,2.1,2.2,3.1,3.3&#10;&#9;&#9;&#9;&#9;c0.1,0.2-0.2,0.7-0.2,1c-6-0.1-9.9,3.3-13.4,7.7c-0.5,0.2-1.1,0.2-1.6,0.2c-0.5,0-1.1-0.2-1.6-0.3c-0.3-0.1-0.5-0.1-0.8-0.2&#10;&#9;&#9;&#9;&#9;c-5.9-0.6-4.4,4.6-5.9,7.5C238.3,191.1,238,191.5,237.7,191.9z"/>
			<path fill-rule="evenodd" clip-rule="evenodd" fill="#B7C2D8" d="M247.9,182.7c0.8-0.6,1.5-1.4,1.5-2.3c0-2.2,1.3-3.4,3.1-4.3&#10;&#9;&#9;&#9;&#9;c0.7-0.3,1.2-0.9,1.9-1.2c2-0.9,3.9-1.3,5.9,0c0.5,0.3,1,0.5,1.5,0.8c0.9,1.2,2.4,2,2.4,3.7c0.2,0.4,0.1,0.7-0.2,1&#10;&#9;&#9;&#9;&#9;c-0.4,0.6-0.8,1.3-1.2,1.9c-0.9,1.8-2.3,2.5-4.3,2.2c-0.2,0-0.4-0.1-0.6-0.1c-2.9-0.5-3.4-0.1-4.4,3&#10;&#9;&#9;&#9;&#9;C249.9,188.1,247.7,186.9,247.9,182.7z"/>
			<path fill-rule="evenodd" clip-rule="evenodd" fill="#ACBCD5" d="M283.9,213c-0.1,0.1-0.3,0.2-0.4,0.4c-2.4,2.3-3.7,2.2-5.5-0.3&#10;&#9;&#9;&#9;&#9;c-0.6-0.8-0.1-2.1,0.9-2.2c1.7-0.1,3.5-0.1,5.2-0.2C284.3,211.5,284.2,212.2,283.9,213z"/>
			<path fill-rule="evenodd" clip-rule="evenodd" fill="#9EB6D3" d="M268.9,175.9c-0.8-1.5-0.5-2.9,0.1-4.4c0.2-0.5,0.9-0.8,1.4-0.6&#10;&#9;&#9;&#9;&#9;c2.3,0.9,4,2.3,4.3,4.9C272.8,176.2,270.8,176.1,268.9,175.9z"/>
			<path fill-rule="evenodd" clip-rule="evenodd" fill="#D2CDD9" d="M278.2,152.5c-0.2,0.3-0.3,0.7-0.6,0.9c-0.9,0.8-1.4,0.9-2.3,0&#10;&#9;&#9;&#9;&#9;c-0.3-0.2-0.4-0.6-0.6-0.9C275.8,152.2,277,152.2,278.2,152.5z"/>
			<path fill-rule="evenodd" clip-rule="evenodd" fill="#D1CFDD" d="M252.6,159.6c0.1-0.3,0.3-0.9,0.5-1.4c0.2-0.4,1.1-0.6,1.5-0.3&#10;&#9;&#9;&#9;&#9;c0.3,0.2,0.6,0.4,0.8,0.7c0.6,1,0.9,2,0.8,3.2c0,0.5-0.6,0.9-1.2,0.9c-1.4,0-2.2-0.6-2.4-1.9&#10;&#9;&#9;&#9;&#9;C252.6,160.5,252.6,160.1,252.6,159.6z"/>
			<path fill-rule="evenodd" clip-rule="evenodd" fill="#C5C9DA" d="M240.9,240.9c0.4,0,0.8,0,1.2,0c1.9,0.4,2.6-0.5,2.3-2.3l0,0&#10;&#9;&#9;&#9;&#9;c-0.4-6.4,4.7-5.8,8.5-6.7c2.6,2.7,7.6,2.3,8.9,6.7c1.4,2.2,1.2,4.6,1.3,7c-0.3,0.1-0.9,0.4-1,0.3c-3.1-2.4-6.9-1.8-10.3-2.4&#10;&#9;&#9;&#9;&#9;c-1.2-0.2-2.1,0.9-2.8,1.8c-0.5,0.7-0.2,1.4,0.1,2.2c0.3,0.9-0.2,1.6-0.9,1.5c-2.4-0.4-4.8-0.6-7.3,0c-1.1,0.3-2.2-0.5-3.2-1.1&#10;&#9;&#9;&#9;&#9;c0-2.3,0-4.5,0-6.8C238.7,239.9,239.8,240.2,240.9,240.9z"/>
			<path fill-rule="evenodd" clip-rule="evenodd" fill="#B1BFD7" d="M254.9,275.9c-2.9,0.1-5.8,0-8.6-1c-0.3-0.1-0.8,0-1.1,0&#10;&#9;&#9;&#9;&#9;c-0.8,0-1.3,0.9-0.9,1.7c0.3,0.7,0.7,1.3,1,2c0.2,0.4-0.5,1.4-0.8,1.3c-1.7-0.4-3.4-0.6-5-1.2c-0.7-0.2-1.1-1-1.7-1.5&#10;&#9;&#9;&#9;&#9;c0-1.9,0-3.9,0-5.8c2.1,1.1,4.4,1.1,6.7,0.9c0.5-0.1,1.2-0.2,1.6-0.6c1.8-1.7,4.2-1.7,6.3-2.5c0.8-0.3,1.5,0.1,1.8,0.9&#10;&#9;&#9;&#9;&#9;c0.2,0.7,0.3,1.6,0.8,2.1C256.1,273.5,255.4,274.6,254.9,275.9z"/>
			<path fill-rule="evenodd" clip-rule="evenodd" fill="#B1BFD7" d="M263,281.7c-1.6,0.4-3.3,0.8-4.9,1.4c-1.5,0.5-2.5-0.1-3.5-1.1&#10;&#9;&#9;&#9;&#9;c-0.3-0.3-0.5-0.5-0.8-0.8c-0.9-1-1.3-2.2,0.3-3.3c0.3-0.2,0.5-0.6,0.7-0.8c1.8-1,3.3-2.5,5.4-3.1c1.1-0.3,2.5,0.4,2.5,1.6&#10;&#9;&#9;&#9;&#9;C262.9,277.5,262.9,279.6,263,281.7z"/>
			<path fill-rule="evenodd" clip-rule="evenodd" fill="#CBCBDB" d="M253.9,251.2c0-0.9,0.9-1.9,1.8-1.9c0.7,0,1.6,0,2.2,0.3&#10;&#9;&#9;&#9;&#9;c1.4,0.6,2.7,1.4,4,2.2c0.6,0.3,0.7,1.4,0.3,2c-0.1,0.2-0.2,0.3-0.3,0.5c-1.1,1-1.9,2.8-3.6,2.4c-2.1-0.5-3.5-2.2-4.2-4.3&#10;&#9;&#9;&#9;&#9;C253.8,252,253.9,251.6,253.9,251.2z"/>
			<path fill-rule="evenodd" clip-rule="evenodd" fill="#A5BAD5" d="M235.1,213c0.8-0.4,1.5-0.8,2.3-1.2c1.9,0.9,3.9,2.7,5.8,0&#10;&#9;&#9;&#9;&#9;c1.5,0.8,3.1,1.2,4.8,1.2c1.1,0,2.2,0,3.3,0c-0.9,1.2-2.2,1.7-3.5,2.3l0,0c0,0.4,0,0.8,0,1.2c-1.1,1.6-3.5,0.7-4.6,2.3&#10;&#9;&#9;&#9;&#9;c-0.5-0.2-1-0.6-1.6-0.6c-2.8,0-4.5-1.4-5.8-3.7C235.6,214,235.3,213.5,235.1,213z"/>
			<path fill-rule="evenodd" clip-rule="evenodd" fill="#C5C9DA" d="M259.5,195.5c-0.2-0.5-0.5-1-0.7-1.5c-0.6-1.8-0.1-2.8,1.8-3.5&#10;&#9;&#9;&#9;&#9;c0.3-0.1,0.7-0.2,1.1-0.1c0.3,0.1,0.8,0.3,0.9,0.6c0.7,2,0.9,4-0.7,5.8C261.3,195.9,260.5,195.6,259.5,195.5z"/>
			<path fill-rule="evenodd" clip-rule="evenodd" fill="#ACBCD5" d="M243.2,211.8c0,0.2,0,0.4,0,0.6c-0.1,1.1-0.2,2.3-1.6,2.7&#10;&#9;&#9;&#9;&#9;c-1.7,0.4-3-0.1-3.8-1.6c-0.3-0.5-0.3-1.1-0.4-1.6c0-0.4,0-0.8,0-1.2c0.8-1,1.6-0.2,2.3,0c0.6,0.7,1.7,0.4,2.3,1.2&#10;&#9;&#9;&#9;&#9;C242.5,211.8,242.8,211.8,243.2,211.8z"/>
			<path fill-rule="evenodd" clip-rule="evenodd" fill="#A5BAD5" d="M242.1,211.8c-0.9-0.1-1.8-0.4-2.3-1.2&#10;&#9;&#9;&#9;&#9;C240.7,210.7,241.5,211,242.1,211.8z"/>
			<path fill-rule="evenodd" clip-rule="evenodd" fill="#BCC4D9" d="M261.8,238.6c-1.4-0.7-2.4-2-4-2.2c-1.1-0.2-2.5,0.4-3.2-0.8&#10;&#9;&#9;&#9;&#9;c-0.5-0.8-0.6-1.8-0.9-2.7c-0.2-0.8-0.2-1.6,0-2.4c-0.1-1.5-0.2-3.1-0.2-4.6c0-0.2,0.6-0.7,0.8-0.6c1.7,0.4,3.4,0.6,5.2,0.3&#10;&#9;&#9;&#9;&#9;c0.8-0.2,2.8,1.4,2.6,2c-1.3,2.7,0.7,4.9,1,7.3C263,236.2,262.4,237.4,261.8,238.6z"/>
			<path fill-rule="evenodd" clip-rule="evenodd" fill="#A1B8D4" d="M253.7,230.5c1,1.2,1,1.2,0,2.4c-0.4,0.1-0.8,0-1.1,0.2&#10;&#9;&#9;&#9;&#9;c-2,1.1-4.1,2.1-6.2,2.9c-1.2,0.4-1.8,1.4-2,2.6c-1.6-1.8-3.3-3.3-5.8-3.5c-0.4-2.7,2-2.8,3.4-3.8c2-0.6,3.7-1.8,5.7-2.4&#10;&#9;&#9;&#9;&#9;c0.5-0.2,1,0,1.4,0.3C250.7,229.2,252.2,229.7,253.7,230.5z"/>
			<path fill-rule="evenodd" clip-rule="evenodd" fill="#C2C7DA" d="M249,229.3c-0.4,0-0.8,0-1.1,0c-1.5,1.3-3.6,1.6-4.7,3.5&#10;&#9;&#9;&#9;&#9;c-1,0.4-2,0.8-2.9,1.2c-0.6,0.3-1.2,0.7-1.8,1.1c-0.7-0.7-1-1.5-1-2.5c0-1.5,0.1-2.9,0.2-4.3c0.7,0.2,1.5,0.2,2.2,0.5&#10;&#9;&#9;&#9;&#9;c1.1,0.4,2.2,0.4,3.2,0c0.5-0.2,1-0.4,1.5-0.7C246.5,227.2,247.8,227.9,249,229.3z"/>
			<path fill-rule="evenodd" clip-rule="evenodd" fill="#9FB7D3" d="M243.2,218.8c0.2-1.4,1-2.2,2.5-2.3c0.7,0,1.4,0,2.1-0.1&#10;&#9;&#9;&#9;&#9;c-0.2,1.4-1,2.2-2.5,2.3C244.7,218.8,243.9,218.8,243.2,218.8z"/>
			<path fill-rule="evenodd" clip-rule="evenodd" fill="#C1C7D9" d="M247.9,182.7c1.2,2.5,3.5,3.5,5.8,4.7c-0.8,2-1.2,2.3-2.7,2&#10;&#9;&#9;&#9;&#9;c-0.4-0.1-0.7-0.2-1.1-0.4c-0.4-0.1-0.7-0.2-1.1-0.3c-1-0.1-1.9,0.3-2.7,0.8c-0.7,0.4-0.9,1.1-1,1.9c-0.1,0.6-0.6,0.9-1.2,0.9&#10;&#9;&#9;&#9;&#9;c-2.1-0.1-4.2-0.3-6.2-0.4c0-0.3,0-0.7,0-1c0.9-1.7,1-3.6,1.5-5.4c0.9-3.2,2.5-5.5,6.4-3.9l0,0c0.4,0.4,0.8,0.7,1.2,1.1&#10;&#9;&#9;&#9;&#9;C247.1,182.7,247.5,182.7,247.9,182.7z"/>
			<path fill-rule="evenodd" clip-rule="evenodd" fill="#9FB7D3" d="M251.5,200.2c-0.6,0.6-1,1.2-1.6,1.6c-1.2,0.8-2.6,0.8-3.8-0.2&#10;&#9;&#9;&#9;&#9;c-0.9-0.7-1.9-1.4-2.2-2.6c-0.1-0.3,0-0.8,0.2-1c0.2-0.3,0.6-0.6,0.9-0.6c0.6,0,1.1,0.2,1.7,0.4&#10;&#9;&#9;&#9;&#9;C248.3,198.6,249.8,199.4,251.5,200.2z"/>
			<path fill-rule="evenodd" clip-rule="evenodd" fill="#C4C8DA" d="M241.9,203.6c-0.2,0.4-0.5,0.9-0.9,1.3c-0.1,0.1-0.8,0-0.9-0.2&#10;&#9;&#9;&#9;&#9;c-0.4-0.7-0.4-1.5,0.1-2.1c0.2-0.2,0.6-0.3,1-0.4c0.1,0,0.4,0.2,0.4,0.3C241.7,202.7,241.7,203.1,241.9,203.6z"/>
			<path fill-rule="evenodd" clip-rule="evenodd" fill="#A1B8D4" d="M244.4,238.6c0.4,0.4,1,0.6,1.3,1.1c0.2,0.2,0.1,0.8-0.1,1&#10;&#9;&#9;&#9;&#9;c-1.3,1.2-1.9,1.2-3.5,0.2C243.1,240.5,243.9,239.7,244.4,238.6z"/>
			<path fill-rule="evenodd" clip-rule="evenodd" fill="#A1B8D4" d="M240.9,240.9c-1.1,0.1-2.2,0.1-3.2,0.2c0-0.4,0-0.8,0.1-1.1&#10;&#9;&#9;&#9;&#9;c0.3-0.9,1.1-1.2,1.7-0.7C240,239.7,240.4,240.4,240.9,240.9z"/>
			<path fill-rule="evenodd" clip-rule="evenodd" fill="#A5BAD5" d="M245.6,181.5c-1.5,0-3,0.2-4.1,1.3c-1,1-1.8,2-1.4,3.4&#10;&#9;&#9;&#9;&#9;c0.7,2.3-0.8,3.4-2.3,4.6c-0.6-2.7,0.5-5.2,1.4-7.6c0.3-0.7,0.9-1.2,1.4-1.7C241.9,180.2,243.4,180.2,245.6,181.5z"/>
			<path fill-rule="evenodd" clip-rule="evenodd" fill="#B7C2D8" d="M246.8,182.7c-0.4-0.4-0.8-0.7-1.2-1.1&#10;&#9;&#9;&#9;&#9;C246,181.9,246.4,182.3,246.8,182.7z"/>
			<path fill-rule="evenodd" clip-rule="evenodd" fill="#BBC4D8" d="M258.2,277.6c0.2,0.2,0.4,0.4,0.7,0.6c-0.2,0.2-0.5,0.4-0.8,0.5&#10;&#9;&#9;&#9;&#9;c-0.1,0-0.3-0.2-0.4-0.3C257.6,278,257.8,277.7,258.2,277.6z"/>
			<path fill-rule="evenodd" clip-rule="evenodd" fill="#ACBCD5" d="M247.9,215.3c-0.1-0.1-0.2-0.1-0.4-0.2&#10;&#9;&#9;&#9;&#9;C247.6,215.2,247.8,215.2,247.9,215.3L247.9,215.3z"/>
			<path fill-rule="evenodd" clip-rule="evenodd" fill="#ACBCD5" d="M243.2,232.8c0.2-1.2,0.8-2.2,2-2.6c0.9-0.3,1.8-0.6,2.7-0.8&#10;&#9;&#9;&#9;&#9;C247,231.3,245,231.9,243.2,232.8z"/>
		</g></svg>