<?xml version="1.0" encoding="utf-8"?>
<svg id="master-artboard" viewBox="0 0 57.82746124267578 57.37019348144531" version="1.1" xmlns="http://www.w3.org/2000/svg" x="0px" y="0px" style="enable-background:new 0 0 2400 2400;" width="57.82746124267578px" height="57.37019348144531px"><rect id="ee-background" x="0" y="0" width="57.82746124267578" height="57.37019348144531" style="fill: white; fill-opacity: 0; pointer-events: none;"/>


<linearGradient id="SVGID_2_" gradientUnits="userSpaceOnUse" x1="1410.6602" y1="612.3174" x2="1410.6602" y2="759.7188">
			<stop offset="0" style="stop-color:#FFFFFF"/>
			<stop offset="8.962709e-02" style="stop-color:#FFFFFF;stop-opacity:0.9104"/>
			<stop offset="1" style="stop-color:#FFFFFF;stop-opacity:0"/>
		</linearGradient><linearGradient id="SVGID_3_" gradientUnits="userSpaceOnUse" x1="568.7758" y1="1033.4707" x2="568.7758" y2="1180.8721">
			<stop offset="0" style="stop-color:#FFFFFF"/>
			<stop offset="8.962709e-02" style="stop-color:#FFFFFF;stop-opacity:0.9104"/>
			<stop offset="1" style="stop-color:#FFFFFF;stop-opacity:0"/>
		</linearGradient><linearGradient id="SVGID_4_" gradientUnits="userSpaceOnUse" x1="989.4824" y1="1033.4707" x2="989.4824" y2="1180.8721">
			<stop offset="0" style="stop-color:#FFFFFF"/>
			<stop offset="8.962709e-02" style="stop-color:#FFFFFF;stop-opacity:0.9104"/>
			<stop offset="1" style="stop-color:#FFFFFF;stop-opacity:0"/>
		</linearGradient><linearGradient id="SVGID_5_" gradientUnits="userSpaceOnUse" x1="989.4824" y1="1459.957" x2="989.4824" y2="1607.3584">
			<stop offset="0" style="stop-color:#FFFFFF"/>
			<stop offset="8.962709e-02" style="stop-color:#FFFFFF;stop-opacity:0.9104"/>
			<stop offset="1" style="stop-color:#FFFFFF;stop-opacity:0"/>
		</linearGradient><linearGradient id="SVGID_6_" gradientUnits="userSpaceOnUse" x1="568.7758" y1="612.3174" x2="568.7758" y2="759.7188">
			<stop offset="0" style="stop-color:#FFFFFF"/>
			<stop offset="8.962709e-02" style="stop-color:#FFFFFF;stop-opacity:0.9104"/>
			<stop offset="1" style="stop-color:#FFFFFF;stop-opacity:0"/>
		</linearGradient><linearGradient id="SVGID_7_" gradientUnits="userSpaceOnUse" x1="568.7729" y1="1453.8203" x2="568.7729" y2="1694.2368">
			<stop offset="0" style="stop-color:#FFFFFF"/>
			<stop offset="8.962709e-02" style="stop-color:#FFFFFF;stop-opacity:0.9104"/>
			<stop offset="1" style="stop-color:#FFFFFF;stop-opacity:0"/>
		</linearGradient><linearGradient id="SVGID_8_" gradientUnits="userSpaceOnUse" x1="1410.6587" y1="1453.9365" x2="1410.6587" y2="1694.353">
			<stop offset="0" style="stop-color:#FFFFFF"/>
			<stop offset="8.962709e-02" style="stop-color:#FFFFFF;stop-opacity:0.9104"/>
			<stop offset="1" style="stop-color:#FFFFFF;stop-opacity:0"/>
		</linearGradient><linearGradient id="SVGID_9_" gradientUnits="userSpaceOnUse" x1="1831.2266" y1="1028.2861" x2="1831.2266" y2="1268.7036">
			<stop offset="0" style="stop-color:#FFFFFF"/>
			<stop offset="8.962709e-02" style="stop-color:#FFFFFF;stop-opacity:0.9104"/>
			<stop offset="1" style="stop-color:#FFFFFF;stop-opacity:0"/>
		</linearGradient><linearGradient id="SVGID_10_" gradientUnits="userSpaceOnUse" x1="1831.2266" y1="616.6191" x2="1831.2266" y2="842.0728">
			<stop offset="0" style="stop-color:#FFFFFF"/>
			<stop offset="8.962709e-02" style="stop-color:#FFFFFF;stop-opacity:0.9104"/>
			<stop offset="1" style="stop-color:#FFFFFF;stop-opacity:0"/>
		</linearGradient><linearGradient id="SVGID_11_" gradientUnits="userSpaceOnUse" x1="1831.2266" y1="1461.0557" x2="1831.2266" y2="1686.5093">
			<stop offset="0" style="stop-color:#FFFFFF"/>
			<stop offset="8.962709e-02" style="stop-color:#FFFFFF;stop-opacity:0.9104"/>
			<stop offset="1" style="stop-color:#FFFFFF;stop-opacity:0"/>
		</linearGradient>
<linearGradient id="gradient-1" gradientUnits="userSpaceOnUse" x1="1410.6602" y1="612.3174" x2="1410.6602" y2="759.7188">
			<stop offset="0" style="stop-color:#FFFFFF"/>
			<stop offset="8.962709e-02" style="stop-color:#FFFFFF;stop-opacity:0.9104"/>
			<stop offset="1" style="stop-color:#FFFFFF;stop-opacity:0"/>
		</linearGradient><g transform="matrix(0.15206807851791382, 0, 0, 0.15206807851791382, 1.7105228134582262, 0.7731057178345182)"><g transform="matrix(1, 0, 0, 1, -1230.4051513671875, -589.546630859375)">
			<path class="st3" d="M1518.7,596.2h-216c-39.6,0-72,32.4-72,72v216c0,39.6,32.4,72,72,72h216c39.6,0,72-32.4,72-72v-216&#10;&#9;&#9;&#9;&#9;C1590.7,628.6,1558.3,596.2,1518.7,596.2z" style="fill: rgb(215, 25, 32);"/>
			<path class="st1" d="M1448.7,633.2c0,0-84.4,0-133.7,0c-32.3,0-65.4,15.7-84.3,41.5v118.9c22.1,26.9,54,31.1,78.5,30.3&#10;&#9;&#9;&#9;&#9;c-6.6,13.7-8.6,34.5,10.7,50.8c-25.9-2.8-59.4,0.8-88.6,18.2c1.5,12.1,6,23.3,12.7,32.8c31.4-36,77.8-35.8,103.5-28.4&#10;&#9;&#9;&#9;&#9;c27.7,18.1,49.4,25.2,53.7,58.9h42c4.5-56.3-34.2-78.4-64.5-101.4c-33.7-25.5-11.9-39.7,11.4-59.6c25.4-21.6,31.9-41.7,31.9-70.2&#10;&#9;&#9;&#9;&#9;c0-20.7-13.1-44.6-27.7-58.4c11.4,0,23,0,23,0L1448.7,633.2z M1343.3,797.5c-24.9,10.5-65.6-4.9-79.9-49.5&#10;&#9;&#9;&#9;&#9;c-14.3-44.6,1.2-76,24.4-86.3c30.3-13.4,58.3,9.4,73.6,46.8C1376.3,745.1,1368.2,787,1343.3,797.5z M1537,694v-53.6h-33.2V694&#10;&#9;&#9;&#9;&#9;h-53.6v33.2h53.6v53.6h33.2v-53.6h53.6V694H1537z" style="fill: rgb(255, 255, 255);"/>
		</g><path class="st4" d="M1510.2,612.3h-199c-36.5,0-66.3,29.8-66.3,66.3c0,40.7,32.4,81.1,165.8,81.1c133.4,0,165.9-41.1,165.9-81.1&#10;&#9;&#9;&#9;C1576.5,642.2,1546.6,612.3,1510.2,612.3z" style="opacity: 0.5; fill: url('#gradient-1');" transform="matrix(1, 0, 0, 1, -1230.4051513671875, -589.546630859375)"/></g></svg>