<?xml version="1.0" encoding="utf-8"?>
<svg id="master-artboard" viewBox="0 0 177.89288330078125 118.46823120117188" version="1.0" xmlns="http://www.w3.org/2000/svg" x="0px" y="0px" enable-background="new 0 0 1400 978" width="177.89288330078125px" height="118.46823120117188px"><rect id="ee-background" x="0" y="0" width="177.89288330078125" height="118.46823120117188" style="fill: white; fill-opacity: 0; pointer-events: none;"/>

<g transform="matrix(0.9999999999999999, 0, 0, 0.9999999999999999, -457.6060803193883, -428.2820300684746)">
			<path fill-rule="evenodd" clip-rule="evenodd" fill="#EBBBB5" d="M516.9,497.5c-0.8-1.4-0.6-3-0.6-4.5c0.1-8.8-1.4-7.7,7.5-7.7&#10;&#9;&#9;&#9;&#9;c11.2,0,22.4,0,33.6,0c1.2,0,2.3,0,3.4,0.2c0.4,0.1,1.1,0.7,1.1,1.1c0,3.1,0.1,6.2-0.1,9.2c-0.2,2.3-0.7,4.6-1.1,6.8&#10;&#9;&#9;&#9;&#9;c-0.1,0.5-0.5,1-0.8,1.5c-0.5,0.3-0.9,0.4-1.4,0.1c-1.3-3.1-3.5-5.7-4.9-8.7c0.7-2.1,1-3.9-2.2-2.3c-6,3-12.2,5.2-19.1,4.4&#10;&#9;&#9;&#9;&#9;c-4.1-3.2-8.1-1.3-12.2,0C519.1,497.7,518,497.8,516.9,497.5z"/>
			<path fill-rule="evenodd" clip-rule="evenodd" fill="#EB9383" d="M472.6,466.8c2.4-5.8,5.6-10.2,10.2-14.1&#10;&#9;&#9;&#9;&#9;c2.7-0.9,5.3-0.7,6.7,0.5c-1.2-0.6-2.7-2.1-1.8-4.8c0.1-0.3,0.3-0.5,0.6-0.4c0.8,0,1.3-0.5,1.6-1.1l0,0c4.1-0.7,7.5-2.6,10.6-5.4&#10;&#9;&#9;&#9;&#9;c5.2-2.1,10.6-3.3,16.3-2.6c0.5,1.1-0.3,1.7-1,2.3c-6.1,4.9-6.1,4.9-2.5,10.3c-0.9,0.2-1.9,0.4-2.8,0.6&#10;&#9;&#9;&#9;&#9;c-6.2,1.2-11.7,3.8-16.6,7.8c-0.4,0.4-1,0.6-1.5,0.9c-4.1,2.2-7.7,5.4-12.4,6.6C477.4,468.2,474.8,469.4,472.6,466.8z"/>
			<path fill-rule="evenodd" clip-rule="evenodd" fill="#EA7F6D" d="M487,508.8c2.7,3.3,5.8,6.2,9,9.1c-4.2,1.9-5.2,6.6-8.3,9.4&#10;&#9;&#9;&#9;&#9;c-4.7-2.8-8.1-6.8-11.2-11.1c-1.6-2.3-3.4-4.6-4-7.5c-1.1-6.3,1.9-9.7,9.3-10.5c1.2,1.7,1.6,3.6,2.2,5.5&#10;&#9;&#9;&#9;&#9;C482.7,506.8,485.7,507.4,487,508.8z"/>
			<path fill-rule="evenodd" clip-rule="evenodd" fill="#E98978" d="M578.8,486.3c0.5-0.3,1-0.7,1.4-0.7c4.2-0.1,8.4,0,12.6,0&#10;&#9;&#9;&#9;&#9;c1.1,0,2.3-0.1,3.4-0.2c0.3,0,0.7-0.5,0.8-0.8c0.2-1.1,0.3-2.3,0.3-3.4c0-4.2,0-8.4,0-12.6c0-0.6,0.4-1,0.9-1.3&#10;&#9;&#9;&#9;&#9;c0.9,0.7,1.9,1.1,2.4,2.2c0.4,5,4,6.4,8.2,6.9c0.2,2.5,0.3,5,0.5,7.5c0.1,1.1,0.8,1.8,1.8,1.9c1.7,0,3.5,0,5.2,0.1&#10;&#9;&#9;&#9;&#9;c2.1,0.1,4.2,0.2,6.3,0.2c0.3,0.5,0.2,1-0.2,1.5c-0.7,0.5-1.4,0.9-2.2,1c-2.5,0.2-5-0.1-7.4-0.3c-0.8-0.1,0.2,0-0.6,0.1&#10;&#9;&#9;&#9;&#9;c0.3,0.5,0.8,0.1,1.1,0.3c2,0.9,3.3,2.3,2.6,4.5c-0.7,2.1-1.9,3.7-4.6,3.7c-1.7,0-3.4,0.7-5.1,1c-1.9,0.4-4.1-0.4-4.1-2.2&#10;&#9;&#9;&#9;&#9;c-0.1-4.7-3.6-4.4-6.5-5.3c-0.5-0.2-0.9-0.4-1.3-0.7c-0.7-0.2-1.4-0.5-2.1-0.7c-0.8-0.2-1.5-0.3-2.3-0.3c-1.4,0-2.9,0-4.3,0.1&#10;&#9;&#9;&#9;&#9;C583,488.9,580.5,488.9,578.8,486.3z"/>
			<path fill-rule="evenodd" clip-rule="evenodd" fill="#E9ABA1" d="M483.1,473.9c0,0.4,0,0.8-0.1,1.1c-1.8,4.8-2.5,9.7-2.3,14.8&#10;&#9;&#9;&#9;&#9;c0,0.6-0.1,1.2-0.1,1.7c-5,2.9-8.8,0.2-12.6-2.7c-0.7-5.1,0.1-10,1.7-14.8c0.1-0.2,0.2-0.3,0.4-0.4c2.9-3.1,7.2-3.4,10.9-4.5&#10;&#9;&#9;&#9;&#9;C483.9,468.3,484.1,471.4,483.1,473.9z"/>
			<path fill-rule="evenodd" clip-rule="evenodd" fill="#EB8C7C" d="M487.6,527.4c0-0.9,0.1-1.9,0.1-2.8c0-1.5,0.6-2.5,2-3.1&#10;&#9;&#9;&#9;&#9;c1.3-0.6,1.3-1.7,1.2-2.9c-0.1-0.7,0.6-1.2,1-0.8c1.3,1.4,2.7,1.1,4.1,0.2c3.1,1.6,6.2,3.2,9.3,4.7c0.1,5.3,5.4,5.9,8.1,9&#10;&#9;&#9;&#9;&#9;c0.3,0.5,0.4,1,0.5,1.5c-0.2,0.8-0.7,1.4-1.3,1.9c-0.9,0.5-2,0.6-2.7,1.5c-1.4,0.2-2.7,0.2-3.8-0.8c0.2-0.4,0.1-0.6-0.2-0.7&#10;&#9;&#9;&#9;&#9;c-0.3-0.1-0.5,0.1-0.7,0.5c-1.4,0.1-2.6,0.1-3.7-1c-1.1-1.7-2.5-2.5-4.5-1.6C493.5,531.8,490.3,530,487.6,527.4z"/>
			<path fill-rule="evenodd" clip-rule="evenodd" fill="#E89181" d="M530.8,454c-0.4,0-0.8,0-1.1-0.1c-4.3-1.6-8.8-2.4-13.4-2.2&#10;&#9;&#9;&#9;&#9;c-0.6,0-1.1-0.1-1.7-0.2c1.8-5,6-4.9,10.2-4.9c0.9,0.1,1.9,0.4,2.8-0.2c0.3-0.3,0.7-0.6,1-0.9c0.7-3.2-2.7-2.3-3.7-3.8&#10;&#9;&#9;&#9;&#9;c-0.5-0.3-0.8-0.7-1.2-1.1c-0.3-0.5-0.2-1,0.1-1.5c3.1,0,6,1,9,2c6.3,2.1,11.9,5.3,16.9,9.7c1.6,1.4,1.5,2.1-0.3,3.6&#10;&#9;&#9;&#9;&#9;c-0.7,0.6-1.5,1.1-2.3,1.6c-1.5-0.3-3.1-0.3-4.4-1.4C538.9,451.5,534.9,452,530.8,454z"/>
			<path fill-rule="evenodd" clip-rule="evenodd" fill="#EC9789" d="M594.8,487.8c0.7,0.3,1.4,0.7,2.1,1c1.3,0.7,2.5,0.8,3.7-0.2&#10;&#9;&#9;&#9;&#9;c0.3-0.2,0.7-0.3,1.1-0.4c0.6-0.2,1.7,0.6,1.8,1.2c0.1,1.3,0.2,2.7-0.2,4c-0.1,0.5,0,1.1,0,1.7c0.1,0.6,1.2,1.5,1.7,1.2&#10;&#9;&#9;&#9;&#9;c1.8-1.2,3.5-1,5.4-0.5c1.2,0.3,2.3-0.1,2.9-1.3c0.3-0.7,0.8-1.3,1.2-1.9c0.6-0.8,0.2-1.4-0.2-2.1c-0.3-0.5-0.6-1-0.9-1.5&#10;&#9;&#9;&#9;&#9;c2-1.8,5.1-0.2,7-2.2c0.8,0,1.5-0.1,2.3-0.1c4.1-1.6,5.8,0,5.3,4.2c-0.2,2.1,0.5,4.2-0.6,6.2c-1.1,0.1-2.2,0.4-3.4,0.4&#10;&#9;&#9;&#9;&#9;c-3.8,0.1-7.6,0-11.4,0c-0.6,0-1.1,0.1-1.7,0.1c-0.6,0-1.4,0.8-1.5,1.5c-0.2,1.3-0.3,2.6-0.5,3.9c-3.3-1.6-7.4-1.9-8.7-6.3&#10;&#9;&#9;&#9;&#9;c-0.1-0.5-0.2-1-0.4-1.5c-0.6-1.6-2.2-1.9-3.5-2.5C594.1,491.6,593,490.1,594.8,487.8z"/>
			<path fill-rule="evenodd" clip-rule="evenodd" fill="#E89181" d="M558.7,504.1c0.4,0,0.8,0.1,1.2,0.1c0.3,1.8-0.6,3.4-1.3,5&#10;&#9;&#9;&#9;&#9;c-2.1,5.4-4.9,10.5-9.3,14.4c-4.2,0.5-6.6-1.5-7.8-5.4c0-0.5,0.2-0.9,0.4-1.3c0-0.6,1.1,0.4,0.9-0.6c-0.3-0.3-0.6-0.4-1.1-0.4&#10;&#9;&#9;&#9;&#9;c-0.9-0.2-1.6-0.5-2-1.4c0.6-1.3,1.3-2.5,2.5-3.4c2.6-0.2,5.2-0.8,7.5-2.2c0.8-1.3,1.1-2.9,2.1-4.1c0.4-0.4,0.8-0.8,1.3-1.1&#10;&#9;&#9;&#9;&#9;C555.1,502.6,557,502.3,558.7,504.1z"/>
			<path fill-rule="evenodd" clip-rule="evenodd" fill="#E89080" d="M513.3,533.2c-0.5-0.3-0.9-0.9-1.4-0.9c-2.3-0.2-3.9-1.3-5-3.3&#10;&#9;&#9;&#9;&#9;c-0.6-1.1-1.8-1.4-2.9-1.7c-0.7-0.2-1.4-0.7-1.6-1.5c-0.2-0.9,0.5-2.1,1.6-2.7c0.3-0.2,0.7-0.2,1.1-0.3c0.2,0,0.4,0,0.6,0&#10;&#9;&#9;&#9;&#9;c5.3,1.5,10.8,1.6,16.3,1.3c0.2,0,0.4,0,0.6,0c2.4,0.4,3.5,1.9,3.8,4.2c0.5,0.9,1.4,1.3,2.1,1.9c1.5,1.2,3.7,2,3.7,4.5&#10;&#9;&#9;&#9;&#9;c-0.7,0.8-1.6,1-2.6,0.8c-0.3,0-0.9-1.1-1,0.2c-1,0.9-2.3,1.1-3.6,0.9c-2.6-1.3-4-3.4-4.8-6.5C518.6,533,516.6,534.7,513.3,533.2&#10;&#9;&#9;&#9;&#9;z"/>
			<path fill-rule="evenodd" clip-rule="evenodd" fill="#EA9C8F" d="M523.8,440c0.4,0.1,0.7,0.1,1.1,0.2c0.4,1.1-0.2,1.5-1,1.8&#10;&#9;&#9;&#9;&#9;c0,0-0.1,0.5-0.1,0.5s0.3-0.3,0.4-0.3c3.2,0.1,5.8,0.7,4.3,4.9l0,0c-0.6,0.7-1,1.9-2.3,1.2c-1.3,0-2.6,0-3.9,0.1&#10;&#9;&#9;&#9;&#9;c-0.7,0-1.7,0.1-2.1,0.5c-1.5,1.6-3.9,1.4-5.5,2.7c-0.4,0-0.9,0-1.3,0.1c-1.3-1.4-2.8-2.1-4.5-0.7c-0.3,0.2-0.7,0.3-1.1,0.3&#10;&#9;&#9;&#9;&#9;c-0.3-0.1-0.8-0.5-0.8-0.6c0.3-1.3,0.5-2.6,1.1-3.8c0.9-1.8,2.2-3.5,3.2-5.3c0.4-0.7,1.1-1.1,1.9-1.2c1.3-0.2,2.7-0.1,3.7-1.3&#10;&#9;&#9;&#9;&#9;c2-0.4,3.9-0.3,5.9,0.2C523.1,439.3,523.5,439.6,523.8,440z"/>
			<path fill-rule="evenodd" clip-rule="evenodd" fill="#EA7361" d="M467.9,488.9c2.5,0,4.9,0,7.1,1.5c1.6,1.1,3.7,0.7,5.5,1.1&#10;&#9;&#9;&#9;&#9;c0.4,2.2,1.3,4.4,1.2,6.7c-1.3,0.8-2.9,1.2-3.3,2.8c-0.6,2.1-1.8,2.6-3.8,2.2c-1-0.2-1.8,0.6-1.9,1.6c-0.1,1.3-0.2,2.6-0.2,3.9&#10;&#9;&#9;&#9;&#9;c-1.5-2-2.3-4.2-2.6-6.7c0.2-0.6,0.3-1.3,0.3-2c-0.1-0.9-0.3-1.8-1.3-2.1c-0.2-0.3-0.4-0.6-0.5-1&#10;&#9;&#9;&#9;&#9;C467.9,494.4,467.5,491.7,467.9,488.9z"/>
			<path fill-rule="evenodd" clip-rule="evenodd" fill="#EAA194" d="M527.3,530.9c-0.9-0.1-1.8-0.3-2.3-1.1c-0.1-3,0.9-5.4,3.4-7.1&#10;&#9;&#9;&#9;&#9;l-0.1,0c0.7-0.5,1.8-0.3,2.4-1.1c2.3-1.6,4.6-3.1,6.8-4.7c0.6-0.3,1-0.7,1.3-1.3l-0.1,0.1c1.6-0.6,3.2-0.8,4.8,0.1l0,0&#10;&#9;&#9;&#9;&#9;c0.3,0.3,0.3,0.5,0.2,0.8c-0.1,0.2-0.2,0.4-0.3,0.4c-0.4,0-0.8,0-1.1,0c-1.2,1.2-0.6,2.9-1,4.3c0.1,0.8,0.8,0.9,1.4,1.1&#10;&#9;&#9;&#9;&#9;c2.7,1,3.2,2.8,2,5.3l0,0c-2.5,0.8-5,2.3-7.5-0.2c0.7,1.6,1.9,3.1,0.4,4.8l0,0C534.2,532.8,531,530.1,527.3,530.9z"/>
			<path fill-rule="evenodd" clip-rule="evenodd" fill="#E6998C" d="M483.1,473.9c-0.1-0.8-0.1-1.5-0.3-2.3c-0.2-0.8-1-1.7-1.4-1.6&#10;&#9;&#9;&#9;&#9;c-0.5,0.2-1,0.4-1.4,0.8c-0.5,0.5-0.8,1.3-1.4,1.8c-0.7,0.7-1.6,1-2.6,1c-0.6,0-1.2,0-1.7-0.2c-1.5-0.6-3-0.2-4.4,0.3&#10;&#9;&#9;&#9;&#9;c0.2-2.5,1.1-4.9,2.6-6.9c2.9,0.2,5.7-0.1,8.2-1.7c1.5-1,3.3-0.8,4.8-1.6c1.3-0.7,2.4-1.8,3.7-2.6c0.5-0.3,1-0.6,1.6-0.6&#10;&#9;&#9;&#9;&#9;c0.5,0,1,0.4,1.5,0.6c-0.6,0.7-1.2,1.5-1.8,2.2c-2.5,2.7-4.5,5.7-6.2,8.9C484,472.7,483.5,473.3,483.1,473.9z"/>
			<path fill-rule="evenodd" clip-rule="evenodd" fill="#E69384" d="M531.9,497c1.5,0,3.1,0.1,4.6,0.1c1.4,0,2.6-0.4,3.9-1&#10;&#9;&#9;&#9;&#9;c3.6-1.8,7.3-3.4,10.9-5.2c1.4-0.7,2.9-1,4.5-0.7c1.1,0.2,1.7,0.9,2,1.9c0.1,0.3,0,0.9-0.2,1c-1.3,0.7-2.8,1.2-3.6,2.7&#10;&#9;&#9;&#9;&#9;c-0.7,1.7-2.4,2.8-2,5c0.5,3.3-1.4,4.3-4.4,4c-0.8-0.4-1.1-1.1-1.3-1.9c0.2-0.9,0.5-1.8,0.7-2.8c0.2-1.1-0.4-1.9-1.4-2&#10;&#9;&#9;&#9;&#9;c-2.3,0-4.6,0-6.9,0c-6.5,0-13.1,0-19.6,0.1c-0.8,0-1.5,0-2-0.8c1.2-0.1,2.3-0.3,3.5-0.4C524.2,495.9,528.1,494.9,531.9,497z"/>
			<path fill-rule="evenodd" clip-rule="evenodd" fill="#EABCB6" d="M578.8,486.3c2.6,0.1,5.3,0.2,7.9,0.4c2.1,3.7,6.2,5.9,7,10.4&#10;&#9;&#9;&#9;&#9;c-4.5,0.5-9.1,0.3-13.6,0.2c-0.8,0-1.5-0.7-1.5-1.4c0-3,0.1-6.1,0.1-9.1C578.7,486.7,578.7,486.5,578.8,486.3z"/>
			<path fill-rule="evenodd" clip-rule="evenodd" fill="#E7988B" d="M530.8,454c0.5-1,0.9-2.1,1.4-3.1c0.2-0.6,0.7-1,1.3-0.9&#10;&#9;&#9;&#9;&#9;c2.1,0.4,4.1,0.7,6.2,0c0.6-0.2,1.2,0.3,1.4,0.8c0.8,2,2.5,2.8,4.3,3.4c1,0.3,1.5,1.1,1.7,2.1c-0.9,0.9-1.8,1.9-2.8,2.8&#10;&#9;&#9;&#9;&#9;c-2.5,2.2-2.3,2.3-5.2,0.2C536.4,457.3,533.5,455.7,530.8,454z"/>
			<path fill-rule="evenodd" clip-rule="evenodd" fill="#EC9484" d="M608.9,476.2c-1.8,0.1-3.3,1.1-4.9,1.7c-1,0.4-1.9,0.1-2.7-0.4&#10;&#9;&#9;&#9;&#9;c-0.3-0.2-0.8-0.6-0.7-0.8c0.3-2.6-1-4.9-1.1-7.4c0.9-0.5,1.1-1.4,1.3-2.3c2.3-0.1,4.6-0.1,6.9-0.2c0.8,0,1.5,0.7,1.5,1.4&#10;&#9;&#9;&#9;&#9;C609.3,470.8,609.5,473.5,608.9,476.2z"/>
			<path fill-rule="evenodd" clip-rule="evenodd" fill="#E99687" d="M513.3,533.2c1.4-0.6,2.8-1.1,4.2-1.7c0.8-0.4,1.3-1.5,1.1-2.4&#10;&#9;&#9;&#9;&#9;c-0.3-0.9-0.6-1.8-0.8-2.7c-0.1-0.2,0.3-0.8,0.5-0.8c0.3-0.1,0.8,0,1.1,0.2c0.3,0.2,0.6,0.5,0.7,0.9c0.3,1.6,0.9,2.9,2.3,3.8&#10;&#9;&#9;&#9;&#9;c0.4,0.3,1,1,0.9,1.4c-0.4,2,1.5,3.1,1.7,4.8c-5.1,1.1-10.1,1.4-15.2,0.1c-0.1-0.2-0.1-0.3-0.2-0.5c-0.1-1.2,0-1.5,0.9-1.6&#10;&#9;&#9;&#9;&#9;c0.5-0.1,1.1-0.1,1.7-0.1c0.2-0.2,0.5-0.4,0.8-0.4c0,0,0.1-0.4,0.1-0.4C513,533.5,513.3,533.2,513.3,533.2L513.3,533.2z"/>
			<path fill-rule="evenodd" clip-rule="evenodd" fill="#E0C0BF" d="M608.9,504.1c0.6,3.5,0.6,7,0,10.5c-6.6,2.4-9.3,1.6-11.2-3.2&#10;&#9;&#9;&#9;&#9;c0-0.6,0-1.2,0-1.8c0.2-1.4,0.9-2.4,2.4-2.8c0.6-0.1,1.2-0.3,1.6-0.9c0.9-1.1,2-1.9,3.4-2.4C606.5,503.1,607.7,503.2,608.9,504.1&#10;&#9;&#9;&#9;&#9;z"/>
			<path fill-rule="evenodd" clip-rule="evenodd" fill="#ECA69A" d="M608.9,504.1c-1.2,0.4-2.4,0.8-3.6,1.1c-3.3-0.6-5.9,0-6.8,3.7&#10;&#9;&#9;&#9;&#9;c0,0.3-0.1,0.7-0.2,1c-0.2,0-0.4,0-0.7,0c-0.1-3.4-0.2-6.9-0.3-10.3c0-1-0.4-1.8-1.3-2.4c-2-1.5-2-2.8,0.7-3.1&#10;&#9;&#9;&#9;&#9;c1.9-0.2,3.6,0.8,5.1,1.9c0.1,1.6,0.9,2.8,2.5,3.5c0.5,0.2,1,0.5,1.6,0.5c1.1,0.1,1.6,0.7,2,1.7c0.2,0.5,0.7,0.9,1,1.3&#10;&#9;&#9;&#9;&#9;C608.9,503.3,608.9,503.7,608.9,504.1z"/>
			<path fill-rule="evenodd" clip-rule="evenodd" fill="#ECB1A8" d="M601.8,495.9c-1,0.5-2.1,0.7-3.1,0.2c-0.6-0.3-1.3-0.6-2-0.9&#10;&#9;&#9;&#9;&#9;c-0.6-0.2-1,0.2-0.9,0.9c0.1,0.4,0.2,0.7,0.3,1c-0.8,0.3-1.6,0.3-2.3,0c-0.2-1-0.6-1.9-1.6-2.1c-1.5-0.3-2.9-0.8-4.2-1.7&#10;&#9;&#9;&#9;&#9;c-0.6-0.4-1.4-0.3-2.2-0.5c-0.3-0.1-0.7-0.4-0.7-0.6c0-0.3,0.1-0.8,0.4-1c0.4-0.4,0.9-0.6,1.4-0.9c2-1,2-1.1,0.7-2.7&#10;&#9;&#9;&#9;&#9;c-0.2-0.3-0.5-0.6-0.7-0.9c1.5,0,3.1,0,4.6,0c1.6,2.7,2.9,5.7,6.9,5.5c1.5-0.1,2.5,1.5,3.5,2.6&#10;&#9;&#9;&#9;&#9;C601.8,495.2,601.8,495.6,601.8,495.9z"/>
			<path fill-rule="evenodd" clip-rule="evenodd" fill="#E99687" d="M540.1,521.6c0-2,0.3-3.8,2.3-4.7c0.2,0.7,0.3,1.6,0.8,2.1&#10;&#9;&#9;&#9;&#9;c1,1.1,2.3,2.1,3.5,3c0.4,0.3,1.1,0.2,1.7,0.3c0.7,0.1,0.9,0.7,1,1.3c-1.1,1.8-2.5,3.2-4.4,4c0-0.4-0.1-0.7-0.1-1.1&#10;&#9;&#9;&#9;&#9;c-0.1-1.4-0.8-2.4-2-3c-0.5-0.3-1-0.5-1.5-0.8c0,0-0.5,0-0.5,0c-0.3-0.1-0.5-0.3-0.7-0.6C540.1,522.1,540.1,521.6,540.1,521.6z"/>
			<path fill-rule="evenodd" clip-rule="evenodd" fill="#E99687" d="M527.3,530.9c0.1-0.4,0.2-0.7,0.3-1.1c0.3-0.5,0.8-0.9,1.4-0.7&#10;&#9;&#9;&#9;&#9;c0.7,0.2,1.4,0.5,2.1,0.8c0.7,0.3,1.4,0.4,2.1-0.1c0.5-0.4,1.1-0.3,1.6,0.1c1.1,0.8,2.1,1.6,3.1,2.4c-1.6,1.5-3.5,2.2-5.6,2.4&#10;&#9;&#9;&#9;&#9;C530.6,533.3,528.9,532.1,527.3,530.9z"/>
			<path fill-rule="evenodd" clip-rule="evenodd" fill="#DEAEA8" d="M597.6,509.9c0.2,0,0.4,0,0.7,0c0,0.4,0.1,0.7,0.1,1.1&#10;&#9;&#9;&#9;&#9;c0.1,1.5,0.9,2.4,2.3,2.9c1,0.3,2.2,0.6,3.3,0.6c1.7,0.1,3.3,0.1,5,0.1c0,0.8-0.1,1.7-1,1.8c-2.9,0.1-5.8,0.1-8.7,0.1&#10;&#9;&#9;&#9;&#9;c-0.7,0-1.5-0.7-1.6-1.4C597.3,513.3,597.1,511.6,597.6,509.9z"/>
			<path fill-rule="evenodd" clip-rule="evenodd" fill="#E99687" d="M537.9,532.2c-0.9-2.5-1.7-5.1-2.6-7.6c-0.1-0.3,0.1-0.7,0.2-1&#10;&#9;&#9;&#9;&#9;c0.1-0.4,1.1-0.1,1.4,0.4c0.3,0.5,0.6,1,0.8,1.5c0.5,1.2,1.3,1.8,2.6,1.9c1.5,0.1,3.1,0.1,4.6,0.2&#10;&#9;&#9;&#9;&#9;C542.3,530.1,541,531,537.9,532.2z"/>
			<path fill-rule="evenodd" clip-rule="evenodd" fill="#E78A7A" d="M487.7,448.4c0.2,0.3,0.4,0.7,0.5,1c0.9,2.1,2.3,3.4,4.7,3.6&#10;&#9;&#9;&#9;&#9;c0.1,0,0.3,0.2,0.4,0.4c0,0.1-0.1,0.4-0.3,0.4c-1.6,0.8-3.1,1.2-4.9,0.6c-1.8-0.6-3.7-0.7-5.4-1.7&#10;&#9;&#9;&#9;&#9;C484,450.8,485.7,449.4,487.7,448.4z"/>
			<path fill-rule="evenodd" clip-rule="evenodd" fill="#E9A094" d="M551.8,510c-1.4,1.4-2.9,2.3-5,1.6c-1.1-0.4-1.1,0.5-1.2,1.3&#10;&#9;&#9;&#9;&#9;c-0.1,0.8-0.6,0.9-1.2,0.7c-1.2-0.4-1.7-1.4-2-2.5c0.4-1.3,1-2.6,2.1-3.5c0.7-0.5,1.5-1,2.4-0.9&#10;&#9;&#9;&#9;&#9;C549.1,506.8,550.5,508.3,551.8,510z"/>
			<path fill-rule="evenodd" clip-rule="evenodd" fill="#E78A7A" d="M500.5,441.5c0,1.1,0.2,2.4-1.5,2.6c-0.5,0.1-1.1,0.4-1.5,0.8&#10;&#9;&#9;&#9;&#9;c-0.6,0.5-0.9,1.1-0.7,2c0.2,1,0,1.3-0.6,1.1c-2-0.6-4.1-1.2-6.3-1.1c0.9-1.3,2.4-1.9,3.7-2.6C495.8,443.2,498,442,500.5,441.5z"/>
			<path fill-rule="evenodd" clip-rule="evenodd" fill="#DE9589" d="M627.4,497c0-2.5,0-5-0.1-7.5c0-1.6-0.7-2.7-2.9-2.8&#10;&#9;&#9;&#9;&#9;c-0.6,0-1.2-0.1-1.7-0.1c0-0.3,0-0.5,0-0.8c0.9-0.1,1.9-0.2,2.8-0.2c2.2,0,3,0.2,3,2.9c0,2.4,0,4.9-0.1,7.3&#10;&#9;&#9;&#9;&#9;C628.4,496.5,627.9,496.8,627.4,497z"/>
			<path fill-rule="evenodd" clip-rule="evenodd" fill="#E99687" d="M528.4,522.6c-0.1,0.4,0,0.9-0.2,1.1c-1.6,1.7-2.2,4-3.2,6&#10;&#9;&#9;&#9;&#9;c-0.6-0.5-1-1.2-0.7-2c0.7-1.6-0.2-2.4-1.2-3.3c-0.1-0.1-0.3-0.3-0.4-0.4C524.5,523.5,526.3,522.6,528.4,522.6z"/>
			<path fill-rule="evenodd" clip-rule="evenodd" fill="#E0B4AF" d="M487,508.8c-2,0.1-3.6-0.8-5-2.1c-1-0.9-0.8-2.1,0.4-2.6&#10;&#9;&#9;&#9;&#9;c0.5-0.2,1.1-0.3,1.6-0.4C485,505.4,486,507.1,487,508.8z"/>
			<path fill-rule="evenodd" clip-rule="evenodd" fill="#E99687" d="M497,532.9c0.3-0.7,0.5-1.4,0.9-2c0.3-0.5,1.2-0.6,1.5-0.2&#10;&#9;&#9;&#9;&#9;c0.8,0.8,1.7,1.5,2.4,2.4c0.4,0.5,0.1,1.1-0.4,1.5C499.8,534.6,498.4,533.9,497,532.9z"/>
			<path fill-rule="evenodd" clip-rule="evenodd" fill="#E6C1BE" d="M547,507.7c-0.9,0-1.7-0.1-2.6-0.1c0.6-1.5,1.2-3.1,1.8-4.6&#10;&#9;&#9;&#9;&#9;c0.3,0.3,0.6,0.7,0.9,1c1,1.3,4.3,0.7,3.3,3.5C549.9,508.8,548.2,508.3,547,507.7z"/>
			<path fill-rule="evenodd" clip-rule="evenodd" fill="#E6A296" d="M468.8,498c1.4-0.5,1.8-0.1,2.2,0.8c0.2,0.5,0.2,1.1,0.3,1.6&#10;&#9;&#9;&#9;&#9;c-0.5,0.8-1.2,0.7-2,0.4C469.2,499.9,469,499,468.8,498z"/>
			<path fill-rule="evenodd" clip-rule="evenodd" fill="#E9AAA0" d="M600.7,466.9c0.5,1.8,0.5,1.8-1.3,2.3c-0.4-0.7-0.8-1.4-1.1-2.2&#10;&#9;&#9;&#9;&#9;C599.1,466.7,599.9,466.6,600.7,466.9z"/>
			<path fill-rule="evenodd" clip-rule="evenodd" fill="#E99687" d="M543.6,515.8c-1.6,0-3.2-0.1-4.8-0.1c0.1-0.6,0.4-1,1-1.2&#10;&#9;&#9;&#9;&#9;C541.2,514.6,542.6,514.5,543.6,515.8z"/>
			<path fill-rule="evenodd" clip-rule="evenodd" fill="#E99687" d="M528.6,535.6c-0.5-0.1-1.2-0.1-1.3-0.7&#10;&#9;&#9;&#9;&#9;c-0.1-0.4,0.7-0.5,1.4-0.2c0.2,0.1,0.3,0.2,0.5,0.3c0.1,0.1,0.3,0.3,0.4,0.4l-0.5,0.3L528.6,535.6z"/>
			<path fill-rule="evenodd" clip-rule="evenodd" fill="#E99687" d="M505.1,535.6c0.1-0.3,0.1-0.8,0.2-1c0.2-0.2,0.6-0.5,0.8-0.4&#10;&#9;&#9;&#9;&#9;c0.2,0.1,0.5,0.6,0.5,0.8c-0.1,0.3-0.4,0.5-0.7,0.8l-0.5,0.1L505.1,535.6z"/>
			<path fill-rule="evenodd" clip-rule="evenodd" fill="#E99687" d="M530.7,521.5c-0.6,0.9-1.4,1.2-2.4,1.1&#10;&#9;&#9;&#9;&#9;C528.9,521.8,529.7,521.5,530.7,521.5z"/>
			<path fill-rule="evenodd" clip-rule="evenodd" fill="#EA7F6D" d="M469.4,500.9c0.7-0.1,1.3-0.3,2-0.4c-0.5,0.5-0.9,1.1-1.4,1.6&#10;&#9;&#9;&#9;&#9;C469.4,501.8,469.2,501.4,469.4,500.9z"/>
			<path fill-rule="evenodd" clip-rule="evenodd" fill="#E99B8D" d="M523.8,440c-0.4-0.3-0.8-0.6-1.1-1c0.4,0,0.8,0.1,1.2,0.1&#10;&#9;&#9;&#9;&#9;C523.8,439.4,523.8,439.7,523.8,440z"/>
			<path fill-rule="evenodd" clip-rule="evenodd" fill="#E78A7A" d="M490,446.9c-0.4,0.6-0.9,1-1.6,1.1&#10;&#9;&#9;&#9;&#9;C488.7,447.3,489.2,447,490,446.9z"/>
			<path fill-rule="evenodd" clip-rule="evenodd" fill="#E99687" d="M538.9,515.6c-0.4,0.4-0.9,0.8-1.3,1.3&#10;&#9;&#9;&#9;&#9;C537.7,516.2,538.2,515.7,538.9,515.6z"/>
			<path fill-rule="evenodd" clip-rule="evenodd" fill="#EBC1BD" d="M547,507.7c0.7-0.1,1.5-0.2,2.2-0.4c0.2-0.1,0.4-0.8,0.3-0.9&#10;&#9;&#9;&#9;&#9;c-0.7-0.8-1.6-1.6-2.4-2.4c1.2,0.1,2.2-0.3,3.2-1c0.5-0.3,0.7-1,0.4-1.5c-0.1-0.2-0.2-0.3-0.3-0.5c-2.7-3.3-2.6-3.7,1.3-4.6&#10;&#9;&#9;&#9;&#9;c0.7-0.2,1.5-0.4,2.2-0.6c1.3,0.2,2.5,0.6,3.3,1.8c0.5,0.8,0.9,1.6,1.5,2.3c1.2,1.4,0.7,2.7,0,4.1c-2,0.1-4.1,0-5.9,1.1l0,0&#10;&#9;&#9;&#9;&#9;c-0.6,1.2-1.1,2.4-0.7,3.8c0.1,0.3-0.3,0.6-0.4,1C549.9,509.7,548.3,509,547,507.7z"/>
			<path fill-rule="evenodd" clip-rule="evenodd" fill="#EBC5C1" d="M531.9,497c-3.8,0-7.7,0-11.5,0c0.3-0.2,0.6-0.6,0.9-0.7&#10;&#9;&#9;&#9;&#9;c2-0.5,3.3-1.8,4.3-3.5c0.6-0.9,1.8-0.9,2.4,0.1C528.9,494.7,530.6,495.7,531.9,497z"/>
			<path fill-rule="evenodd" clip-rule="evenodd" fill="#EC9485" d="M620.4,486.7c-0.6,0.7-1.1,1.5-1.8,2.2c-0.7,0.7-1.5,1-2.5,0.7&#10;&#9;&#9;&#9;&#9;c-0.9-0.2-1.8-0.4-2.7-0.6c-0.8,0.5-1.5,1.1-2.4,1.6c-0.5,0.2-1.1,0.3-1.6,0.3c-1-0.1-2-1.1-2-1.7c0-1,1.2-2.3,2.2-2.3&#10;&#9;&#9;&#9;&#9;C613.2,486.7,616.8,486.8,620.4,486.7z"/>
			<path fill-rule="evenodd" clip-rule="evenodd" fill="#ECA69A" d="M601.7,494.8c-1.2-0.2-2.1-0.7-3.1-1.3c-0.6-0.4-1.4-0.9-2-0.8&#10;&#9;&#9;&#9;&#9;c-1.9,0.4-3.2-0.5-4.6-1.6c-1.7-1.4-1.8-1.6-0.8-4.4c0.8,0,1.6,0,2.4,0c0.4,0.3,0.8,0.7,1.2,1.1l0,0c0.1,0.6,0.1,1.1,0.2,1.7&#10;&#9;&#9;&#9;&#9;c0.2,0.8,0.6,1.4,1.4,1.6c0.7,0.2,1.5,0.2,2.2,0.3C600.7,491.7,601.6,492.9,601.7,494.8z"/>
			<path fill-rule="evenodd" clip-rule="evenodd" fill="#EC9789" d="M594.8,487.8c-0.4-0.4-0.8-0.7-1.2-1.1&#10;&#9;&#9;&#9;&#9;C594.1,487.1,594.4,487.5,594.8,487.8z"/>
			<path fill-rule="evenodd" clip-rule="evenodd" fill="#E89080" d="M513.3,534.4c-0.4,0-0.8,0-1.2,0c0.4-0.4,0.8-0.8,1.2-1.2&#10;&#9;&#9;&#9;&#9;C513.3,533.6,513.3,534,513.3,534.4z"/>
			<path fill-rule="evenodd" clip-rule="evenodd" fill="#E99B8D" d="M528.5,447c-0.5-0.6-0.9-1.2-1.4-1.8c0.5-1.2,0-1.6-1.2-1.8&#10;&#9;&#9;&#9;&#9;c-1.1-0.2-2.2-0.7-3.3-1l0,0c0.8-0.7,1.5-1.5,2.3-2.2c2.1,0.9,4.2,1.7,6.3,2.6c0.9,0.4,1.5,1.1,1.7,2.1c0.2,0.7-0.4,1.7-1.1,1.7&#10;&#9;&#9;&#9;&#9;C530.6,446.6,529.5,446.5,528.5,447z"/>
			<path fill-rule="evenodd" clip-rule="evenodd" fill="#E99B8D" d="M526.1,448.2c0.8-0.4,1.6-0.8,2.3-1.2c0,0.6,0,1.1-0.1,1.7&#10;&#9;&#9;&#9;&#9;c-0.2,0.9-0.9,1.1-1.6,0.4C526.5,448.9,526.3,448.5,526.1,448.2z"/>
			<path fill-rule="evenodd" clip-rule="evenodd" fill="#EBBAB4" d="M617.8,494.3c-0.1-0.3-0.4-0.7-0.3-0.9c0.1-0.2,0.6-0.3,0.9-0.4&#10;&#9;&#9;&#9;&#9;c0.1,0.3,0.4,0.7,0.3,0.9C618.6,494.1,618.1,494.2,617.8,494.3z"/>
			<path fill-rule="evenodd" clip-rule="evenodd" fill="#E99687" d="M543.6,516.9c0-0.4,0-0.8,0-1.1c0.1,0.3,0.3,0.5,0.3,0.8&#10;&#9;&#9;&#9;&#9;C543.9,516.6,543.7,516.8,543.6,516.9z"/>
			<path fill-rule="evenodd" clip-rule="evenodd" fill="#EBC2BD" d="M522.6,442.4c0,1.1,0.2,2.3-0.6,3.2c-0.2,0.3-0.7,0.5-0.9,0.5&#10;&#9;&#9;&#9;&#9;c-0.3,0-0.6-0.5-0.6-0.8c-0.1-0.7-0.1-1.5,0-2.2c0-0.7,0.5-1,1.7-0.8C522.3,442.3,522.4,442.4,522.6,442.4&#10;&#9;&#9;&#9;&#9;C522.6,442.4,522.6,442.4,522.6,442.4z"/>
			<path fill-rule="evenodd" clip-rule="evenodd" fill="#EBC7C4" d="M541.3,522.7c-0.2,0.7-0.4,1.4-0.7,2.1&#10;&#9;&#9;&#9;&#9;c-0.1,0.3-0.6,0.5-0.9,0.4c-0.2,0-0.5-0.4-0.6-0.7c-0.1-0.3-0.2-0.8,0-1.1c0.3-0.7,0.7-1.2,1.1-1.9c0,0,0,0,0,0&#10;&#9;&#9;&#9;&#9;C540.4,522,540.9,522.4,541.3,522.7L541.3,522.7z"/>
			<path fill-rule="evenodd" clip-rule="evenodd" fill="#E99687" d="M530.8,526.2c0.1-0.3,0-0.7,0.2-1c0.2-0.2,0.5-0.3,0.8-0.4&#10;&#9;&#9;&#9;&#9;c0.1,0,0.4,0.2,0.3,0.3c-0.1,0.3-0.2,0.7-0.4,0.8C531.5,526.2,531.1,526.2,530.8,526.2L530.8,526.2z"/>
			<path fill-rule="evenodd" clip-rule="evenodd" fill="#E99687" d="M530.8,526.2c-0.1,0.1-0.1,0.2-0.2,0.4&#10;&#9;&#9;&#9;&#9;C530.7,526.5,530.7,526.4,530.8,526.2L530.8,526.2z"/>
			<path fill-rule="evenodd" clip-rule="evenodd" fill="#E89181" d="M541.6,454.9c0.1,0.1,0.3,0.2,0.4,0.3c-0.2,0.2-0.4,0.5-0.7,0.7&#10;&#9;&#9;&#9;&#9;c0,0-0.3-0.2-0.4-0.3C541.1,455.4,541.4,455.1,541.6,454.9z"/>
			<path fill-rule="evenodd" clip-rule="evenodd" fill="#E89080" d="M514.5,535c-0.1,0-0.3,0.2-0.4,0.1c-0.3-0.2-0.5-0.5-0.8-0.7&#10;&#9;&#9;&#9;&#9;c0.3,0.1,0.7,0.1,1,0.2C514.4,534.6,514.5,534.8,514.5,535z"/>
			<path fill-rule="evenodd" clip-rule="evenodd" fill="#DEAEA8" d="M598.5,508.9c-0.2-2.2-0.4-4.5,0.1-6.7c0.1-0.3,0.4-0.8,0.7-0.8&#10;&#9;&#9;&#9;&#9;c0.5,0,1.1,0.1,1.5,0.4c0.7,0.6,0.4,1.9,1.5,2.2c0.7,0.2,1.5,0.4,2.2,0.6c0.2,0,0.3,0.2,0.5,0.3c0.1,0.1,0.3,0.3,0.4,0.4&#10;&#9;&#9;&#9;&#9;c-1.2,0.7-2.6,1.1-3.5,2.4l0,0C600.6,507.6,599.5,508.2,598.5,508.9z"/>
			<path fill-rule="evenodd" clip-rule="evenodd" fill="#DEAEA8" d="M601.8,507.6c0.5,0.2,1.1,0.3,1.5,0.5c0.4,0.2,0.4,0.6,0,0.9&#10;&#9;&#9;&#9;&#9;c-0.1,0.1-0.4,0-0.5-0.1C602.4,508.5,602.1,508,601.8,507.6L601.8,507.6z"/>
			<path fill-rule="evenodd" clip-rule="evenodd" fill="#EAA194" d="M541.3,522.7c-0.4-0.4-0.8-0.8-1.2-1.1&#10;&#9;&#9;&#9;&#9;C540.5,522,540.9,522.3,541.3,522.7z"/>
			<path fill-rule="evenodd" clip-rule="evenodd" fill="#E6C1BE" d="M552.9,505.2c-0.4-0.1-1,0.1-1.1-0.6c0,0,0.3-0.2,0.4-0.1&#10;&#9;&#9;&#9;&#9;C552.4,504.8,552.6,505,552.9,505.2C552.9,505.2,552.9,505.2,552.9,505.2z"/>
		</g></svg>