<?xml version="1.0" encoding="utf-8"?>
<svg id="master-artboard" viewBox="0 0 49.57748794555664 48.591575622558594" version="1.1" xmlns="http://www.w3.org/2000/svg" x="0px" y="0px" enable-background="new 0 0 1400 980" width="49.57748794555664px" height="48.591575622558594px" xmlns:xlink="http://www.w3.org/1999/xlink"><rect id="ee-background" x="0" y="0" width="49.57748794555664" height="48.591575622558594" style="fill: white; fill-opacity: 0; pointer-events: none;"/>
<radialGradient id="SVGID_1_" cx="700" cy="490" r="1204.2656" gradientTransform="matrix(1 0 0 0.7849 0 105.4017)" gradientUnits="userSpaceOnUse">
		<stop offset="0" style="stop-color:#FFFFFF"/>
		<stop offset="0.3731" style="stop-color:#FDFDFD"/>
		<stop offset="0.5609" style="stop-color:#F5F5F6"/>
		<stop offset="0.7073" style="stop-color:#E8E8E9"/>
		<stop offset="0.8323" style="stop-color:#D5D6D8"/>
		<stop offset="0.9425" style="stop-color:#BDBFC1"/>
		<stop offset="1" style="stop-color:#ADAFB2"/>
		
		
		
	</radialGradient><defs>
				<filter id="Adobe_OpacityMaskFilter_1_" filterUnits="userSpaceOnUse" x="723.3" y="359.4" width="239.6" height="235.1">
					<feColorMatrix type="matrix" values="1 0 0 0 0  0 1 0 0 0  0 0 1 0 0  0 0 0 1 0"/>
				</filter>
			</defs><mask maskUnits="userSpaceOnUse" x="723.3" y="359.4" width="239.6" height="235.1" id="SVGID_4_">
				<g filter="url(#Adobe_OpacityMaskFilter_1_)">
					<linearGradient id="SVGID_5_" gradientUnits="userSpaceOnUse" x1="829.7179" y1="261.9055" x2="829.7179" y2="439.4614">
						<stop offset="0" style="stop-color:#FFFFFF"/>
						<stop offset="1" style="stop-color:#000000"/>
						
						
						
					</linearGradient>
					<path d="M 690.799988 358.799988 H 968.699982 V 495.299988 H 690.799988 V 358.799988 Z" fill="url(#SVGID_5_)"/>
				</g>
			</mask><defs>
				<filter id="Adobe_OpacityMaskFilter_2_" filterUnits="userSpaceOnUse" x="400.1" y="292.5" width="243.5" height="259.7">
					<feColorMatrix type="matrix" values="1 0 0 0 0  0 1 0 0 0  0 0 1 0 0  0 0 0 1 0"/>
				</filter>
			</defs><mask maskUnits="userSpaceOnUse" x="400.1" y="292.5" width="243.5" height="259.7" id="SVGID_6_">
				<g filter="url(#Adobe_OpacityMaskFilter_2_)">
					<linearGradient id="SVGID_7_" gradientUnits="userSpaceOnUse" x1="523.7712" y1="89.7692" x2="523.7712" y2="459.4819">
						<stop offset="0" style="stop-color:#FFFFFF"/>
						<stop offset="1" style="stop-color:#000000"/>
						
						
						
					</linearGradient>
					<path d="M 384.799988 291.600006 H 662.699982 V 575.800018 H 384.799988 V 291.600006 Z" fill="url(#SVGID_7_)"/>
				</g>
			</mask><defs>
				<filter id="Adobe_OpacityMaskFilter_3_" filterUnits="userSpaceOnUse" x="1098" y="382" width="189.2" height="178.8">
					<feColorMatrix type="matrix" values="1 0 0 0 0  0 1 0 0 0  0 0 1 0 0  0 0 0 1 0"/>
				</filter>
			</defs><mask maskUnits="userSpaceOnUse" x="1098" y="382" width="189.2" height="178.8" id="SVGID_8_">
				<g filter="url(#Adobe_OpacityMaskFilter_3_)">
					<linearGradient id="SVGID_9_" gradientUnits="userSpaceOnUse" x1="1177.4905" y1="284.9751" x2="1177.4905" y2="462.531">
						<stop offset="0" style="stop-color:#FFFFFF"/>
						<stop offset="1" style="stop-color:#000000"/>
						
						
						
					</linearGradient>
					<path d="M 1038.599976 381.899994 H 1316.499969 V 518.399994 H 1038.599976 V 381.899994 Z" fill="url(#SVGID_9_)"/>
				</g>
			</mask><defs>
				<filter id="Adobe_OpacityMaskFilter_4_" filterUnits="userSpaceOnUse" x="205.3" y="684.5" width="341.3" height="192.1">
					<feColorMatrix type="matrix" values="1 0 0 0 0  0 1 0 0 0  0 0 1 0 0  0 0 0 1 0"/>
				</filter>
			</defs><mask maskUnits="userSpaceOnUse" x="205.3" y="684.5" width="341.3" height="192.1" id="SVGID_10_">
				<g filter="url(#Adobe_OpacityMaskFilter_4_)">
					<linearGradient id="SVGID_11_" gradientUnits="userSpaceOnUse" x1="414.1693" y1="542.9777" x2="414.1693" y2="773.6172">
						<stop offset="0" style="stop-color:#FFFFFF"/>
						<stop offset="1" style="stop-color:#000000"/>
						
						
						
					</linearGradient>
					<path d="M 275.200012 668.900024 H 553.100006 V 846.200027 H 275.200012 V 668.900024 Z" fill="url(#SVGID_11_)"/>
				</g>
			</mask><defs>
			<filter id="Adobe_OpacityMaskFilter_5_" filterUnits="userSpaceOnUse" x="85.3" y="763.6" width="198.7" height="162.7">
				<feColorMatrix type="matrix" values="1 0 0 0 0  0 1 0 0 0  0 0 1 0 0  0 0 0 1 0"/>
			</filter>
		</defs><mask maskUnits="userSpaceOnUse" x="85.3" y="763.6" width="198.7" height="162.7" id="SVGID_12_">
			<g filter="url(#Adobe_OpacityMaskFilter_5_)">
				<linearGradient id="SVGID_13_" gradientUnits="userSpaceOnUse" x1="200.6199" y1="665.4587" x2="200.6199" y2="843.0146">
					<stop offset="0" style="stop-color:#FFFFFF"/>
					<stop offset="1" style="stop-color:#000000"/>
					
					
					
				</linearGradient>
				<path d="M 61.700001 762.400024 H 339.599995 V 898.900024 H 61.700001 V 762.400024 Z" fill="url(#SVGID_13_)"/>
			</g>
		</mask><defs>
				<filter id="Adobe_OpacityMaskFilter_6_" filterUnits="userSpaceOnUse" x="721.4" y="763.6" width="243.4" height="172.9">
					<feColorMatrix type="matrix" values="1 0 0 0 0  0 1 0 0 0  0 0 1 0 0  0 0 0 1 0"/>
				</filter>
			</defs><mask maskUnits="userSpaceOnUse" x="721.4" y="763.6" width="243.4" height="172.9" id="SVGID_14_">
				<g filter="url(#Adobe_OpacityMaskFilter_6_)">
					<linearGradient id="SVGID_15_" gradientUnits="userSpaceOnUse" x1="835.4446" y1="666.7007" x2="835.4446" y2="844.2566">
						<stop offset="0" style="stop-color:#FFFFFF"/>
						<stop offset="0.2104" style="stop-color:#B7B7B7"/>
						<stop offset="0.4214" style="stop-color:#777777"/>
						<stop offset="0.6138" style="stop-color:#444444"/>
						<stop offset="0.7803" style="stop-color:#1F1F1F"/>
						<stop offset="0.9147" style="stop-color:#080808"/>
						<stop offset="1" style="stop-color:#000000"/>
						
						
						
					</linearGradient>
					<path d="M 674.299988 763.599976 H 996.699982 V 900.099976 H 674.299988 V 763.599976 Z" fill="url(#SVGID_15_)"/>
				</g>
			</mask><defs>
				<filter id="Adobe_OpacityMaskFilter_7_" filterUnits="userSpaceOnUse" x="1017.1" y="783.5" width="333.3" height="263.2">
					<feColorMatrix type="matrix" values="1 0 0 0 0  0 1 0 0 0  0 0 1 0 0  0 0 0 1 0"/>
				</filter>
			</defs><mask maskUnits="userSpaceOnUse" x="1017.1" y="783.5" width="333.3" height="263.2" id="SVGID_16_">
				<g filter="url(#Adobe_OpacityMaskFilter_7_)">
					<linearGradient id="SVGID_17_" gradientUnits="userSpaceOnUse" x1="1156.0809" y1="686.585" x2="1156.0809" y2="864.1409">
						<stop offset="0" style="stop-color:#FFFFFF"/>
						<stop offset="0.1482" style="stop-color:#CECECE"/>
						<stop offset="0.3833" style="stop-color:#858585"/>
						<stop offset="0.5946" style="stop-color:#4C4C4C"/>
						<stop offset="0.7741" style="stop-color:#232323"/>
						<stop offset="0.9151" style="stop-color:#090909"/>
						<stop offset="1" style="stop-color:#000000"/>
						
						
						
					</linearGradient>
					<path d="M 1017.099976 783.5 H 1294.999969 V 920 H 1017.099976 V 783.5 Z" fill="url(#SVGID_17_)"/>
				</g>
			</mask><defs>
					<path d="M 1017.099976 783.5 H 1294.999969 V 920 H 1017.099976 V 783.5 Z" id="SVGID_18_"/>
				</defs><clipPath id="SVGID_19_">
					<use overflow="visible" xlink:href="#SVGID_18_"/>
				</clipPath>
<g transform="matrix(0.08262652911796203, 0, 0, 0.08262652911796203, -3.118166485588345, 2.0492031355853193)">
			<defs>
				<filter id="Adobe_OpacityMaskFilter" filterUnits="userSpaceOnUse" x="112.8" y="312.3" width="226.6" height="220.1">
					<feColorMatrix type="matrix" values="1 0 0 0 0  0 1 0 0 0  0 0 1 0 0  0 0 0 1 0"/>
				</filter>
			</defs>
			<mask maskUnits="userSpaceOnUse" x="112.8" y="312.3" width="226.6" height="220.1" id="SVGID_2_">
				<g filter="url(#Adobe_OpacityMaskFilter)">
					<linearGradient id="SVGID_3_" gradientUnits="userSpaceOnUse" x1="211.9377" y1="109.5528" x2="211.9377" y2="501.0527">
						<stop offset="0" style="stop-color:#FFFFFF"/>
						<stop offset="1" style="stop-color:#000000"/>
						
						
						
					</linearGradient>
					<path d="M 73 323.200012 H 350.899994 V 624.100006 H 73 V 323.200012 Z" fill="url(#SVGID_3_)"/>
				</g>
			</mask>
			<g mask="url(#SVGID_2_)">
				<g>
					<g enable-background="new    ">
						<g>
							<path d="M 149.60000610351562 491 L 184.60000610351562 511.3999938964844 L 184.10000610351562 332.6000061035156 L 149.10000610351562 312.29998779296875 Z" fill="#827181"/>
						</g>
						<g>
							<path d="M 113.30000305175781 512 L 148.3000030517578 532.2999877929688 L 184.60000610351562 511.3999938964844 L 149.60000610351562 491 Z" fill="#9C899C"/>
						</g>
						<g>
							<path d="M 149.60000610351562 491 L 149.10000610351562 312.29998779296875 L 112.80000305175781 333.20001220703125 L 113.30000305175781 512 Z" fill="#756B74"/>
						</g>
					</g>
				</g>
				<g>
					<g enable-background="new    ">
						<g>
							<g>
								<path d="M 203.5 478.3999938964844 L 238.5 498.79998779296875 L 238.10000610351562 358.20001220703125 L 203.10000610351562 337.79998779296875 Z" fill="#EC7779"/>
							</g>
						</g>
						<g>
							<g>
								<path d="M 167.1999969482422 499.3999938964844 L 202.3000030517578 519.7000122070312 L 238.5 498.79998779296875 L 203.5 478.3999938964844 Z" fill="#EB9E97"/>
							</g>
						</g>
						<g>
							<g>
								<path d="M 203.5 478.3999938964844 L 203.10000610351562 337.79998779296875 L 166.8000030517578 358.79998779296875 L 167.1999969482422 499.3999938964844 Z" fill="#D05D5D"/>
							</g>
						</g>
					</g>
				</g>
				<g>
					<g enable-background="new    ">
						<g>
							<path d="M 257.3999938964844 475.20001220703125 L 292.3999938964844 495.6000061035156 L 292.1000061035156 385.3999938964844 L 257.1000061035156 365 Z" fill="#7DBEC0"/>
						</g>
						<g>
							<path d="M 221.10000610351562 496.20001220703125 L 256.1000061035156 516.5 L 292.3999938964844 495.6000061035156 L 257.3999938964844 475.20001220703125 Z" fill="#9FCFD1"/>
						</g>
						<g>
							<path d="M 257.3999938964844 475.20001220703125 L 257.1000061035156 365 L 220.8000030517578 386 L 221.10000610351562 496.20001220703125 Z" fill="#5FAAB0"/>
						</g>
					</g>
				</g>
				<g>
					<g enable-background="new    ">
						<g>
							<g>
								<path d="M 304.3999938964844 446.1000061035156 L 339.3999938964844 466.5 L 339.29998779296875 411.3999938964844 L 304.20001220703125 391 Z" fill="#B5BAB1"/>
							</g>
						</g>
						<g>
							<g>
								<path d="M 268.1000061035156 467.1000061035156 L 303.20001220703125 487.3999938964844 L 339.3999938964844 466.5 L 304.3999938964844 446.1000061035156 Z" fill="#C0C6BC"/>
							</g>
						</g>
						<g>
							<g>
								<path d="M 304.3999938964844 446.1000061035156 L 304.20001220703125 391 L 268 412 L 268.1000061035156 467.1000061035156 Z" fill="#808680"/>
							</g>
						</g>
					</g>
				</g>
			</g>
			<g>
				<g>
					<g enable-background="new    ">
						<g>
							<path d="M 149.60000610351562 176.6999969482422 L 184.60000610351562 156.39999389648438 L 184.10000610351562 335.20001220703125 L 149.10000610351562 355.5 Z" fill="#827181"/>
						</g>
						<g>
							<path d="M 113.30000305175781 155.8000030517578 L 148.3000030517578 135.39999389648438 L 184.60000610351562 156.39999389648438 L 149.60000610351562 176.6999969482422 Z" fill="#9C899C"/>
						</g>
						<g>
							<path d="M 149.60000610351562 176.6999969482422 L 149.10000610351562 355.5 L 112.80000305175781 334.6000061035156 L 113.30000305175781 155.8000030517578 Z" fill="#756B74"/>
						</g>
					</g>
				</g>
				<g>
					<g enable-background="new    ">
						<g>
							<g>
								<path d="M 203.5 240.1999969482422 L 238.5 219.8000030517578 L 238.10000610351562 360.3999938964844 L 203.10000610351562 380.79998779296875 Z" fill="#EC7779"/>
							</g>
						</g>
						<g>
							<g>
								<path d="M 167.1999969482422 219.1999969482422 L 202.3000030517578 198.89999389648438 L 238.5 219.8000030517578 L 203.5 240.1999969482422 Z" fill="#EB9E97"/>
							</g>
						</g>
						<g>
							<g>
								<path d="M 203.5 240.1999969482422 L 203.10000610351562 380.79998779296875 L 166.8000030517578 359.79998779296875 L 167.1999969482422 219.1999969482422 Z" fill="#D05D5D"/>
							</g>
						</g>
					</g>
				</g>
				<g>
					<g enable-background="new    ">
						<g>
							<path d="M 257.3999938964844 297 L 292.3999938964844 276.70001220703125 L 292.1000061035156 386.8999938964844 L 257.1000061035156 407.29998779296875 Z" fill="#7DBEC0"/>
						</g>
						<g>
							<path d="M 221.10000610351562 276.1000061035156 L 256.1000061035156 255.6999969482422 L 292.3999938964844 276.70001220703125 L 257.3999938964844 297 Z" fill="#9FCFD1"/>
						</g>
						<g>
							<path d="M 257.3999938964844 297 L 257.1000061035156 407.29998779296875 L 220.8000030517578 386.29998779296875 L 221.10000610351562 276.1000061035156 Z" fill="#5FAAB0"/>
						</g>
					</g>
				</g>
				<g>
					<g enable-background="new    ">
						<g>
							<g>
								<path d="M 304.3999938964844 380.1000061035156 L 339.3999938964844 359.79998779296875 L 339.29998779296875 414.8999938964844 L 304.20001220703125 435.20001220703125 Z" fill="#B5BAB1"/>
							</g>
						</g>
						<g>
							<g>
								<path d="M 268.1000061035156 359.20001220703125 L 303.20001220703125 338.79998779296875 L 339.3999938964844 359.79998779296875 L 304.3999938964844 380.1000061035156 Z" fill="#C0C6BC"/>
							</g>
						</g>
						<g>
							<g>
								<path d="M 304.3999938964844 380.1000061035156 L 304.20001220703125 435.20001220703125 L 268 414.29998779296875 L 268.1000061035156 359.20001220703125 Z" fill="#808680"/>
							</g>
						</g>
					</g>
				</g>
			</g>
		</g><g enable-background="new    " transform="matrix(0.08262655983857338, 0, 0, 0.08262655983857338, -71.9658794646922, -11.502718033895857)">
					<g>
						<path fill="#EB9E97" d="M1196.2,268.7l-19.6-61.9c24.5-3.4,49.2,1.7,68.3,12.5L1196.2,268.7z"/>
					</g>
					<g>
						<path d="M 1194.0999755859375 292.29998779296875 L 1196.199951171875 268.70001220703125 L 1244.9000244140625 219.39999389648438 L 1242.800048828125 243 Z" fill="#EC7779"/>
					</g>
					<g>
						<path d="M 1174.4000244140625 230.39999389648438 L 1176.5999755859375 206.89999389648438 L 1196.199951171875 268.70001220703125 L 1194.0999755859375 292.29998779296875 Z" fill="#968D00"/>
					</g>
					<g>
						<path d="M 1174.4000244140625 230.39999389648438 L 1176.5999755859375 206.89999389648438 L 1196.199951171875 268.70001220703125 L 1194.0999755859375 292.29998779296875 Z" fill="#D05D5D"/>
					</g>
					<g>
						<path d="M 1099.4000244140625 301.5 L 1101.5 278 L 1184.699951171875 270.1000061035156 L 1182.5 293.70001220703125 Z" fill="#5FAAB0"/>
					</g>
					<g>
						<path fill="#9FCFD1" d="M1184.7,270.1l-83.2,7.8c-7.9-32.5,19-63.1,62.4-69.6c0.4-0.1,0.8-0.1,1.2-0.2L1184.7,270.1z"/>
					</g>
					<path fill="#5FAAB0" d="M1100.3,262.5l-2.1,23.6c-0.5,5-0.1,10.2,1.2,15.5l2.1-23.6C1100.2,272.7,1099.9,267.5,1100.3,262.5z"/>
					<g>
						<path fill="#9C899C" d="M1270.2,313.1l-67.6-40.5l48.7-49.3c15.9,9,28,21.9,33.2,37.2C1291.1,279.9,1285,299,1270.2,313.1z"/>
					</g>
					<path fill="#756B74" d="M1284.1,309.1c0.1-0.3,0.1-0.6,0.2-0.9c0.1-0.5,0.2-1,0.2-1.5c0-0.2,0.1-0.5,0.1-0.7&#10;&#9;&#9;&#9;&#9;&#9;&#9;c0.1-0.7,0.2-1.5,0.3-2.2l2.1-23.6c-0.1,0.7-0.2,1.5-0.3,2.2c0,0.2-0.1,0.5-0.1,0.7c-0.1,0.5-0.2,1-0.2,1.5&#10;&#9;&#9;&#9;&#9;&#9;&#9;c-0.1,0.3-0.1,0.6-0.2,0.9c-0.1,0.4-0.2,0.9-0.3,1.3c-0.1,0.3-0.2,0.6-0.2,0.9c-0.1,0.4-0.2,0.8-0.3,1.3&#10;&#9;&#9;&#9;&#9;&#9;&#9;c-0.1,0.2-0.1,0.5-0.2,0.7c-0.1,0.5-0.3,0.9-0.4,1.4c-0.1,0.2-0.2,0.5-0.2,0.7c-0.2,0.5-0.3,1-0.5,1.4&#10;&#9;&#9;&#9;&#9;&#9;&#9;c-0.1,0.2-0.1,0.4-0.2,0.6c-0.3,0.7-0.5,1.3-0.8,1.9c0,0.1-0.1,0.2-0.1,0.3c-0.3,0.5-0.5,1.1-0.8,1.6c-0.1,0.2-0.2,0.4-0.3,0.6&#10;&#9;&#9;&#9;&#9;&#9;&#9;c-0.2,0.4-0.5,0.9-0.7,1.3c-0.1,0.2-0.2,0.4-0.4,0.7c-0.3,0.4-0.5,0.9-0.8,1.3c-0.1,0.2-0.2,0.4-0.3,0.5&#10;&#9;&#9;&#9;&#9;&#9;&#9;c-0.4,0.6-0.8,1.2-1.2,1.8c-0.1,0.1-0.2,0.2-0.2,0.3c-0.3,0.5-0.7,0.9-1,1.4c-0.1,0.2-0.3,0.3-0.4,0.5&#10;&#9;&#9;&#9;&#9;&#9;&#9;c-0.4,0.5-0.7,0.9-1.1,1.4c-0.1,0.1-0.2,0.2-0.2,0.3c-0.5,0.6-0.9,1.1-1.4,1.6c-0.1,0.1-0.3,0.3-0.4,0.4&#10;&#9;&#9;&#9;&#9;&#9;&#9;c-0.4,0.4-0.8,0.8-1.2,1.2c-0.1,0.2-0.3,0.3-0.4,0.5c-0.5,0.5-1,1.1-1.6,1.6l-2.1,23.6c0.5-0.5,1.1-1,1.6-1.6&#10;&#9;&#9;&#9;&#9;&#9;&#9;c0.1-0.2,0.3-0.3,0.4-0.5c0.4-0.4,0.8-0.8,1.2-1.2c0.1-0.1,0.3-0.3,0.4-0.4c0.5-0.5,1-1.1,1.4-1.6c0.1-0.1,0.2-0.2,0.2-0.3&#10;&#9;&#9;&#9;&#9;&#9;&#9;c0.4-0.5,0.8-0.9,1.1-1.4c0.1-0.2,0.3-0.3,0.4-0.5c0.4-0.5,0.7-0.9,1-1.4c0.1-0.1,0.2-0.2,0.2-0.3c0.4-0.5,0.7-1,1-1.6&#10;&#9;&#9;&#9;&#9;&#9;&#9;c0-0.1,0.1-0.1,0.1-0.2c0.1-0.2,0.2-0.4,0.3-0.5c0.3-0.4,0.5-0.9,0.8-1.3c0.1-0.2,0.3-0.4,0.4-0.7c0.2-0.4,0.5-0.9,0.7-1.3&#10;&#9;&#9;&#9;&#9;&#9;&#9;c0.1-0.2,0.2-0.4,0.3-0.6c0.3-0.5,0.5-1.1,0.8-1.6c0-0.1,0.1-0.2,0.1-0.3c0.3-0.6,0.6-1.3,0.8-1.9c0.1-0.2,0.1-0.4,0.2-0.6&#10;&#9;&#9;&#9;&#9;&#9;&#9;c0.2-0.5,0.4-0.9,0.5-1.4c0.1-0.2,0.2-0.5,0.2-0.7c0.2-0.5,0.3-0.9,0.4-1.4c0.1-0.2,0.1-0.5,0.2-0.7c0-0.1,0.1-0.2,0.1-0.3&#10;&#9;&#9;&#9;&#9;&#9;&#9;c0.1-0.3,0.2-0.6,0.2-0.9c0.1-0.3,0.2-0.6,0.2-0.9C1283.9,310,1284,309.5,1284.1,309.1z"/>
					<g>
						<path d="M 1200.5 296.20001220703125 L 1202.5999755859375 272.6000061035156 L 1270.199951171875 313.1000061035156 L 1268.0999755859375 336.70001220703125 Z" fill="#827181"/>
					</g>
					<g>
						<path fill="#C0C6BC" d="M1204.1,359.9c-45.3,6.7-91.2-15.5-102.7-49.6c-0.5-1.4-0.9-2.9-1.2-4.3l83.2-7.8l67.6,40.5&#10;&#9;&#9;&#9;&#9;&#9;&#9;&#9;C1239.7,349.3,1223.5,357,1204.1,359.9z"/>
					</g>
					<path fill="#808680" d="M1225.1,377.2c0.2-0.1,0.4-0.2,0.6-0.3c0.9-0.4,1.8-0.8,2.6-1.2c0.2-0.1,0.3-0.2,0.5-0.2&#10;&#9;&#9;&#9;&#9;&#9;&#9;c0.7-0.3,1.5-0.7,2.2-1c0.2-0.1,0.4-0.2,0.6-0.3c0.8-0.4,1.7-0.9,2.5-1.3c0.1-0.1,0.3-0.2,0.4-0.2c0.7-0.4,1.4-0.8,2.1-1.2&#10;&#9;&#9;&#9;&#9;&#9;&#9;c0.2-0.1,0.4-0.2,0.6-0.4c0.8-0.5,1.5-1,2.3-1.5c0.1-0.1,0.2-0.1,0.3-0.2c0.7-0.4,1.3-0.9,2-1.4c0.2-0.1,0.4-0.3,0.6-0.4&#10;&#9;&#9;&#9;&#9;&#9;&#9;c0.7-0.5,1.4-1.1,2.1-1.6c0.1,0,0.1-0.1,0.2-0.1c0.6-0.5,1.3-1,1.9-1.6c0.2-0.1,0.3-0.3,0.5-0.4c0.7-0.6,1.3-1.1,1.9-1.7&#10;&#9;&#9;&#9;&#9;&#9;&#9;c0,0,0,0,0,0l2.1-23.6c-0.6,0.6-1.3,1.2-1.9,1.7c-0.2,0.1-0.3,0.3-0.5,0.4c-0.6,0.5-1.2,1.1-1.9,1.6c-0.1,0-0.1,0.1-0.2,0.1&#10;&#9;&#9;&#9;&#9;&#9;&#9;c-0.7,0.5-1.4,1.1-2.1,1.6c-0.2,0.1-0.4,0.3-0.6,0.4c-0.6,0.5-1.3,0.9-2,1.4c-0.1,0.1-0.2,0.1-0.3,0.2c-0.7,0.5-1.5,1-2.3,1.5&#10;&#9;&#9;&#9;&#9;&#9;&#9;c-0.2,0.1-0.4,0.2-0.6,0.4c-0.7,0.4-1.4,0.8-2.1,1.2c-0.1,0.1-0.3,0.1-0.4,0.2c-0.8,0.4-1.6,0.9-2.5,1.3&#10;&#9;&#9;&#9;&#9;&#9;&#9;c-0.2,0.1-0.4,0.2-0.6,0.3c-0.7,0.4-1.4,0.7-2.2,1c-0.2,0.1-0.3,0.2-0.5,0.2c-0.9,0.4-1.7,0.8-2.6,1.2&#10;&#9;&#9;&#9;&#9;&#9;&#9;c-0.2,0.1-0.4,0.2-0.6,0.3c-0.8,0.3-1.5,0.6-2.3,0.9c-0.2,0.1-0.4,0.2-0.6,0.2c-0.9,0.3-1.9,0.7-2.8,1&#10;&#9;&#9;&#9;&#9;&#9;&#9;c-0.2,0.1-0.4,0.1-0.6,0.2c-0.8,0.3-1.7,0.5-2.5,0.8c-0.2,0.1-0.3,0.1-0.5,0.2c-1,0.3-1.9,0.5-2.9,0.8&#10;&#9;&#9;&#9;&#9;&#9;&#9;c-0.2,0.1-0.4,0.1-0.7,0.2c-0.9,0.2-1.8,0.5-2.8,0.7c-0.1,0-0.2,0.1-0.3,0.1c-1,0.2-2.1,0.4-3.1,0.6c-0.2,0-0.5,0.1-0.7,0.1&#10;&#9;&#9;&#9;&#9;&#9;&#9;c-1.1,0.2-2.1,0.4-3.2,0.5c-0.3,0-0.6,0.1-0.9,0.1c-1.2,0.2-2.3,0.3-3.5,0.4c-0.1,0-0.2,0-0.3,0c-1.2,0.1-2.4,0.2-3.6,0.3&#10;&#9;&#9;&#9;&#9;&#9;&#9;c0,0,0,0-0.1,0c-1.2,0.1-2.4,0.1-3.6,0.2c-0.1,0-0.2,0-0.4,0c-1.2,0-2.3,0.1-3.5,0.1c-0.2,0-0.3,0-0.5,0c-1.1,0-2.2,0-3.3-0.1&#10;&#9;&#9;&#9;&#9;&#9;&#9;c-0.2,0-0.4,0-0.6,0c-1.1,0-2.2-0.1-3.3-0.2c-0.2,0-0.3,0-0.5,0c-1.1-0.1-2.3-0.2-3.4-0.3c-0.1,0-0.2,0-0.3,0&#10;&#9;&#9;&#9;&#9;&#9;&#9;c-1.2-0.1-2.3-0.3-3.5-0.4c0,0-0.1,0-0.1,0c-0.7-0.1-1.4-0.2-2.1-0.3c-0.2,0-0.3-0.1-0.5-0.1c-0.5-0.1-1.1-0.2-1.6-0.3&#10;&#9;&#9;&#9;&#9;&#9;&#9;c-0.3,0-0.5-0.1-0.8-0.1c-0.4-0.1-0.9-0.2-1.3-0.2c-0.3-0.1-0.6-0.1-0.8-0.2c-0.4-0.1-0.8-0.2-1.2-0.2&#10;&#9;&#9;&#9;&#9;&#9;&#9;c-0.3-0.1-0.6-0.1-0.9-0.2c-0.4-0.1-0.8-0.2-1.2-0.3c-0.3-0.1-0.6-0.1-0.9-0.2c-0.4-0.1-0.7-0.2-1.1-0.3&#10;&#9;&#9;&#9;&#9;&#9;&#9;c-0.3-0.1-0.6-0.2-0.9-0.2c-0.4-0.1-0.7-0.2-1.1-0.3c-0.3-0.1-0.6-0.2-0.9-0.3c-0.4-0.1-0.7-0.2-1.1-0.3&#10;&#9;&#9;&#9;&#9;&#9;&#9;c-0.3-0.1-0.5-0.2-0.8-0.2c-0.5-0.2-1-0.3-1.5-0.5c-0.2-0.1-0.5-0.2-0.7-0.2c-0.6-0.2-1.3-0.4-1.9-0.6c-0.1,0-0.2-0.1-0.3-0.1&#10;&#9;&#9;&#9;&#9;&#9;&#9;c-0.7-0.3-1.4-0.5-2.1-0.8c-0.2-0.1-0.4-0.2-0.6-0.2c-0.5-0.2-1-0.4-1.5-0.6c-0.2-0.1-0.5-0.2-0.7-0.3c-0.5-0.2-1-0.4-1.5-0.6&#10;&#9;&#9;&#9;&#9;&#9;&#9;c-0.2-0.1-0.4-0.2-0.6-0.3c-0.7-0.3-1.4-0.6-2.1-0.9c0,0-0.1,0-0.1-0.1c-0.6-0.3-1.3-0.6-1.9-0.9c-0.2-0.1-0.4-0.2-0.6-0.3&#10;&#9;&#9;&#9;&#9;&#9;&#9;c-0.5-0.2-0.9-0.5-1.4-0.7c-0.2-0.1-0.4-0.2-0.7-0.3c-0.5-0.3-1-0.5-1.4-0.8c-0.2-0.1-0.3-0.2-0.5-0.3&#10;&#9;&#9;&#9;&#9;&#9;&#9;c-0.6-0.4-1.3-0.7-1.9-1.1c-0.1-0.1-0.2-0.1-0.4-0.2c-0.5-0.3-1-0.6-1.5-0.9c-0.2-0.1-0.4-0.3-0.6-0.4&#10;&#9;&#9;&#9;&#9;&#9;&#9;c-0.4-0.3-0.9-0.5-1.3-0.8c-0.2-0.1-0.4-0.3-0.6-0.4c-0.5-0.3-1-0.6-1.4-1c-0.1-0.1-0.2-0.2-0.4-0.2c-0.6-0.4-1.2-0.8-1.7-1.2&#10;&#9;&#9;&#9;&#9;&#9;&#9;c-0.1-0.1-0.3-0.2-0.4-0.3c-0.4-0.3-0.8-0.6-1.3-1c-0.2-0.1-0.4-0.3-0.6-0.4c-0.4-0.3-0.8-0.6-1.2-0.9&#10;&#9;&#9;&#9;&#9;&#9;&#9;c-0.2-0.1-0.3-0.3-0.5-0.4c-0.5-0.4-1-0.8-1.5-1.3c0,0-0.1-0.1-0.1-0.1c-0.5-0.5-1-0.9-1.5-1.4c-0.2-0.1-0.3-0.3-0.4-0.4&#10;&#9;&#9;&#9;&#9;&#9;&#9;c-0.4-0.3-0.7-0.7-1.1-1c-0.2-0.2-0.3-0.3-0.5-0.5c-0.3-0.4-0.7-0.7-1-1.1c-0.1-0.1-0.3-0.3-0.4-0.4c-0.5-0.5-0.9-1-1.4-1.5&#10;&#9;&#9;&#9;&#9;&#9;&#9;c-0.1-0.1-0.1-0.1-0.2-0.2c-0.4-0.4-0.8-0.9-1.2-1.3c-0.1-0.2-0.3-0.3-0.4-0.5c-0.3-0.4-0.6-0.7-0.9-1.1&#10;&#9;&#9;&#9;&#9;&#9;&#9;c-0.1-0.2-0.3-0.4-0.4-0.5c-0.3-0.4-0.6-0.8-0.9-1.2c-0.1-0.1-0.2-0.3-0.3-0.4c-0.4-0.5-0.8-1.1-1.1-1.6&#10;&#9;&#9;&#9;&#9;&#9;&#9;c-0.1-0.1-0.2-0.2-0.2-0.4c-0.3-0.4-0.6-0.9-0.8-1.3c-0.1-0.2-0.2-0.4-0.3-0.6c-0.2-0.4-0.5-0.8-0.7-1.2&#10;&#9;&#9;&#9;&#9;&#9;&#9;c-0.1-0.2-0.2-0.4-0.3-0.6c-0.3-0.5-0.5-1-0.8-1.4c-0.1-0.1-0.1-0.2-0.2-0.3c-0.3-0.6-0.6-1.2-0.9-1.7&#10;&#9;&#9;&#9;&#9;&#9;&#9;c-0.1-0.2-0.2-0.3-0.2-0.5c-0.2-0.4-0.4-0.9-0.6-1.3c-0.1-0.2-0.2-0.4-0.3-0.6c-0.2-0.4-0.3-0.8-0.5-1.3&#10;&#9;&#9;&#9;&#9;&#9;&#9;c-0.1-0.2-0.1-0.4-0.2-0.6c-0.2-0.6-0.5-1.2-0.7-1.8c-0.5-1.4-0.9-2.9-1.2-4.3l-2.1,23.6c0.3,1.4,0.8,2.9,1.2,4.3&#10;&#9;&#9;&#9;&#9;&#9;&#9;c0.2,0.6,0.4,1.2,0.7,1.8c0.1,0.2,0.1,0.4,0.2,0.6c0.2,0.4,0.3,0.9,0.5,1.3c0.1,0.2,0.2,0.4,0.3,0.6c0.2,0.4,0.4,0.9,0.6,1.3&#10;&#9;&#9;&#9;&#9;&#9;&#9;c0.1,0.2,0.2,0.3,0.2,0.5c0.3,0.6,0.6,1.2,0.9,1.7c0.1,0.1,0.1,0.2,0.2,0.3c0.3,0.5,0.5,1,0.8,1.4c0.1,0.2,0.2,0.4,0.3,0.6&#10;&#9;&#9;&#9;&#9;&#9;&#9;c0.2,0.4,0.5,0.8,0.7,1.2c0.1,0.2,0.2,0.4,0.3,0.6c0.3,0.4,0.6,0.9,0.8,1.3c0.1,0.1,0.2,0.2,0.2,0.4c0.4,0.5,0.7,1.1,1.1,1.6&#10;&#9;&#9;&#9;&#9;&#9;&#9;c0.1,0.1,0.2,0.3,0.3,0.4c0.3,0.4,0.6,0.8,0.9,1.2c0.1,0.2,0.3,0.4,0.4,0.5c0.3,0.4,0.6,0.7,0.9,1.1c0.1,0.2,0.3,0.3,0.4,0.5&#10;&#9;&#9;&#9;&#9;&#9;&#9;c0.4,0.5,0.8,0.9,1.2,1.3c0.1,0.1,0.1,0.1,0.2,0.2c0.4,0.5,0.9,1,1.4,1.5c0.1,0.1,0.3,0.3,0.4,0.4c0.3,0.4,0.7,0.7,1,1.1&#10;&#9;&#9;&#9;&#9;&#9;&#9;c0.2,0.2,0.3,0.3,0.5,0.5c0.3,0.3,0.7,0.7,1.1,1c0.2,0.1,0.3,0.3,0.5,0.4c0.5,0.5,1,0.9,1.5,1.4c0,0,0.1,0.1,0.1,0.1&#10;&#9;&#9;&#9;&#9;&#9;&#9;c0.5,0.4,1,0.8,1.5,1.3c0.2,0.1,0.3,0.3,0.5,0.4c0.4,0.3,0.8,0.6,1.2,0.9c0.2,0.1,0.4,0.3,0.6,0.4c0.4,0.3,0.8,0.6,1.3,1&#10;&#9;&#9;&#9;&#9;&#9;&#9;c0.1,0.1,0.3,0.2,0.4,0.3c0.6,0.4,1.1,0.8,1.7,1.2c0.1,0.1,0.2,0.2,0.4,0.3c0.5,0.3,0.9,0.6,1.4,1c0.2,0.1,0.4,0.3,0.6,0.4&#10;&#9;&#9;&#9;&#9;&#9;&#9;c0.4,0.3,0.8,0.5,1.3,0.8c0.2,0.1,0.4,0.3,0.6,0.4c0.5,0.3,1,0.6,1.5,0.9c0.1,0.1,0.2,0.1,0.4,0.2c0.6,0.4,1.3,0.7,1.9,1.1&#10;&#9;&#9;&#9;&#9;&#9;&#9;c0.2,0.1,0.3,0.2,0.5,0.3c0.5,0.3,1,0.5,1.4,0.8c0.2,0.1,0.4,0.2,0.7,0.3c0.5,0.2,0.9,0.5,1.4,0.7c0.2,0.1,0.4,0.2,0.6,0.3&#10;&#9;&#9;&#9;&#9;&#9;&#9;c0.6,0.3,1.3,0.6,1.9,0.9c0,0,0.1,0,0.1,0.1c0.7,0.3,1.4,0.6,2.1,0.9c0.2,0.1,0.4,0.2,0.6,0.3c0.5,0.2,1,0.4,1.5,0.6&#10;&#9;&#9;&#9;&#9;&#9;&#9;c0.2,0.1,0.5,0.2,0.7,0.3c0.5,0.2,1,0.4,1.5,0.6c0.2,0.1,0.4,0.2,0.6,0.2c0.7,0.3,1.4,0.5,2.1,0.8c0.1,0,0.2,0.1,0.3,0.1&#10;&#9;&#9;&#9;&#9;&#9;&#9;c0.6,0.2,1.3,0.4,1.9,0.6c0.2,0.1,0.5,0.2,0.7,0.2c0.5,0.2,1,0.3,1.5,0.5c0.1,0,0.3,0.1,0.4,0.1c0.1,0,0.3,0.1,0.4,0.1&#10;&#9;&#9;&#9;&#9;&#9;&#9;c0.4,0.1,0.7,0.2,1.1,0.3c0.3,0.1,0.6,0.2,0.9,0.3c0.4,0.1,0.7,0.2,1.1,0.3c0.3,0.1,0.6,0.2,0.9,0.2c0.4,0.1,0.8,0.2,1.1,0.3&#10;&#9;&#9;&#9;&#9;&#9;&#9;c0.3,0.1,0.6,0.1,0.9,0.2c0.4,0.1,0.8,0.2,1.2,0.3c0.3,0.1,0.6,0.1,0.9,0.2c0.4,0.1,0.8,0.2,1.2,0.2c0.3,0.1,0.6,0.1,0.9,0.2&#10;&#9;&#9;&#9;&#9;&#9;&#9;c0.4,0.1,0.9,0.2,1.3,0.2c0.3,0,0.5,0.1,0.8,0.1c0.5,0.1,1.1,0.2,1.6,0.3c0.2,0,0.3,0.1,0.5,0.1c0.7,0.1,1.4,0.2,2.1,0.3&#10;&#9;&#9;&#9;&#9;&#9;&#9;c0,0,0,0,0,0c0,0,0,0,0.1,0c1.1,0.2,2.3,0.3,3.5,0.4c0.1,0,0.2,0,0.3,0c1.1,0.1,2.2,0.2,3.4,0.3c0.2,0,0.3,0,0.5,0&#10;&#9;&#9;&#9;&#9;&#9;&#9;c1.1,0.1,2.2,0.1,3.3,0.2c0.2,0,0.4,0,0.6,0c1.1,0,2.2,0.1,3.3,0.1c0.1,0,0.1,0,0.2,0c0.1,0,0.2,0,0.3,0c1.2,0,2.3,0,3.5-0.1&#10;&#9;&#9;&#9;&#9;&#9;&#9;c0.1,0,0.2,0,0.4,0c1.2,0,2.4-0.1,3.6-0.2c0,0,0,0,0.1,0c1.2-0.1,2.4-0.2,3.6-0.3c0.1,0,0.2,0,0.3,0c1.2-0.1,2.3-0.3,3.5-0.4&#10;&#9;&#9;&#9;&#9;&#9;&#9;c0.1,0,0.2,0,0.3,0c0.2,0,0.4-0.1,0.6-0.1c1.1-0.2,2.2-0.3,3.2-0.5c0.2,0,0.5-0.1,0.7-0.1c1-0.2,2.1-0.4,3.1-0.6&#10;&#9;&#9;&#9;&#9;&#9;&#9;c0.1,0,0.2-0.1,0.4-0.1c0.9-0.2,1.9-0.4,2.8-0.7c0.2-0.1,0.5-0.1,0.7-0.2c1-0.3,2-0.5,2.9-0.8c0.2-0.1,0.3-0.1,0.5-0.2&#10;&#9;&#9;&#9;&#9;&#9;&#9;c0.9-0.3,1.7-0.5,2.5-0.8c0.2-0.1,0.4-0.1,0.6-0.2c0.1,0,0.2-0.1,0.3-0.1c0.8-0.3,1.6-0.6,2.5-0.9c0.2-0.1,0.4-0.1,0.6-0.2&#10;&#9;&#9;&#9;&#9;&#9;&#9;C1223.5,377.8,1224.3,377.5,1225.1,377.2z"/>
				</g></svg>