<?xml version="1.0" encoding="utf-8"?>
<svg id="master-artboard" viewBox="0 0 658.5 157.87095642089844" version="1.1" xmlns="http://www.w3.org/2000/svg" x="0px" y="0px" style="enable-background:new 0 0 658.5 493.5;" width="658.5px" height="157.87095642089844px"><rect id="ee-background" x="0" y="0" width="658.5" height="157.87095642089844" style="fill: white; fill-opacity: 0; pointer-events: none;"/>



<linearGradient id="SVGID_9_" gradientUnits="userSpaceOnUse" x1="440.9744" y1="818.7742" x2="440.9744" y2="-75.9812">
			<stop offset="0" style="stop-color:#FFFFFF"/>
			<stop offset="1" style="stop-color:#6D6E70"/>
		</linearGradient><linearGradient id="SVGID_10_" gradientUnits="userSpaceOnUse" x1="437.9739" y1="813.1072" x2="437.9739" y2="-81.6482">
			<stop offset="0" style="stop-color:#EA1D47"/>
			<stop offset="1" style="stop-color:#F8D327"/>
		</linearGradient>
<g transform="matrix(1.998482584953308, 0, 0, 1.998482584953308, -0.000009554653843224514, 8.3890380859375)"><g>
        <path class="st0" d="M93.3,58.2c0,0-0.1-0.1-0.2-0.1v8.7c0,1-0.3,1.9-0.9,2.7c-0.6,0.7-1.4,1.1-2.3,1.1s-1.7-0.4-2.3-1.1&#10;        c-0.6-0.7-1-1.6-1-2.7v-12c-2.1-2-3.2-4.3-3.2-7c0-2.9,1.2-5.4,3.8-7.5c2.5-2.1,5.5-3.1,9-3.1H113c3.5,0,6.5,1,9,3.1&#10;        s3.8,4.6,3.8,7.5s-1.2,5.5-3.7,7.5c-2.5,2.1-5.5,3.1-9,3.1h-17C95.1,58.5,94.2,58.4,93.3,58.2z M119.1,47.8c0-1.7-1-3.1-2.9-4.3&#10;        s-4.2-1.7-6.9-1.7h-9.7c-2.7,0-5,0.6-6.9,1.7c-1.9,1.2-2.9,2.6-2.9,4.3c0,1.6,1,3.1,2.9,4.3c1.9,1.2,4.2,1.8,6.9,1.8h9.7&#10;        c2.7,0,5-0.6,6.9-1.8S119.1,49.4,119.1,47.8z" style="fill: rgb(255, 255, 255);"/>
        <path class="st0" d="M168.8,55.4c-2.5,2.1-5.5,3.1-9,3.1h-16.9c-3.5,0-6.5-1-9-3.1s-3.8-4.6-3.8-7.6c0-2.9,1.3-5.4,3.8-7.5&#10;        s5.5-3.1,9-3.1h16.9c3.7,0,6.8,1.1,9.2,3.2c2.4,2.1,3.6,4.6,3.6,7.5C172.5,50.8,171.3,53.3,168.8,55.4z M166,47.9&#10;        c0-1.7-1-3.1-2.9-4.3s-4.2-1.7-6.9-1.7h-9.7c-2.7,0-5,0.5-6.9,1.7s-2.9,2.6-2.9,4.3c0,1.6,0.9,3.1,2.8,4.3c1.9,1.2,4.2,1.8,6.9,1.8&#10;        h9.7c2.7,0,5-0.6,6.9-1.8C165,51,166,49.6,166,47.9z" style="fill: rgb(255, 255, 255);"/>
        <path class="st0" d="M216.7,39.6c0,0.6-0.2,1.2-0.7,1.6c-0.5,0.5-1,0.7-1.7,0.7h-20c-3,0-5.5,0.6-7.5,1.8s-3,2.6-3,4.3s1,3.1,3,4.2&#10;        s4.5,1.7,7.5,1.7h20c0.6,0,1.2,0.2,1.7,0.7s0.7,1,0.7,1.6c0,0.7-0.2,1.2-0.7,1.7s-1,0.7-1.7,0.7h-24.4c-3.5,0-6.5-1-8.9-3.1&#10;        s-3.7-4.6-3.7-7.5s1.2-5.4,3.7-7.5s5.4-3.1,8.9-3.1h24.4c0.7,0,1.3,0.2,1.7,0.7C216.5,38.3,216.7,38.9,216.7,39.6z" style="fill: rgb(255, 255, 255);"/>
        <path class="st0" d="M251.4,58.3c-0.9,0.2-1.9,0.2-2.9,0.2h-16.9c-3.5,0-6.5-1-9-3.1s-3.7-4.6-3.7-7.6v-6.9c0-1,0.3-1.9,0.9-2.7&#10;        c0.6-0.7,1.4-1.1,2.3-1.1c0.9,0,1.7,0.4,2.3,1.1c0.6,0.7,1,1.6,1,2.7v6.9c0,1.6,1,3,2.9,4.2s4.2,1.7,7,1.7c0.3,0,3.6,0,9.7,0&#10;        c2.7,0,5-0.6,6.9-1.8c1.9-1.2,2.9-2.6,2.9-4.2v-6.8c0-1,0.3-1.9,0.9-2.7c0.6-0.7,1.4-1.1,2.3-1.1s1.7,0.4,2.3,1.1&#10;        c0.6,0.8,1,1.7,1,2.7v7c0,2.6-1.1,4.9-3.2,6.9v3.6c0,1-0.3,1.9-0.9,2.7c-0.6,0.7-1.4,1.1-2.3,1.1c-0.9,0-1.7-0.4-2.3-1.1&#10;        s-1-1.6-1-2.7v-0.2C251.6,58.2,251.5,58.2,251.4,58.3z" style="fill: rgb(255, 255, 255);"/>
        <path class="st0" d="M266.4,54.7V40.8c0-2.6,1.1-4.9,3.2-6.9v-3.5c0-1,0.3-1.9,1-2.7c0.6-0.7,1.4-1.1,2.3-1.1s1.7,0.4,2.3,1.1&#10;        c0.6,0.7,1,1.6,1,2.7v0.3c1.1-0.2,2.2-0.3,3.1-0.3h7.3c4.6,0,8.1,1.7,10.7,5h15.3c4.2,0,7.4,1.4,9.7,4c2,2.3,3,5.1,3,8.5v6.9&#10;        c0,1-0.3,1.9-0.9,2.7c-0.6,0.7-1.4,1.1-2.3,1.1s-1.7-0.4-2.3-1.1c-0.6-0.7-1-1.6-1-2.7v-7.4c0-2.2-1-4-2.9-5.6&#10;        c-1.9-1.5-4.2-2.3-6.9-2.3h-9.7c0,0.5,0.1,0.9,0.1,1.4v13.8c0,1-0.3,1.9-1,2.7c-0.6,0.7-1.4,1.1-2.3,1.1s-1.7-0.4-2.3-1.1&#10;        c-0.6-0.8-1-1.7-1-2.7V41c0-1.6-1-3-2.9-4.2s-4.2-1.7-7-1.7c-0.4,0-0.4,0,0,0c-2.7,0-5,0.6-7,1.8c-1.9,1.2-2.9,2.6-2.9,4.2v13.7&#10;        c0,1-0.3,1.9-1,2.7c-0.6,0.7-1.4,1.1-2.3,1.1s-1.6-0.4-2.3-1.1S266.4,55.8,266.4,54.7L266.4,54.7z" style="fill: rgb(255, 255, 255);"/>
        </g><g>
        <path class="st0" d="M59.3,41.9c-4.7,0-7.9,1.2-9.7,3.7h19.9c0.6,0,1.2,0.2,1.7,0.7s0.7,1,0.7,1.7c0,0.6-0.2,1.2-0.7,1.6&#10;        c-0.5,0.5-1,0.7-1.7,0.7H49.6c1.8,2.4,5,3.5,9.7,3.5h18V41.9H59.3z" style="fill: rgb(255, 255, 255);"/>
        <path class="st0" d="M54.8,58.5c-3.5,0-6.5-1-8.9-3.1s-3.7-4.6-3.7-7.5s1.2-5.4,3.7-7.5s5.4-3.1,8.9-3.1h22.5V16.6&#10;        c0-7.8-6.3-14.2-14.1-14.2H18.8C11,2.4,4.7,8.8,4.7,16.6v38.3c0,7.8,6.4,14.2,14.2,14.2h44.3c6.5,0,12.1-4.5,13.7-10.6H54.8z" style="fill: rgb(255, 255, 255);"/>
        </g></g></svg>