<?xml version="1.0" encoding="utf-8"?>
<svg id="master-artboard" viewBox="0 0 95.34388732910156 82.9136734008789" version="1.1" xmlns="http://www.w3.org/2000/svg" x="0px" y="0px" width="95.34388732910156px" height="82.9136734008789px" enable-background="new 0 0 1400 980"><rect id="ee-background" x="0" y="0" width="95.34388732910156" height="82.9136734008789" style="fill: white; fill-opacity: 0; pointer-events: none;"/>

<path class="st0" d="M726.6,721.1c-9.3,0-17.8,3.3-24.4,8.7L666.4,699c2.1-4,3.3-8.6,3.3-13.5c0-1.1-0.1-2.1-0.2-3.2&#10;&#9;c25.6-9,54.3-19.1,64.6-22.7c2.1,1.2,4.5,1.9,7.1,1.9c8.1,0,14.6-6.5,14.6-14.6s-6.5-14.6-14.6-14.6s-14.6,6.5-14.6,14.6&#10;&#9;c0,0.4,0,0.8,0.1,1.2c-12.9,4.5-40.5,14.2-61.6,21.6c-5.2-8.1-14.3-13.5-24.6-13.5c-16.1,0-29.2,13.1-29.2,29.2&#10;&#9;c0,16.1,13.1,29.2,29.2,29.2c6.4,0,12.4-2.1,17.2-5.6l35.9,30.8c-3.4,5.7-5.4,12.5-5.4,19.6c0,21.2,17.2,38.4,38.4,38.4&#10;&#9;c21.2,0,38.4-17.2,38.4-38.4C765,738.3,747.8,721.1,726.6,721.1z M730.7,646.2c0-0.1,0-0.2-0.1-0.4c0-0.1,0-0.3,0-0.5&#10;&#9;c0-0.2,0-0.3,0-0.5c0-0.2,0-0.4,0.1-0.6c0-0.2,0.1-0.4,0.1-0.6c0.1-0.2,0.1-0.4,0.2-0.7c0-0.1,0.1-0.2,0.1-0.3&#10;&#9;c0-0.1,0.1-0.2,0.1-0.3c0.1-0.2,0.2-0.5,0.3-0.7c0.1-0.2,0.2-0.5,0.4-0.7c0.1-0.2,0.3-0.5,0.4-0.7c0.3-0.5,0.7-0.9,1-1.3&#10;&#9;c0.4-0.4,0.8-0.7,1.3-1c0.2-0.2,0.4-0.3,0.7-0.4c0.2-0.1,0.5-0.3,0.7-0.4c0.2-0.1,0.5-0.2,0.7-0.3c0.1,0,0.2-0.1,0.3-0.1&#10;&#9;c0.1,0,0.2-0.1,0.3-0.1c0.2-0.1,0.4-0.1,0.7-0.2c0.2,0,0.4-0.1,0.6-0.1c0.2,0,0.4-0.1,0.6,0c0.2,0,0.4,0,0.5,0c0.2,0,0.3,0,0.4,0&#10;&#9;c0.1,0,0.3,0,0.4,0.1c0.2,0,0.4,0.1,0.5,0.1c0.1,0,0.2,0,0.2,0s-0.1,0-0.2,0.1c-0.1,0-0.3,0.1-0.5,0.1c-0.1,0-0.2,0.1-0.4,0.1&#10;&#9;c-0.1,0.1-0.3,0.1-0.4,0.1c-0.3,0.1-0.6,0.2-0.9,0.4c-0.2,0.1-0.3,0.1-0.5,0.2c-0.2,0.1-0.4,0.2-0.5,0.3c-0.1,0-0.2,0.1-0.3,0.1&#10;&#9;c-0.1,0-0.2,0.1-0.3,0.2c-0.2,0.1-0.4,0.2-0.6,0.3c-0.4,0.3-0.7,0.5-1.1,0.8c-0.4,0.3-0.7,0.6-1,0.9c-0.3,0.3-0.6,0.7-0.9,1&#10;&#9;c-0.3,0.3-0.5,0.7-0.8,1.1c-0.1,0.2-0.2,0.4-0.3,0.6c-0.1,0.1-0.1,0.2-0.2,0.3c0,0.1-0.1,0.2-0.1,0.3c-0.1,0.2-0.2,0.4-0.3,0.5&#10;&#9;c-0.1,0.2-0.1,0.4-0.2,0.5c-0.1,0.2-0.2,0.3-0.2,0.5c-0.1,0.2-0.1,0.3-0.2,0.4c-0.1,0.1-0.1,0.3-0.1,0.4c0,0.1-0.1,0.3-0.1,0.4&#10;&#9;c0,0.2-0.1,0.3-0.1,0.4c0,0-0.1,0-0.1,0C730.8,646.6,730.8,646.4,730.7,646.2z M625.3,674.2c-0.6,0.7-1.1,1.5-1.6,2.2&#10;&#9;c-0.2,0.4-0.4,0.8-0.7,1.1c-0.1,0.2-0.2,0.4-0.3,0.5c-0.1,0.2-0.2,0.4-0.3,0.6c-0.2,0.4-0.4,0.7-0.5,1.1c-0.1,0.4-0.3,0.7-0.4,1&#10;&#9;c-0.1,0.3-0.3,0.7-0.4,1c-0.1,0.3-0.2,0.6-0.3,0.9c-0.1,0.3-0.2,0.6-0.3,0.8c-0.1,0.3-0.1,0.5-0.2,0.7c-0.1,0.4-0.2,0.8-0.3,1&#10;&#9;c-0.1,0.2-0.1,0.4-0.1,0.4s0-0.1-0.1-0.4c0-0.2-0.1-0.6-0.2-1c0-0.2-0.1-0.5-0.1-0.7c0-0.3,0-0.6,0-0.9c0-0.3,0-0.7,0-1.1&#10;&#9;c0-0.4,0.1-0.7,0.1-1.1c0-0.4,0.1-0.8,0.2-1.2c0.1-0.4,0.2-0.9,0.3-1.3c0.1-0.2,0.1-0.5,0.2-0.7c0.1-0.2,0.2-0.4,0.3-0.7&#10;&#9;c0.2-0.5,0.4-0.9,0.6-1.4c0.2-0.5,0.5-0.9,0.7-1.4c0.2-0.5,0.5-0.9,0.9-1.3c0.6-0.9,1.3-1.7,2.1-2.5c0.8-0.7,1.6-1.5,2.5-2.1&#10;&#9;c0.4-0.3,0.9-0.6,1.3-0.9c0.5-0.3,0.9-0.5,1.4-0.7c0.5-0.2,0.9-0.4,1.4-0.6c0.2-0.1,0.5-0.2,0.7-0.3c0.2-0.1,0.5-0.1,0.7-0.2&#10;&#9;c0.4-0.1,0.9-0.2,1.3-0.3c0.4-0.1,0.8-0.1,1.2-0.2c0.4,0,0.8-0.1,1.1-0.1c0.4,0,0.7,0,1,0c0.3,0,0.6,0,0.9,0c0.3,0,0.5,0.1,0.8,0.1&#10;&#9;c0.5,0.1,0.8,0.1,1,0.2c0.2,0.1,0.4,0.1,0.4,0.1s-0.1,0-0.4,0.1c-0.2,0.1-0.6,0.2-1,0.3c-0.2,0.1-0.4,0.1-0.7,0.2&#10;&#9;c-0.3,0.1-0.5,0.2-0.8,0.3c-0.6,0.2-1.2,0.4-1.9,0.7c-0.3,0.1-0.7,0.3-1,0.4c-0.3,0.2-0.7,0.4-1.1,0.5c-0.2,0.1-0.4,0.2-0.6,0.3&#10;&#9;c-0.2,0.1-0.4,0.2-0.5,0.3c-0.4,0.2-0.7,0.4-1.1,0.7c-0.7,0.5-1.5,1-2.2,1.6c-0.7,0.5-1.4,1.2-2.1,1.8&#10;&#9;C626.5,672.8,625.8,673.5,625.3,674.2z M704.5,747.5c-0.3,0.5-0.6,1-0.9,1.5c-0.1,0.2-0.3,0.5-0.4,0.7c-0.1,0.2-0.2,0.5-0.4,0.7&#10;&#9;c-0.2,0.5-0.5,1-0.7,1.4c-0.2,0.5-0.4,0.9-0.6,1.4c-0.2,0.4-0.4,0.9-0.5,1.3c-0.1,0.4-0.3,0.8-0.4,1.2c-0.1,0.4-0.3,0.7-0.4,1.1&#10;&#9;c-0.1,0.3-0.2,0.7-0.3,1c-0.1,0.6-0.3,1-0.4,1.3c-0.1,0.3-0.2,0.5-0.2,0.5s0-0.2-0.1-0.5c-0.1-0.3-0.2-0.8-0.3-1.4&#10;&#9;c0-0.3-0.1-0.6-0.2-1c0-0.4,0-0.8,0-1.2c0-0.4,0-0.9,0-1.4c0-0.5,0.1-1,0.1-1.5c0.1-0.5,0.1-1.1,0.2-1.6c0.1-0.6,0.3-1.1,0.4-1.7&#10;&#9;c0.1-0.3,0.2-0.6,0.2-0.9c0.1-0.3,0.2-0.6,0.3-0.9c0.2-0.6,0.5-1.2,0.7-1.8c0.3-0.6,0.6-1.2,1-1.8c0.3-0.6,0.7-1.2,1.1-1.8&#10;&#9;c0.8-1.2,1.8-2.2,2.7-3.3c1.1-1,2.1-2,3.3-2.7c0.6-0.4,1.1-0.8,1.8-1.1c0.6-0.3,1.2-0.7,1.8-1c0.6-0.3,1.2-0.5,1.8-0.7&#10;&#9;c0.3-0.1,0.6-0.2,0.9-0.3c0.3-0.1,0.6-0.2,0.9-0.2c0.6-0.1,1.2-0.3,1.7-0.4c0.6-0.1,1.1-0.1,1.6-0.2c0.5,0,1-0.1,1.5-0.1&#10;&#9;c0.5,0,0.9,0,1.4,0c0.4,0,0.8,0,1.2,0c0.4,0.1,0.7,0.1,1,0.2c0.6,0.1,1.1,0.2,1.4,0.3c0.3,0.1,0.5,0.1,0.5,0.1s-0.2,0.1-0.5,0.2&#10;&#9;c-0.3,0.1-0.8,0.2-1.3,0.4c-0.3,0.1-0.6,0.2-0.9,0.3c-0.3,0.1-0.7,0.2-1.1,0.4c-0.8,0.3-1.6,0.5-2.5,0.9c-0.4,0.2-0.9,0.4-1.4,0.6&#10;&#9;c-0.5,0.2-0.9,0.5-1.4,0.7c-0.2,0.1-0.5,0.2-0.7,0.4c-0.2,0.1-0.5,0.3-0.7,0.4c-0.5,0.3-1,0.6-1.5,0.9c-0.9,0.7-2,1.3-2.9,2.1&#10;&#9;c-1,0.7-1.8,1.6-2.7,2.4c-0.8,0.9-1.7,1.8-2.4,2.7C705.8,745.5,705.2,746.6,704.5,747.5z" style="fill: rgb(65, 65, 67);" transform="matrix(0.4486327171325684, 0, 0, 0.4486327171325684, -267.31499381868576, -281.5366642569324)"/></svg>