<?xml version="1.0" encoding="utf-8"?>
<svg id="master-artboard" viewBox="0 0 7.698294162750244 6.963323593139648" version="1.1" xmlns="http://www.w3.org/2000/svg" x="0px" y="0px" style="enable-background:new 0 0 841.9 595.3;" width="7.698294162750244px" height="6.963323593139648px"><rect id="ee-background" x="0" y="0" width="7.698294162750244" height="6.963323593139648" style="fill: white; fill-opacity: 0; pointer-events: none;"/>


<g transform="matrix(0.058412112295627594, 0, 0, 0.058412112295627594, -7.6158488392829895, -14.207986831665039)">
		<g>
			<path fill="#808080" d="M216.5,343h-36.6c-13.3,0-24-10.7-24-24v-36.6c0-13.3,10.7-24,24-24h36.6c13.3,0,24,10.7,24,24V319&#10;&#9;&#9;&#9;&#9;C240.5,332.2,229.7,343,216.5,343z"/>
		</g>
		<g>
			<g>
				<path d="M 193.699997 273.5 H 202.699997 V 325.099998 H 193.699997 V 273.5 Z" fill="#FFFFFF"/>
			</g>
			<g>
				<path d="M 172.399994 294.799988 H 223.999992 V 303.799988 H 172.399994 V 294.799988 Z" fill="#FFFFFF"/>
			</g>
		</g>
	</g></svg>