<?xml version="1.0" encoding="utf-8"?>
<svg id="master-artboard" viewBox="0 0 52.19207763671875 48.96113204956055" version="1.1" xmlns="http://www.w3.org/2000/svg" x="0px" y="0px" width="52.19207763671875px" height="48.96113204956055px" enable-background="new 0 0 841.9 595.3"><rect id="ee-background" x="0" y="0" width="52.19207763671875" height="48.96113204956055" style="fill: white; fill-opacity: 0; pointer-events: none;"/>

<path d="M 785.400002 232.199997 A 72.400002 6.5 0 0 1 713 238.699997 A 72.400002 6.5 0 0 1 640.599998 232.199997 A 72.400002 6.5 0 0 1 713 225.699997 A 72.400002 6.5 0 0 1 785.400002 232.199997 Z" fill="#CBD5E2" transform="matrix(0.3241730150224548, 0, 0, 0.3241730150224548, -205.0698546868791, -31.920154480174794)"/><path fill="#EFF9FE" d="M712,113.9h-57.3c-5.3,0-9.7,4.3-9.7,9.7v96.6c0,5.3,4.3,9.7,9.7,9.7h76.6c5.3,0,9.7-4.3,9.7-9.7v-77.4&#10;&#9;&#9;&#9;&#9;&#9;L712,113.9z" transform="matrix(0.3241730150224548, 0, 0, 0.3241730150224548, -205.0698546868791, -31.920154480174794)"/><path fill="#FFFFFF" d="M712,113.9h-57.3c-5.3,0-9.7,4.3-9.7,9.7v5.5c0-5.3,4.3-9.7,9.7-9.7H712l29,28.8v-5.5L712,113.9z" transform="matrix(0.3241730150224548, 0, 0, 0.3241730150224548, -205.0698546868791, -31.920154480174794)"/><path fill="#D5E7F0" d="M731.3,217.7h-76.6c-5.3,0-9.7-4.3-9.7-9.7v12.1c0,5.3,4.3,9.7,9.7,9.7h76.6c5.3,0,9.7-4.3,9.7-9.7V208&#10;&#9;&#9;&#9;&#9;&#9;C741,213.4,736.6,217.7,731.3,217.7z" transform="matrix(0.3241730150224548, 0, 0, 0.3241730150224548, -205.0698546868791, -31.920154480174794)"/><path fill="#3C5067" d="M731.3,232.2h-76.6c-6.7,0-12.1-5.4-12.1-12.1v-96.6c0-6.7,5.4-12.1,12.1-12.1H712&#10;&#9;&#9;&#9;&#9;&#9;c0.6,0,1.3,0.3,1.7,0.7l29,28.8c0.5,0.5,0.7,1.1,0.7,1.7v77.4C743.4,226.8,738,232.2,731.3,232.2z M654.7,116.3&#10;&#9;&#9;&#9;&#9;&#9;c-4,0-7.2,3.2-7.2,7.2v96.6c0,4,3.2,7.2,7.2,7.2h76.6c4,0,7.2-3.2,7.2-7.2v-76.4L711,116.3H654.7z" transform="matrix(0.3241730150224548, 0, 0, 0.3241730150224548, -205.0698546868791, -31.920154480174794)"/><path fill="#EFF9FE" d="M712,113.9v19.2c0,5.3,4.3,9.7,9.7,9.7H741L712,113.9z" transform="matrix(0.3241730150224548, 0, 0, 0.3241730150224548, -205.0698546868791, -31.920154480174794)"/><path fill="#3C5067" d="M741,145.1h-19.3c-6.7,0-12.1-5.4-12.1-12.1v-19.2c0-1,0.6-1.9,1.5-2.2c0.9-0.4,1.9-0.2,2.6,0.5l29,28.8&#10;&#9;&#9;&#9;&#9;&#9;c0.7,0.7,0.9,1.7,0.5,2.6C742.8,144.5,741.9,145.1,741,145.1z M714.4,119.7v13.4c0,4,3.2,7.2,7.2,7.2h13.5L714.4,119.7z" transform="matrix(0.3241730150224548, 0, 0, 0.3241730150224548, -205.0698546868791, -31.920154480174794)"/><path fill="#E3E8EE" d="M779.8,199.1c0-2.9-0.5-5.7-1.4-8.3l4.6-3.6l-4-6.9l-5.4,2.2c-3.6-4.2-8.6-7.2-14.3-8.3l-0.8-5.8h-8&#10;&#9;&#9;&#9;&#9;&#9;&#9;l-0.8,5.8c-5.7,1.1-10.7,4.1-14.3,8.3l-5.4-2.2l-4,6.9l4.6,3.6c-0.9,2.6-1.4,5.4-1.4,8.3s0.5,5.7,1.4,8.3l-4.6,3.6l4,6.9&#10;&#9;&#9;&#9;&#9;&#9;&#9;l5.4-2.2c3.6,4.2,8.6,7.2,14.3,8.3l0.8,5.8h8l0.8-5.8c5.7-1.1,10.7-4.1,14.3-8.3l5.4,2.2l4-6.9l-4.6-3.6&#10;&#9;&#9;&#9;&#9;&#9;&#9;C779.3,204.7,779.8,202,779.8,199.1z M754.5,212.1c-7.2,0-13.1-5.8-13.1-13.1s5.8-13.1,13.1-13.1c7.2,0,13.1,5.8,13.1,13.1&#10;&#9;&#9;&#9;&#9;&#9;&#9;S761.7,212.1,754.5,212.1z" transform="matrix(0.3241730150224548, 0, 0, 0.3241730150224548, -205.0698546868791, -31.920154480174794)"/><path fill="#C2C8D1" d="M779.8,199.5c-2.4,11.8-12.9,20.6-25.4,20.6c-12.5,0-22.9-8.9-25.4-20.6c0,2.7,0.5,5.4,1.4,7.8&#10;&#9;&#9;&#9;&#9;&#9;&#9;l-4.6,3.6l4,6.9l5.4-2.2c3.6,4.2,8.6,7.2,14.3,8.3l0.8,5.8h8l0.8-5.8c5.7-1.1,10.7-4.1,14.3-8.3l5.4,2.2l4-6.9l-4.6-3.6&#10;&#9;&#9;&#9;&#9;&#9;&#9;C779.3,204.9,779.8,202.3,779.8,199.5z" transform="matrix(0.3241730150224548, 0, 0, 0.3241730150224548, -205.0698546868791, -31.920154480174794)"/><path fill="#FFFFFF" d="M754.5,172.6c1.6,0,3.1,0.1,4.7,0.4l-0.7-4.6h-8l-0.7,4.6C751.3,172.7,752.9,172.6,754.5,172.6z" transform="matrix(0.3241730150224548, 0, 0, 0.3241730150224548, -205.0698546868791, -31.920154480174794)"/><path fill="#FFFFFF" d="M779.4,190.1l3.7-2.9l-4-6.9l-4.3,1.7C776.7,184.4,778.3,187.1,779.4,190.1z" transform="matrix(0.3241730150224548, 0, 0, 0.3241730150224548, -205.0698546868791, -31.920154480174794)"/><path fill="#FFFFFF" d="M734.2,182l-4.3-1.7l-4,6.9l3.7,2.9C730.6,187.1,732.2,184.4,734.2,182z" transform="matrix(0.3241730150224548, 0, 0, 0.3241730150224548, -205.0698546868791, -31.920154480174794)"/><path fill="#3C5067" d="M758.5,232.2h-8c-1.2,0-2.2-0.9-2.4-2.1l-0.6-4.2c-4.8-1.3-9.3-3.8-12.8-7.4l-3.9,1.6&#10;&#9;&#9;&#9;&#9;&#9;&#9;c-1.1,0.4-2.4,0-3-1l-4-6.9c-0.6-1-0.3-2.4,0.6-3.1l3.3-2.6c-0.7-2.4-1-4.9-1-7.4c0-2.5,0.3-5,1-7.4l-3.3-2.6&#10;&#9;&#9;&#9;&#9;&#9;&#9;c-0.9-0.7-1.2-2.1-0.6-3.1l4-6.9c0.6-1,1.9-1.5,3-1l3.9,1.6c3.5-3.6,8-6.1,12.8-7.4l0.6-4.2c0.2-1.2,1.2-2.1,2.4-2.1h8&#10;&#9;&#9;&#9;&#9;&#9;&#9;c1.2,0,2.2,0.9,2.4,2.1l0.6,4.2c4.8,1.3,9.3,3.8,12.8,7.4l3.9-1.6c1.1-0.4,2.4,0,3,1l4,6.9c0.6,1,0.3,2.4-0.6,3.1l-3.3,2.6&#10;&#9;&#9;&#9;&#9;&#9;&#9;c0.7,2.4,1,4.9,1,7.4c0,2.5-0.3,5-1,7.4l3.3,2.6c0.9,0.7,1.2,2.1,0.6,3.1l-4,6.9c-0.6,1-1.9,1.5-3,1l-3.9-1.6&#10;&#9;&#9;&#9;&#9;&#9;&#9;c-3.5,3.6-8,6.1-12.8,7.4l-0.6,4.2C760.7,231.3,759.7,232.2,758.5,232.2z M752.5,227.4h3.8l0.5-3.7c0.1-1,0.9-1.8,1.9-2&#10;&#9;&#9;&#9;&#9;&#9;&#9;c5-1,9.6-3.6,13-7.5c0.7-0.8,1.8-1,2.7-0.7l3.5,1.4l1.9-3.3l-3-2.3c-0.8-0.6-1.1-1.7-0.8-2.7c0.8-2.4,1.3-4.9,1.3-7.5&#10;&#9;&#9;&#9;&#9;&#9;&#9;c0-2.6-0.4-5.1-1.3-7.5c-0.3-1,0-2.1,0.8-2.7l3-2.3l-1.9-3.3l-3.5,1.4c-1,0.4-2,0.1-2.7-0.7c-3.4-3.9-8-6.5-13-7.5&#10;&#9;&#9;&#9;&#9;&#9;&#9;c-1-0.2-1.8-1-1.9-2l-0.5-3.7h-3.8l-0.5,3.7c-0.1,1-0.9,1.8-1.9,2c-5,1-9.6,3.6-13,7.5c-0.7,0.8-1.8,1-2.7,0.7l-3.5-1.4&#10;&#9;&#9;&#9;&#9;&#9;&#9;l-1.9,3.3l3,2.3c0.8,0.6,1.1,1.7,0.8,2.7c-0.8,2.4-1.3,4.9-1.3,7.5c0,2.6,0.4,5.1,1.3,7.5c0.3,1,0,2.1-0.8,2.7l-3,2.3l1.9,3.3&#10;&#9;&#9;&#9;&#9;&#9;&#9;l3.5-1.4c1-0.4,2-0.1,2.7,0.7c3.4,3.9,8,6.5,13,7.5c1,0.2,1.8,1,1.9,2L752.5,227.4z M754.5,214.5c-8.5,0-15.5-6.9-15.5-15.5&#10;&#9;&#9;&#9;&#9;&#9;&#9;c0-8.5,6.9-15.5,15.5-15.5c8.5,0,15.5,6.9,15.5,15.5C769.9,207.6,763,214.5,754.5,214.5z M754.5,188.4&#10;&#9;&#9;&#9;&#9;&#9;&#9;c-5.9,0-10.6,4.8-10.6,10.6c0,5.9,4.8,10.6,10.6,10.6c5.9,0,10.6-4.8,10.6-10.6C765.1,193.2,760.3,188.4,754.5,188.4z" transform="matrix(0.3241730150224548, 0, 0, 0.3241730150224548, -205.0698546868791, -31.920154480174794)"/></svg>