<?xml version="1.0" encoding="utf-8"?>
<svg id="master-artboard" viewBox="0 0 80.14453125 68.45207977294922" version="1.1" xmlns="http://www.w3.org/2000/svg" x="0px" y="0px" width="80.14453125px" height="68.45207977294922px" enable-background="new 0 0 335.986 235.19"><rect id="ee-background" x="0" y="0" width="80.14453125" height="68.45207977294922" style="fill: white; fill-opacity: 0; pointer-events: none;"/>












































<path class="st0" d="M1606.3,1253.4L1711,1360c0,0,128-120.2,130.9-130.9c2.9-10.7-3.9-32-14.5-41.7c-10.7-9.7-78.5-68.8-84.3-66.9&#10;&#9;&#9;S1606.3,1253.4,1606.3,1253.4z" style="fill: rgb(60, 195, 217);" transform="matrix(0.16991570591926575, 0, 0, 0.16991570591926575, -255.3100066937728, -174.8390918987142)"/><path class="st0" d="M1828.4,1118c-3.4-3.4-8.9-3.4-12.3,0l-10.7,10.7c-3.4,3.4-3.4,8.9,0,12.3c1.7,1.7,3.9,2.5,6.2,2.5&#10;&#9;&#9;c2.2,0,4.5-0.9,6.2-2.6l10.7-10.7C1831.8,1126.9,1831.8,1121.4,1828.4,1118z M1845.8,1135.4c-3.4-3.4-8.9-3.4-12.3,0l-10.7,10.7&#10;&#9;&#9;c-3.4,3.4-3.4,8.9,0,12.3c1.7,1.7,3.9,2.5,6.2,2.6c2.2,0,4.5-0.9,6.2-2.6l10.7-10.7C1849.2,1144.4,1849.2,1138.8,1845.8,1135.4z" style="fill: rgb(60, 195, 217);" transform="matrix(0.16991570591926575, 0, 0, 0.16991570591926575, -255.3100066937728, -174.8390918987142)"/><path class="st1" d="M1896.2,1144.6l-77.4-77.4l-50.8,50.9c-5.6-4.9-12.7-7.4-19.8-7.4c-8.9,0-17.8,3.6-24.7,10.5L1590,1254.5&#10;&#9;&#9;c-6.9,6.9-10.5,15.8-10.5,24.7c0,7.7,2.8,15.5,8.7,21.4l73.8,73.8c5.8,5.8,13.7,8.7,21.4,8.6c8.9,0,17.8-3.6,24.7-10.5l133.4-133.4&#10;&#9;&#9;c6.8-6.9,10.5-15.8,10.5-24.7c0-6.7-2.2-13.4-6.6-18.9L1896.2,1144.6z M1818.7,1091.8l52.8,52.8l-38.4,38.4l-52.8-52.8&#10;&#9;&#9;L1818.7,1091.8z M1829,1226.8l-119.4,119.4l-11.8-11.8c-3.4-3.4-8.9-3.4-12.3,0c-3.4,3.4-3.4,8.9,0,12.3l11.8,11.8l-1.6,1.6l0,0&#10;&#9;&#9;c-3.7,3.7-8.3,5.4-12.4,5.4c-3.6,0-6.7-1.2-9-3.5l-73.8-73.8c-2.3-2.3-3.5-5.4-3.6-9c0-4.1,1.7-8.7,5.4-12.4l1.6-1.6l53.4,53.4&#10;&#9;&#9;c1.7,1.7,3.9,2.6,6.2,2.6c2.2,0,4.5-0.9,6.2-2.6c3.4-3.4,3.4-8.9,0-12.3l-53.4-53.4l119.4-119.4c3.7-3.7,8.3-5.4,12.4-5.4&#10;&#9;&#9;c3.6,0,6.6,1.2,9,3.6l73.8,73.8c2.3,2.3,3.5,5.4,3.5,9C1834.4,1218.5,1832.7,1223.1,1829,1226.8z" style="fill: rgb(12, 44, 65);" transform="matrix(0.16991570591926575, 0, 0, 0.16991570591926575, -255.3100066937728, -174.8390918987142)"/></svg>