<?xml version="1.0" encoding="utf-8"?>
<svg id="master-artboard" viewBox="0 0 102.40694427490234 133.8671417236328" version="1.1" xmlns="http://www.w3.org/2000/svg" x="0px" y="0px" style="enable-background:new 0 0 1400 980;" width="102.40694427490234px" height="133.8671417236328px"><rect id="ee-background" x="0" y="0" width="102.40694427490234" height="133.8671417236328" style="fill: white; fill-opacity: 0; pointer-events: none;"/>













<path d="M 1018.899986 827.700012 A 55.099998 55.099998 0 0 1 963.799988 882.800011 A 55.099998 55.099998 0 0 1 908.699989 827.700012 A 55.099998 55.099998 0 0 1 963.799988 772.600014 A 55.099998 55.099998 0 0 1 1018.899986 827.700012 Z" class="st4" style="fill: rgb(255, 255, 255); stroke: rgb(0, 0, 0); stroke-width: 3; stroke-miterlimit: 10; fill-opacity: 0;" transform="matrix(0.664017085465376, 0, 0, 0.664017085465376, -597.5521442138967, -505.8921758074001)"/><path class="st7" d="M969.6,856.9c-2.2,0-4.4-1-5.8-2.7l-21.9-26.7c-2.6-3.2-2.2-7.9,1-10.6c3.2-2.6,7.9-2.2,10.6,1l14.4,17.5&#10;&#9;&#9;c9.2-18.5,29.7-54.7,55.3-65.9c3.8-1.7,8.2,0.1,9.9,3.8c1.7,3.8-0.1,8.2-3.8,9.9c-23.9,10.5-46.1,53.4-52.7,69.1&#10;&#9;&#9;c-1,2.4-3.2,4.2-5.8,4.5C970.3,856.8,970,856.9,969.6,856.9z" style="fill: rgb(132, 193, 108); stroke: rgb(0, 0, 0); stroke-width: 3; stroke-miterlimit: 10;" transform="matrix(0.664017085465376, 0, 0, 0.664017085465376, -597.5521442138967, -505.8921758074001)"/><g transform="matrix(0.664017085465376, 0, 0, 0.664017085465376, -597.5521442138967, -505.8921758074001)">
			<g>
				<path d="M 1025.900024 930.799988 L 956.200012 930.799988" class="st1" style="fill: rgb(255, 255, 255);"/>
			</g>
			<g>
				<path d="M 956.200012 929 H 1026.000015 V 932.7 H 956.200012 V 929 Z"/>
			</g>
		</g><g transform="matrix(0.664017085465376, 0, 0, 0.664017085465376, -597.5521442138967, -505.8921758074001)">
			<g>
				<path d="M 1008.099976 940.200012 L 987.099976 940.200012" class="st1" style="fill: rgb(255, 255, 255);"/>
			</g>
			<g>
				<path d="M 987.099976 938.400024 H 1008.099976 V 942.100024 H 987.099976 V 938.400024 Z"/>
			</g>
		</g><g transform="matrix(0.664017085465376, 0, 0, 0.664017085465376, -597.5521442138967, -505.8921758074001)">
			<g>
				<g>
					<g>
						<g>
							<g>
								<g>
									<g>
										<path d="M1032.5,894.6l-7.9-7.9c-0.8-0.8-0.8-1.8,0-2.6c0.8-0.8,1.9-0.8,2.6,0l7.9,7.9c0.8,0.8,0.8,1.8,0,2.6&#10;&#9;&#9;&#9;&#9;&#9;&#9;&#9;&#9;&#9;&#9;&#9;C1034.4,895.4,1033.3,895.4,1032.5,894.6z"/>
									</g>
								</g>
							</g>
						</g>
					</g>
				</g>
				<g>
					<g>
						<g>
							<g>
								<g>
									<g>
										<path d="M1024.6,894.6c-0.8-0.8-0.8-1.8,0-2.6l7.9-7.9c0.8-0.8,1.9-0.8,2.6,0c0.8,0.8,0.8,1.8,0,2.6l-7.9,7.9&#10;&#9;&#9;&#9;&#9;&#9;&#9;&#9;&#9;&#9;&#9;&#9;C1026.5,895.4,1025.4,895.4,1024.6,894.6z"/>
									</g>
								</g>
							</g>
						</g>
					</g>
				</g>
			</g>
		</g></svg>