<?xml version="1.0" encoding="iso-8859-1"?>
<!-- Generator: Adobe Illustrator 19.0.0, SVG Export Plug-In . SVG Version: 6.00 Build 0)  -->
<svg version="1.1" id="Layer_1" xmlns="http://www.w3.org/2000/svg" xmlns:xlink="http://www.w3.org/1999/xlink" x="0px" y="0px"
	 viewBox="0 0 512 512" style="enable-background:new 0 0 512 512;" xml:space="preserve">
<path style="fill:#F15A24;" d="M256.001,464.122c-114.942,0-208.122-93.179-208.122-208.122S141.058,47.879,256.001,47.879"/>
<path style="fill:#FFFFFF;" d="M256.001,47.878c114.942,0,208.122,93.179,208.122,208.122s-93.179,208.122-208.122,208.122"/>
<ellipse style="fill:#FBB03B;" cx="256.005" cy="256.005" rx="120.074" ry="208.122"/>
<path style="fill:#B8B5AD;" d="M256.001,47.878c66.313,0,120.07,93.179,120.07,208.122s-53.757,208.122-120.07,208.122"/>
<path style="fill:#84DCCF;" d="M425.252,199.967H320.037v-81.201c0-43.571,35.322-78.893,78.893-78.893h26.322
	c43.571,0,78.893,35.322,78.893,78.893v2.308C504.145,164.646,468.824,199.967,425.252,199.967z"/>
<path style="fill:#027EA8;" d="M428.249,40.266c-1.334-0.066-2.799-0.013-4.151-0.013h-24.014
	c-44.208,0-80.199,35.458-80.199,79.667v79.524h32.467V119.92C352.352,77.063,385.913,42.365,428.249,40.266z"/>
<path style="fill:#84DCCF;" d="M87.902,312.033h104.061v80.047c0,44.208-35.838,80.047-80.047,80.047H87.902
	c-44.209,0-80.047-35.838-80.047-80.047l0,0C7.855,347.871,43.693,312.033,87.902,312.033z"/>
<path style="fill:#027EA8;" d="M47.878,392.341c0-44.209,35.838-79.786,80.047-79.786H87.902c-44.208,0-80.047,35.387-80.047,79.596
	c0,44.208,35.838,79.596,80.047,79.596h24.014c2.702,0,5.372,0.178,8.005-0.084C79.471,467.645,47.878,433.846,47.878,392.341z"/>
<rect x="368.067" y="88.435" width="24.088" height="15.71"/>
<g>
	<rect x="368.067" y="112.523" style="fill:#FFFFFF;" width="87.974" height="15.71"/>
	<rect x="368.067" y="135.564" style="fill:#FFFFFF;" width="39.798" height="15.71"/>
</g>
<rect x="416.243" y="135.564" width="24.088" height="15.71"/>
<rect x="55.968" y="360.736" style="fill:#FFFFFF;" width="55.507" height="15.71"/>
<rect x="55.968" y="383.777" width="15.71" height="15.71"/>
<rect x="87.388" y="383.777" style="fill:#FFFFFF;" width="56.555" height="15.71"/>
<rect x="55.968" y="407.865" width="15.71" height="15.71"/>
<rect x="87.388" y="407.865" style="fill:#FFFFFF;" width="56.555" height="15.71"/>
<path d="M452.115,384.225h-8.63v15.71h8.63c6.164,0,12.247-1.593,17.592-4.605l-7.713-13.685
	C458.998,383.333,455.582,384.225,452.115,384.225z"/>
<path d="M471.331,357.938c0.627,1.969,0.945,4.03,0.946,6.125c0,3.463-0.89,6.876-2.574,9.868l13.69,7.704
	c3.006-5.34,4.594-11.417,4.594-17.574c0-3.715-0.568-7.379-1.686-10.89L471.331,357.938z"/>
<rect x="410.871" y="328.196" width="22.988" height="15.71"/>
<rect x="295.928" y="328.196" width="22.988" height="15.71"/>
<rect x="219.296" y="328.196" width="22.988" height="15.71"/>
<path d="M425.488,32.018h-26.792c-23.336,0-44.53,9.304-60.106,24.377c-26.162-10.857-53.895-16.373-82.589-16.373
	c-55.747,0-106.628,21.232-144.983,56.032h-2.477v2.299c-16.606,15.543-30.765,33.668-41.824,53.734h-6.831v13.499
	c-12.737,27.52-19.862,58.148-19.862,90.412c0,19.676,2.639,39.098,7.845,57.863C19.479,328.453,0,358.025,0,392.08
	c0,48.47,39.432,87.902,87.902,87.902h24.015c23.634,0,45.102-9.393,60.916-24.62c26.333,11.017,54.262,16.616,83.168,16.616
	c63.846,0,121.301-27.856,160.874-72.042h11.226V386.33c9.907-13.049,18.357-27.259,25.128-42.379
	c4.462,0.247,8.727,1.95,12.11,4.891l10.31-11.853c-4.693-4.081-10.338-6.835-16.357-8.064
	c8.204-22.791,12.685-47.343,12.685-72.925c0-19.482-2.602-38.776-7.718-57.387C492.542,184.368,512,155.075,512,121.308v-2.777
	C512,70.828,473.191,32.018,425.488,32.018z M117.212,111.766h15.443V98.332c18.687-14.652,40.035-26.054,63.184-33.361
	c-9.372,8.381-18.14,18.785-26.117,31.085H148.73v15.71h11.784c-20.002,37.787-31.365,85.833-32.359,136.903H55.964v15.71h72.214
	c0.302,13.447,1.336,26.77,3.074,39.8h-43.35c-8.816,0-17.328,1.32-25.364,3.746c-4.513-16.858-6.804-34.277-6.804-51.924
	C55.733,199.404,79.338,148.223,117.212,111.766z M111.916,464.272H87.901c-39.806,0-72.191-32.386-72.191-72.192
	s32.385-72.192,72.192-72.192h96.206v72.192C184.108,431.886,151.723,464.272,111.916,464.272z M183.642,442.798
	c1.095-1.545,2.154-3.118,3.15-4.735c3,3.246,6.065,6.273,9.194,9.068C191.835,445.825,187.719,444.379,183.642,442.798z
	 M247.622,455.702c-19.01-2.553-37.252-13.789-53.352-32.909c3.58-9.567,5.549-19.914,5.549-30.713v-48.178h4.152v-15.71h-4.152
	v-24.014h-52.716c-1.818-13.002-2.892-26.333-3.207-39.8h103.728v191.324H247.622z M247.622,96.056h-18.511v15.71h18.511v136.903
	H143.868c1.042-51.474,13.027-99.498,34.033-135.909c19.173-33.232,43.67-52.968,69.721-56.463V96.056z M327.823,69.007
	c-1.037,1.479-2.042,2.98-2.986,4.524c-2.88-3.096-5.823-5.983-8.824-8.662C319.985,66.119,323.921,67.504,327.823,69.007z
	 M263.332,56.17c19.268,2.261,37.775,13.423,54.099,32.676c-0.863,2.354-1.61,4.764-2.268,7.209h-5.67v15.71h2.982
	c-0.174,2.235-0.29,4.487-0.29,6.766v89.291h52.724c1.867,13.338,2.948,27.025,3.231,40.846H263.332V56.17z M263.332,455.825
	V343.901h17.266v-15.71h-17.266v-63.814h104.779c-0.633,27.345-4.36,53.697-10.885,77.832v-14.018h-22.988v15.71h22.52
	c-5.621,20.293-13.228,38.988-22.66,55.338C314.67,432.916,289.771,452.725,263.332,455.825z M316.161,447.029
	c11.548-10.325,22.182-23.711,31.545-39.939c10.73-18.599,19.236-39.985,25.304-63.187h22.529v-15.71h-18.846
	c4.213-20.311,6.638-41.775,7.129-63.814h72.214v-15.71h-72.184c-0.271-13.804-1.321-27.479-3.105-40.846h44.74
	c8.351,0,16.421-1.213,24.066-3.432c4.455,16.756,6.713,34.098,6.713,51.609C456.267,345.473,397.284,421.424,316.161,447.029z
	 M496.29,121.309c0,39.041-31.762,70.803-70.802,70.803h-97.596v-73.581c0-39.041,31.763-70.802,70.803-70.802h26.792
	c39.041,0,70.802,31.762,70.802,70.802V121.309z"/>
<rect x="68.348" y="96.059" width="24.109" height="15.71"/>
<path d="M54.472,112.498l-4.206-15.136c-10.07,2.797-18.4,9.838-22.857,19.317l14.216,6.684
	C44.134,118.03,48.815,114.07,54.472,112.498z"/>
<rect x="269.306" y="96.059" width="24.109" height="15.71"/>
<rect x="188.924" y="96.059" width="24.109" height="15.71"/>
<path d="M48.915,148.847c-4.946-3.216-8.23-8.392-9.011-14.202l-15.569,2.09c1.39,10.352,7.227,19.566,16.017,25.281L48.915,148.847
	z"/>
<g>
</g>
<g>
</g>
<g>
</g>
<g>
</g>
<g>
</g>
<g>
</g>
<g>
</g>
<g>
</g>
<g>
</g>
<g>
</g>
<g>
</g>
<g>
</g>
<g>
</g>
<g>
</g>
<g>
</g>
</svg>
