<?xml version="1.0" encoding="utf-8"?>
<svg id="master-artboard" viewBox="0 0 49.95072555541992 47.818519592285156" version="1.1" xmlns="http://www.w3.org/2000/svg" x="0px" y="0px" width="49.95072555541992px" height="47.818519592285156px" enable-background="new 0 0 841.9 595.3"><rect id="ee-background" x="0" y="0" width="49.95072555541992" height="47.818519592285156" style="fill: white; fill-opacity: 0; pointer-events: none;"/>

<path d="M 452.5 408.3999938964844 L 376.8999938964844 430.29998779296875 L 460.29998779296875 430.29998779296875 Z" fill="#82C9BF" transform="matrix(0.35879309999839504, 0, 0, 0.35879309999839504, -125.98215579049312, -143.37974811632142)"/><path fill="#F3D39C" d="M449.2,475.4L449.2,475.4c0,6.1,4.9,11,11,11H473c3.3,0,6-2.7,6-6v-10.2c0-3.3-2.7-6-6-6h-12.8&#10;&#9;&#9;&#9;&#9;C454.1,464.4,449.2,469.3,449.2,475.4z" transform="matrix(0.35879309999839504, 0, 0, 0.35879309999839504, -125.98215579049312, -143.37974811632142)"/><path fill="#F15C22" d="M473,486.5h-12.8c-6.1,0-11-4.9-11-11v0c0-6.1,4.9-11,11-11H473c0,0,0,0,0,0v-25.5c0-4.7-3.8-8.5-8.5-8.5&#10;&#9;&#9;&#9;&#9;h-93c-4.7,0-8.5,3.8-8.5,8.5V512c0,4.7,3.8,8.5,8.5,8.5h93c4.7,0,8.5-3.8,8.5-8.5L473,486.5C473,486.5,473,486.5,473,486.5z" transform="matrix(0.35879309999839504, 0, 0, 0.35879309999839504, -125.98215579049312, -143.37974811632142)"/><path fill="#D1501D" d="M464.5,509.5h-93c-4.7,0-8.5-3.8-8.5-8.5v11c0,4.7,3.8,8.5,8.5,8.5h93c4.7,0,8.5-3.8,8.5-8.5v-11&#10;&#9;&#9;&#9;&#9;C473,505.7,469.2,509.5,464.5,509.5z" transform="matrix(0.35879309999839504, 0, 0, 0.35879309999839504, -125.98215579049312, -143.37974811632142)"/><path fill="#6F3749" d="M473,489h-12.8c-7.5,0-13.5-6.1-13.5-13.5s6.1-13.5,13.5-13.5H473c4.7,0,8.5,3.8,8.5,8.5v10.2&#10;&#9;&#9;&#9;&#9;C481.5,485.2,477.7,489,473,489z M460.2,466.9c-4.7,0-8.5,3.8-8.5,8.5c0,4.7,3.8,8.5,8.5,8.5H473c1.9,0,3.5-1.6,3.5-3.5v-10.2&#10;&#9;&#9;&#9;&#9;c0-1.9-1.6-3.5-3.5-3.5H460.2z" transform="matrix(0.35879309999839504, 0, 0, 0.35879309999839504, -125.98215579049312, -143.37974811632142)"/><path fill="#6F3749" d="M464.5,523.1h-93c-6.1,0-11-5-11-11v-73.2c0-6.1,5-11,11-11h93c6.1,0,11,5,11,11v25.5&#10;&#9;&#9;&#9;&#9;c0,0.7-0.3,1.3-0.8,1.8c-0.5,0.5-1.1,0.7-1.8,0.7c0,0,0,0,0,0h-12.7c-4.7,0-8.5,3.8-8.5,8.5c0,4.7,3.8,8.5,8.5,8.5h12.7&#10;&#9;&#9;&#9;&#9;c0,0,0.1,0,0.1,0c0.6,0,1.3,0.3,1.7,0.7c0.5,0.5,0.8,1.1,0.8,1.8V512C475.5,518.1,470.6,523.1,464.5,523.1z M371.5,432.8&#10;&#9;&#9;&#9;&#9;c-3.3,0-6,2.7-6,6V512c0,3.3,2.7,6,6,6h93c3.3,0,6-2.7,6-6v-23h-10.3c-7.5,0-13.5-6.1-13.5-13.5s6.1-13.5,13.5-13.5h10.3v-23&#10;&#9;&#9;&#9;&#9;c0-3.3-2.7-6-6-6H371.5z" transform="matrix(0.35879309999839504, 0, 0, 0.35879309999839504, -125.98215579049312, -143.37974811632142)"/><path d="M 464.599988 475.399994 A 4.3 4.3 0 0 1 460.299988 479.699994 A 4.3 4.3 0 0 1 455.999988 475.399994 A 4.3 4.3 0 0 1 460.299988 471.099994 A 4.3 4.3 0 0 1 464.599988 475.399994 Z" fill="#FFFFFF" transform="matrix(0.35879309999839504, 0, 0, 0.35879309999839504, -125.98215579049312, -143.37974811632142)"/><path fill="#6F3749" d="M377.6,432.7l-1.4-4.8l75.6-21.8c1.3-0.4,2.6,0.3,3,1.6l7.8,21.8l-4.7,1.7l-7-19.6L377.6,432.7z" transform="matrix(0.35879309999839504, 0, 0, 0.35879309999839504, -125.98215579049312, -143.37974811632142)"/><path fill="#6F3749" d="M451.7,423.8c-6.8,0-12.7-4.4-14.7-10.9l4.8-1.5c1.3,4.4,5.3,7.3,9.9,7.3c1.4,0,2.8-0.3,4.1-0.8l2,4.6&#10;&#9;&#9;&#9;&#9;C455.8,423.4,453.7,423.8,451.7,423.8z" transform="matrix(0.35879309999839504, 0, 0, 0.35879309999839504, -125.98215579049312, -143.37974811632142)"/><path d="M 409.200012 437.200012 H 418.000012 V 442.200012 H 409.200012 V 437.200012 Z" fill="#FFFFFF" transform="matrix(0.35879309999839504, 0, 0, 0.35879309999839504, -125.98215579049312, -143.37974811632142)"/><path d="M 372.899994 437.200012 H 403.299994 V 442.200012 H 372.899994 V 437.200012 Z" fill="#FFFFFF" transform="matrix(0.35879309999839504, 0, 0, 0.35879309999839504, -125.98215579049312, -143.37974811632142)"/></svg>